<?xml version="1.0" encoding="UTF-8" standalone="no"?>
<svg
   xmlns:dc="http://purl.org/dc/elements/1.1/"
   xmlns:cc="http://creativecommons.org/ns#"
   xmlns:rdf="http://www.w3.org/1999/02/22-rdf-syntax-ns#"
   xmlns:svg="http://www.w3.org/2000/svg"
   xmlns="http://www.w3.org/2000/svg"
   xmlns:sodipodi="http://sodipodi.sourceforge.net/DTD/sodipodi-0.dtd"
   xmlns:inkscape="http://www.inkscape.org/namespaces/inkscape"
   width="322.40445mm"
   height="133.76999mm"
   viewBox="0 0 322.40445 133.76999"
   version="1.1"
   id="svg4321"
   inkscape:version="1.0.2 (e86c870879, 2021-01-15, custom)"
   sodipodi:docname="pigeons.svg">
  <defs
     id="defs4315">
    <radialGradient
       id="SVGID_9_"
       cx="962.59363"
       cy="504.39651"
       r="35.519901"
       gradientUnits="userSpaceOnUse"
       gradientTransform="matrix(0.26458333,0,0,0.26458333,98.1027,38.186643)">
      <stop
         offset="0.2338"
         style="stop-color:#E90020;stop-opacity:0.96"
         id="stop288" />
      <stop
         offset="0.3122"
         style="stop-color:#EA0226;stop-opacity:0.9641"
         id="stop290" />
      <stop
         offset="0.4201"
         style="stop-color:#EB0A38;stop-opacity:0.9697"
         id="stop292" />
      <stop
         offset="0.5452"
         style="stop-color:#EE1555;stop-opacity:0.9763"
         id="stop294" />
      <stop
         offset="0.6833"
         style="stop-color:#F3257E;stop-opacity:0.9835"
         id="stop296" />
      <stop
         offset="0.8318"
         style="stop-color:#F83AB2;stop-opacity:0.9912"
         id="stop298" />
      <stop
         offset="0.9871"
         style="stop-color:#FE53F0;stop-opacity:0.9993"
         id="stop300" />
      <stop
         offset="1"
         style="stop-color:#FF55F6"
         id="stop302" />
    </radialGradient>
    <radialGradient
       id="SVGID_10_"
       cx="1036.0438"
       cy="515.89807"
       r="28.2822"
       gradientUnits="userSpaceOnUse"
       gradientTransform="matrix(0.26458333,0,0,0.26458333,98.1027,38.186643)">
      <stop
         offset="0.2338"
         style="stop-color:#E90020;stop-opacity:0.96"
         id="stop307" />
      <stop
         offset="0.3122"
         style="stop-color:#EA0226;stop-opacity:0.9641"
         id="stop309" />
      <stop
         offset="0.4201"
         style="stop-color:#EB0A38;stop-opacity:0.9697"
         id="stop311" />
      <stop
         offset="0.5452"
         style="stop-color:#EE1555;stop-opacity:0.9763"
         id="stop313" />
      <stop
         offset="0.6833"
         style="stop-color:#F3257E;stop-opacity:0.9835"
         id="stop315" />
      <stop
         offset="0.8318"
         style="stop-color:#F83AB2;stop-opacity:0.9912"
         id="stop317" />
      <stop
         offset="0.9871"
         style="stop-color:#FE53F0;stop-opacity:0.9993"
         id="stop319" />
      <stop
         offset="1"
         style="stop-color:#FF55F6"
         id="stop321" />
    </radialGradient>
    <linearGradient
       id="SVGID_11_"
       gradientUnits="userSpaceOnUse"
       x1="975.03418"
       y1="404.17899"
       x2="1201.3661"
       y2="404.17899"
       gradientTransform="matrix(0.26458333,0,0,0.26458333,98.1027,38.186643)">
      <stop
         offset="0.2338"
         style="stop-color:#E9005A;stop-opacity:0.96"
         id="stop328" />
      <stop
         offset="0.2543"
         style="stop-color:#E50654;stop-opacity:0.9611"
         id="stop330" />
      <stop
         offset="0.3807"
         style="stop-color:#D02436;stop-opacity:0.9677"
         id="stop332" />
      <stop
         offset="0.5137"
         style="stop-color:#BF3C1E;stop-opacity:0.9746"
         id="stop334" />
      <stop
         offset="0.6545"
         style="stop-color:#B34D0D;stop-opacity:0.982"
         id="stop336" />
      <stop
         offset="0.8084"
         style="stop-color:#AC5703;stop-opacity:0.99"
         id="stop338" />
      <stop
         offset="1"
         style="stop-color:#AA5A00"
         id="stop340" />
    </linearGradient>
    <radialGradient
       id="SVGID_12_"
       cx="1017.1484"
       cy="221.147"
       r="13.5161"
       gradientUnits="userSpaceOnUse"
       gradientTransform="matrix(0.26458333,0,0,0.26458333,98.1027,38.186643)">
      <stop
         offset="0.2338"
         style="stop-color:#E90020;stop-opacity:0.96"
         id="stop345" />
      <stop
         offset="0.3122"
         style="stop-color:#EA0226;stop-opacity:0.9641"
         id="stop347" />
      <stop
         offset="0.4201"
         style="stop-color:#EB0A38;stop-opacity:0.9697"
         id="stop349" />
      <stop
         offset="0.5452"
         style="stop-color:#EE1555;stop-opacity:0.9763"
         id="stop351" />
      <stop
         offset="0.6833"
         style="stop-color:#F3257E;stop-opacity:0.9835"
         id="stop353" />
      <stop
         offset="0.8318"
         style="stop-color:#F83AB2;stop-opacity:0.9912"
         id="stop355" />
      <stop
         offset="0.9871"
         style="stop-color:#FE53F0;stop-opacity:0.9993"
         id="stop357" />
      <stop
         offset="1"
         style="stop-color:#FF55F6"
         id="stop359" />
    </radialGradient>
    <linearGradient
       id="SVGID_13_"
       gradientUnits="userSpaceOnUse"
       x1="1035.829"
       y1="244.6234"
       x2="1095.4705"
       y2="244.6234"
       gradientTransform="matrix(0.26458333,0,0,0.26458333,98.1027,38.186643)">
      <stop
         offset="0.2338"
         style="stop-color:#E9005A;stop-opacity:0.96"
         id="stop370" />
      <stop
         offset="0.2543"
         style="stop-color:#E50654;stop-opacity:0.9611"
         id="stop372" />
      <stop
         offset="0.3807"
         style="stop-color:#D02436;stop-opacity:0.9677"
         id="stop374" />
      <stop
         offset="0.5137"
         style="stop-color:#BF3C1E;stop-opacity:0.9746"
         id="stop376" />
      <stop
         offset="0.6545"
         style="stop-color:#B34D0D;stop-opacity:0.982"
         id="stop378" />
      <stop
         offset="0.8084"
         style="stop-color:#AC5703;stop-opacity:0.99"
         id="stop380" />
      <stop
         offset="1"
         style="stop-color:#AA5A00"
         id="stop382" />
    </linearGradient>
    <radialGradient
       id="SVGID_14_"
       cx="280.1839"
       cy="436.58359"
       r="32.5224"
       gradientTransform="matrix(-0.9846,0.1749,0.1749,0.9846,542.98,-27.5813)"
       gradientUnits="userSpaceOnUse">
      <stop
         offset="0.2338"
         style="stop-color:#15A6FF;stop-opacity:0.96"
         id="stop389" />
      <stop
         offset="0.3077"
         style="stop-color:#1BA4F9;stop-opacity:0.964"
         id="stop391" />
      <stop
         offset="0.4095"
         style="stop-color:#2D9EE9;stop-opacity:0.9694"
         id="stop393" />
      <stop
         offset="0.5275"
         style="stop-color:#4A94CE;stop-opacity:0.9757"
         id="stop395" />
      <stop
         offset="0.6577"
         style="stop-color:#7385A9;stop-opacity:0.9827"
         id="stop397" />
      <stop
         offset="0.7979"
         style="stop-color:#A77379;stop-opacity:0.9902"
         id="stop399" />
      <stop
         offset="0.9443"
         style="stop-color:#E65E40;stop-opacity:0.9981"
         id="stop401" />
      <stop
         offset="0.9801"
         style="stop-color:#F65831"
         id="stop403" />
      <stop
         offset="1"
         style="stop-color:#FF55F6"
         id="stop405" />
    </radialGradient>
    <radialGradient
       id="SVGID_15_"
       cx="351.26181"
       cy="471.77899"
       r="28.589199"
       gradientTransform="matrix(-0.9901,-0.1403,-0.1403,0.9901,682.6381,58.0039)"
       gradientUnits="userSpaceOnUse">
      <stop
         offset="0.2338"
         style="stop-color:#15A6FF;stop-opacity:0.96"
         id="stop410" />
      <stop
         offset="0.3077"
         style="stop-color:#1BA4F9;stop-opacity:0.964"
         id="stop412" />
      <stop
         offset="0.4095"
         style="stop-color:#2D9EE9;stop-opacity:0.9694"
         id="stop414" />
      <stop
         offset="0.5275"
         style="stop-color:#4A94CE;stop-opacity:0.9757"
         id="stop416" />
      <stop
         offset="0.6577"
         style="stop-color:#7385A9;stop-opacity:0.9827"
         id="stop418" />
      <stop
         offset="0.7979"
         style="stop-color:#A77379;stop-opacity:0.9902"
         id="stop420" />
      <stop
         offset="0.9443"
         style="stop-color:#E65E40;stop-opacity:0.9981"
         id="stop422" />
      <stop
         offset="0.9801"
         style="stop-color:#F65831"
         id="stop424" />
      <stop
         offset="1"
         style="stop-color:#FF55F6"
         id="stop426" />
    </radialGradient>
    <radialGradient
       id="SVGID_16_"
       cx="387.53381"
       cy="234.1237"
       r="12.9261"
       gradientTransform="matrix(-0.26196396,-0.03712104,-0.03712104,0.26196396,278.71736,53.533508)"
       gradientUnits="userSpaceOnUse">
      <stop
         offset="0.2338"
         style="stop-color:#E90020;stop-opacity:0.96"
         id="stop437" />
      <stop
         offset="0.3122"
         style="stop-color:#EA0226;stop-opacity:0.9641"
         id="stop439" />
      <stop
         offset="0.4201"
         style="stop-color:#EB0A38;stop-opacity:0.9697"
         id="stop441" />
      <stop
         offset="0.5452"
         style="stop-color:#EE1555;stop-opacity:0.9763"
         id="stop443" />
      <stop
         offset="0.6833"
         style="stop-color:#F3257E;stop-opacity:0.9835"
         id="stop445" />
      <stop
         offset="0.8318"
         style="stop-color:#F83AB2;stop-opacity:0.9912"
         id="stop447" />
      <stop
         offset="0.9871"
         style="stop-color:#FE53F0;stop-opacity:0.9993"
         id="stop449" />
      <stop
         offset="1"
         style="stop-color:#FF55F6"
         id="stop451" />
    </radialGradient>
    <linearGradient
       id="SVGID_17_"
       gradientUnits="userSpaceOnUse"
       x1="315.17209"
       y1="385.14871"
       x2="496.0993"
       y2="385.14871"
       gradientTransform="matrix(-0.19650604,-0.177165,-0.177165,0.19650604,302.54896,130.84137)">
      <stop
         offset="0.2338"
         style="stop-color:#E900BD;stop-opacity:0.96"
         id="stop468" />
      <stop
         offset="0.2584"
         style="stop-color:#DB00B5;stop-opacity:0.9613"
         id="stop470" />
      <stop
         offset="0.347"
         style="stop-color:#AF009C;stop-opacity:0.9659"
         id="stop472" />
      <stop
         offset="0.4396"
         style="stop-color:#8A0086;stop-opacity:0.9707"
         id="stop474" />
      <stop
         offset="0.5353"
         style="stop-color:#6B0074;stop-opacity:0.9757"
         id="stop476" />
      <stop
         offset="0.6351"
         style="stop-color:#530066;stop-opacity:0.981"
         id="stop478" />
      <stop
         offset="0.7408"
         style="stop-color:#42005D;stop-opacity:0.9865"
         id="stop480" />
      <stop
         offset="0.8563"
         style="stop-color:#380057;stop-opacity:0.9925"
         id="stop482" />
      <stop
         offset="1"
         style="stop-color:#350055"
         id="stop484" />
    </linearGradient>
    <radialGradient
       id="SVGID_18_"
       cx="677.86768"
       cy="586.57111"
       r="53.729698"
       gradientUnits="userSpaceOnUse"
       gradientTransform="matrix(0.26458333,0,0,0.26458333,80.655292,35.071034)">
      <stop
         offset="0.2338"
         style="stop-color:#00153F;stop-opacity:0.96"
         id="stop497" />
      <stop
         offset="0.2829"
         style="stop-color:#09123C;stop-opacity:0.9626"
         id="stop499" />
      <stop
         offset="0.4362"
         style="stop-color:#210A36;stop-opacity:0.9706"
         id="stop501" />
      <stop
         offset="0.5994"
         style="stop-color:#320432;stop-opacity:0.9791"
         id="stop503" />
      <stop
         offset="0.7778"
         style="stop-color:#3C012F;stop-opacity:0.9884"
         id="stop505" />
      <stop
         offset="1"
         style="stop-color:#3F002E"
         id="stop507" />
    </radialGradient>
    <radialGradient
       id="SVGID_19_"
       cx="661.00311"
       cy="197.05161"
       r="16.1707"
       gradientUnits="userSpaceOnUse"
       gradientTransform="matrix(0.26458333,0,0,0.26458333,80.655292,35.071034)">
      <stop
         offset="0"
         style="stop-color:#FFFFFF"
         id="stop518" />
      <stop
         offset="1"
         style="stop-color:#91278D"
         id="stop520" />
    </radialGradient>
    <radialGradient
       id="SVGID_20_"
       cx="554.83649"
       cy="545.724"
       r="66.5961"
       gradientUnits="userSpaceOnUse"
       gradientTransform="matrix(0.26458333,0,0,0.26458333,80.655292,35.071034)">
      <stop
         offset="0.2338"
         style="stop-color:#00153F;stop-opacity:0.96"
         id="stop537" />
      <stop
         offset="0.2829"
         style="stop-color:#09123C;stop-opacity:0.9626"
         id="stop539" />
      <stop
         offset="0.4362"
         style="stop-color:#210A36;stop-opacity:0.9706"
         id="stop541" />
      <stop
         offset="0.5994"
         style="stop-color:#320432;stop-opacity:0.9791"
         id="stop543" />
      <stop
         offset="0.7778"
         style="stop-color:#3C012F;stop-opacity:0.9884"
         id="stop545" />
      <stop
         offset="1"
         style="stop-color:#3F002E"
         id="stop547" />
    </radialGradient>
    <linearGradient
       id="SVGID_21_"
       gradientUnits="userSpaceOnUse"
       x1="574.09161"
       y1="322.75671"
       x2="574.09161"
       y2="526.42468"
       gradientTransform="matrix(0.26458333,0,0,0.26458333,80.655292,35.071034)">
      <stop
         offset="0.2338"
         style="stop-color:#7A00A3"
         id="stop552" />
      <stop
         offset="0.3405"
         style="stop-color:#5A007E"
         id="stop554" />
      <stop
         offset="0.4522"
         style="stop-color:#400060"
         id="stop556" />
      <stop
         offset="0.5698"
         style="stop-color:#2C0048"
         id="stop558" />
      <stop
         offset="0.6944"
         style="stop-color:#1D0037"
         id="stop560" />
      <stop
         offset="0.8305"
         style="stop-color:#15002D"
         id="stop562" />
      <stop
         offset="1"
         style="stop-color:#12002A"
         id="stop564" />
    </linearGradient>
    <linearGradient
       id="SVGID_22_"
       gradientUnits="userSpaceOnUse"
       x1="647.27039"
       y1="322.8876"
       x2="647.27039"
       y2="550.82172"
       gradientTransform="matrix(0.26458333,0,0,0.26458333,80.655292,35.071034)">
      <stop
         offset="0.2338"
         style="stop-color:#E900A3;stop-opacity:0.96"
         id="stop569" />
      <stop
         offset="0.2584"
         style="stop-color:#DB009D;stop-opacity:0.9613"
         id="stop571" />
      <stop
         offset="0.347"
         style="stop-color:#AF008A;stop-opacity:0.9659"
         id="stop573" />
      <stop
         offset="0.4396"
         style="stop-color:#8A007A;stop-opacity:0.9707"
         id="stop575" />
      <stop
         offset="0.5353"
         style="stop-color:#6B006C;stop-opacity:0.9757"
         id="stop577" />
      <stop
         offset="0.6351"
         style="stop-color:#530062;stop-opacity:0.981"
         id="stop579" />
      <stop
         offset="0.7408"
         style="stop-color:#42005B;stop-opacity:0.9865"
         id="stop581" />
      <stop
         offset="0.8563"
         style="stop-color:#380056;stop-opacity:0.9925"
         id="stop583" />
      <stop
         offset="1"
         style="stop-color:#350055"
         id="stop585" />
    </linearGradient>
  </defs>
  <sodipodi:namedview
     id="base"
     pagecolor="#ffffff"
     bordercolor="#666666"
     borderopacity="1.0"
     inkscape:pageopacity="0.0"
     inkscape:pageshadow="2"
     inkscape:zoom="0.35"
     inkscape:cx="-10.731768"
     inkscape:cy="278.50795"
     inkscape:document-units="mm"
     inkscape:current-layer="layer1"
     inkscape:document-rotation="0"
     showgrid="false"
     fit-margin-top="0"
     fit-margin-left="0"
     fit-margin-right="0"
     fit-margin-bottom="0"
     inkscape:window-width="1263"
     inkscape:window-height="967"
     inkscape:window-x="52"
     inkscape:window-y="52"
     inkscape:window-maximized="0" />
  <metadata
     id="metadata4318">
    <rdf:RDF>
      <cc:Work
         rdf:about="">
        <dc:format>image/svg+xml</dc:format>
        <dc:type
           rdf:resource="http://purl.org/dc/dcmitype/StillImage" />
        <dc:title></dc:title>
      </cc:Work>
    </rdf:RDF>
  </metadata>
  <g
     inkscape:label="Taso 1"
     inkscape:groupmode="layer"
     id="layer1"
     transform="translate(-108.67278,-74.478104)">
    <path
       id="path305"
       style="fill:url(#SVGID_9_);stroke-width:0.264583"
       d="m 357.10861,160.65168 c -2.67636,1.93316 -5.40963,4.21914 -6.45383,7.47445 -0.63351,1.7986 -0.71798,3.72791 -0.66507,5.61445 -0.26379,2.3009 -1.78986,4.192 -3.28132,5.85525 -0.42211,0.28171 -1.9317,1.42994 -0.62126,1.23124 1.67299,-0.35523 2.40446,-2.06373 3.30089,-3.32398 0.50544,-0.7809 0.10387,0.851 0.0929,1.21097 -0.15274,1.04895 -0.42168,2.07812 -0.95796,3.00014 -0.30476,0.95557 0.98478,-0.39476 1.12609,-0.82502 0.631,-1.15567 0.63583,-2.53677 1.26992,-3.69394 0.6985,0.91188 0.22293,2.18918 0.71963,3.19947 0.11615,0.60199 -0.33745,1.9276 0.27198,2.06014 0.88802,-0.87751 0.38904,-2.20655 0.16442,-3.24963 -0.33857,-0.97645 -0.72738,-2.6739 0.83104,-2.67878 0.64096,-0.18767 2.17454,0.30088 2.27539,-0.35707 -0.85612,-0.24851 -2.41233,0.2609 -2.53134,-1.04439 -0.30946,-1.93031 -0.48607,-4.09671 0.67083,-5.79911 0.7162,-1.33276 1.25657,-2.85445 2.49775,-3.80776 1.15252,-0.2983 2.09816,-1.0557 2.88296,-1.91108 0.73918,-0.31658 2.11746,-1.18334 0.86268,-1.8415 -0.77067,-0.46594 -1.6279,-0.76759 -2.4557,-1.11385 z" />
    <path
       id="path324"
       style="fill:url(#SVGID_10_);stroke-width:0.264583"
       d="m 375.22993,166.31906 c 0.0156,2.27615 -0.11142,4.60422 -0.85601,6.77124 -0.62193,1.32209 -0.52861,2.94891 -1.49627,4.10753 -0.78402,0.70855 -1.92416,0.43625 -2.8724,0.34429 -0.99928,-0.14722 -2.22221,-0.2601 -2.96214,0.58147 -0.40122,0.39468 -1.47217,1.22409 -1.08003,1.64011 1.11286,-0.53497 1.98932,-1.65931 3.29906,-1.70884 0.87133,0.0644 1.64481,0.53113 2.47992,0.74354 0.67826,0.24091 0.18079,0.66189 -0.29652,0.58064 -0.9873,0.14943 -1.91154,0.84783 -2.14808,1.84686 -0.21285,0.43114 -0.53578,1.82266 0.12782,0.88837 0.66424,-0.79232 1.34157,-1.60499 2.2768,-2.09045 0.4431,-0.22582 1.26137,-0.80637 1.5603,-0.62364 -0.18301,0.76154 -0.48668,1.54122 -0.2299,2.3269 0.0673,0.32171 0.13777,1.23331 0.31187,1.17871 0.24894,-1.08116 0.30448,-2.19844 0.58946,-3.27224 0.53234,-0.80851 1.63716,-0.44591 2.4275,-0.74265 0.39576,0.0394 1.70127,-0.35971 0.6776,-0.39864 -0.81608,0.0301 -2.46137,0.19539 -2.2233,-1.08243 0.46742,-1.40994 1.62714,-2.43231 2.42163,-3.65507 0.98224,-1.43208 1.65796,-3.18821 1.43224,-4.94888 -0.10763,-0.79376 0.0313,-1.86236 -0.25093,-2.48433 -1.06288,-0.001 -2.12577,0.003 -3.18862,-0.002 z" />
    <path
       id="path326"
       style="fill:#5c0a63;fill-opacity:1;stroke-width:0.264583"
       d="m 373.41224,109.28018 c 2.21517,-3.95458 7.33012,-7.12017 6.14296,-12.251559 -2.44168,-7.584514 -12.63457,-11.826827 -19.32397,-6.975303 -6.974,5.764985 -9.74873,14.922472 -11.73861,23.391742 -0.16381,5.31219 -2.22564,10.19643 -4.53173,14.85669 -3.35299,9.78914 -0.84059,21.58085 7.02166,28.52025 3.19015,4.01898 6.70108,8.4448 11.99778,9.56371 5.84805,2.34711 12.31066,1.61648 18.41762,2.63072 6.85133,-0.26376 12.91973,-4.47315 19.86568,-4.31383 7.88659,-0.41199 15.24807,2.91924 22.83386,4.47388 0.74144,-1.67295 -3.95351,-4.233 0.18806,-2.74557 3.14227,1.0694 2.60753,-3.74342 -0.15692,-3.24785 1.79012,-0.17153 7.8945,0.11628 3.29618,-1.8334 1.58043,-0.64519 6.2094,-2.1163 1.79157,-3.12431 -6.90816,-1.15393 -13.40786,-4.71163 -17.86149,-10.14218 -5.87042,-4.84398 -12.21322,-9.08259 -18.04977,-13.97159 -5.59186,-4.30381 -11.90553,-7.56075 -17.81196,-11.34042 -3.55817,-3.32263 -4.96853,-9.30634 -2.08092,-13.49098 z" />
    <path
       class="st15"
       d="m 367.56759,127.5576 c -4.90008,3.13796 -5.43983,4.53496 -7.01146,7.01146 -1.57162,2.4765 -4.4741,5.78644 -4.4741,10.29758 0,4.51379 -0.12171,8.382 2.60085,10.98286 2.72257,2.60085 5.97959,6.96118 10.668,7.98512 4.68842,1.02394 18.12661,1.27265 22.10859,0 3.98198,-1.27265 11.05429,-1.45521 14.56002,-1.15358 3.50573,0.30162 5.98487,0.48683 3.44487,-0.84402 -2.53735,-1.33086 0,0.30162 2.23838,0.30162 2.23837,0 1.75419,-0.60325 -1.20915,-1.87325 -2.96333,-1.27 0.19315,0.18256 2.60615,0.0609 2.413,-0.12171 1.38377,-0.66411 -1.33615,-2.4183 -2.71991,-1.75418 5.98488,1.51077 3.86821,0.0609 -2.11667,-1.44992 -8.1624,-4.83659 -11.66812,-8.8265 -3.50573,-3.98992 -9.79488,-12.33223 -11.54642,-14.26633 -1.75419,-1.93411 -4.77573,-5.43984 -9.61231,-7.01146 -4.83659,-1.57163 -8.10155,-2.41829 -9.9748,-2.29659 -1.87589,0.11642 -3.88937,1.11125 -5.26256,1.98967 z"
       id="path343"
       style="fill:url(#SVGID_11_);stroke-width:0.264583" />
    <path
       class="st16"
       d="m 364.56722,94.249205 c -1.19327,0.971021 -1.55575,2.719916 -0.635,4.111625 0.65616,0.992187 0.78316,1.153583 2.38918,1.534583 2.0955,0.497417 3.92907,-0.508 4.44236,-1.566333 0.51329,-1.058334 0.24077,-1.844146 -0.42333,-2.902479 -0.66411,-1.058334 -1.69334,-2.055813 -2.62996,-2.055813 -0.93663,0 -2.32569,0.211667 -3.14325,0.878417 z"
       id="path362"
       style="fill:url(#SVGID_12_);stroke-width:0.264583" />
    <path
       class="st17"
       d="m 365.57263,95.246684 c -0.6641,0.428625 -1.02658,1.812396 -0.42333,2.50825 0.60325,0.695854 2.41829,1.330854 3.2041,0.756708 0.78582,-0.574146 1.72244,-2.177521 0.66411,-2.841625 -1.05569,-0.66675 -1.86796,-1.441979 -3.44488,-0.423333 z"
       id="path364"
       style="fill:#e90020;stroke-width:0.264583" />
    <path
       d="m 367.35593,96.183309 c -0.8255,0.259292 -1.1483,0.635 -0.99748,1.026583 0.15081,0.391584 0.45243,0.695854 0.99748,0.60325 0.54504,-0.08996 1.20914,-0.661458 0.93662,-1.071562 -0.27252,-0.410104 -0.51329,-0.693209 -0.93662,-0.558271 z"
       id="path366"
       style="stroke-width:0.264583" />
    <path
       class="st18"
       d="m 373.41224,103.71864 c 0,0 0.2831,0.92604 1.49225,1.65365 1.20914,0.72496 3.10356,1.08744 3.91054,1.24883 0.80698,0.1614 3.06387,-0.48419 3.06387,-0.48419 l -5.80495,-2.41829 z"
       id="path368"
       style="fill:#d966e3;stroke-width:0.264583" />
    <path
       id="path385"
       style="fill:url(#SVGID_13_);stroke-width:0.264583"
       d="m 378.85207,99.527642 c -0.84889,0.557328 -1.09172,1.605298 -1.66357,2.381128 -0.90432,0.83751 -2.21006,1.20063 -3.42304,1.0175 -0.4843,0.026 -1.69731,-0.0304 -1.51853,0.67334 0.58902,0.48618 1.3825,0.60746 2.07418,0.89648 1.65888,0.57189 3.33007,1.13365 5.0574,1.4584 0.9461,0.29928 1.86251,0.90783 2.89992,0.70632 1.3748,-0.16986 2.79296,-0.34137 4.15985,-0.0319 0.44741,0.0679 1.34324,0.77694 1.50726,0.0664 -0.14534,-0.91478 -0.63162,-1.73542 -1.05209,-2.54887 -1.12065,-1.99772 -2.97543,-3.44181 -4.83992,-4.705725 -0.5525,-0.328502 -1.16017,-0.812377 -1.84042,-0.570963 -0.49085,0.128675 -0.94146,0.377849 -1.36104,0.65782 z" />
    <path
       class="st20"
       d="m 381.79424,103.23445 c 0,0 0.36248,-0.0794 -0.4445,-0.84666 -0.80698,-0.76465 -1.53194,-1.20915 -1.8124,-0.96838 -0.28046,0.24077 -0.0926,1.36261 0.51859,1.48696 0.61118,0.12436 1.13506,0.5715 1.73831,0.32808 z"
       id="path387"
       style="fill:#c000d0;stroke-width:0.264583" />
    <g
       id="g431"
       transform="matrix(0.26458333,0,0,0.26458333,98.1027,38.186643)">
      <radialGradient
         id="radialGradient4266"
         cx="280.1839"
         cy="436.58359"
         r="32.5224"
         gradientTransform="matrix(-0.9846,0.1749,0.1749,0.9846,542.98,-27.5813)"
         gradientUnits="userSpaceOnUse">
        <stop
           offset="0.2338"
           style="stop-color:#15A6FF;stop-opacity:0.96"
           id="stop4248" />
        <stop
           offset="0.3077"
           style="stop-color:#1BA4F9;stop-opacity:0.964"
           id="stop4250" />
        <stop
           offset="0.4095"
           style="stop-color:#2D9EE9;stop-opacity:0.9694"
           id="stop4252" />
        <stop
           offset="0.5275"
           style="stop-color:#4A94CE;stop-opacity:0.9757"
           id="stop4254" />
        <stop
           offset="0.6577"
           style="stop-color:#7385A9;stop-opacity:0.9827"
           id="stop4256" />
        <stop
           offset="0.7979"
           style="stop-color:#A77379;stop-opacity:0.9902"
           id="stop4258" />
        <stop
           offset="0.9443"
           style="stop-color:#E65E40;stop-opacity:0.9981"
           id="stop4260" />
        <stop
           offset="0.9801"
           style="stop-color:#F65831"
           id="stop4262" />
        <stop
           offset="1"
           style="stop-color:#FF55F6"
           id="stop4264" />
      </radialGradient>
      <path
         id="path408"
         style="fill:url(#SVGID_14_)"
         d="m 325.2,413.97 c 9.50746,4.71747 19.8406,9.39197 25.91503,18.55023 4.94546,7.10096 6.13858,16.01312 5.8492,24.4713 0.53713,8.79298 5.52997,16.64041 11.22103,23.0802 0.81656,1.5505 5.45076,3.94158 3.68576,4.98888 -3.69148,-1.15478 -7.6729,-2.91559 -9.46764,-6.58761 -1.63598,-2.50564 -2.87146,-5.29507 -4.72336,-7.64095 -0.99835,2.62522 0.15767,6.6717 0.58602,9.73368 0.68879,2.76531 1.58259,5.59083 2.758,8.12046 -2.17869,-2.15062 -4.42614,-4.49182 -5.63404,-7.33619 -0.62398,-3.60126 -1.13485,-7.35011 -2.77453,-10.65094 -2.02209,0.53157 -1.72153,5.46205 -2.86782,7.65072 -0.96696,3.23434 -1.34674,6.61537 -0.97956,9.97088 -1.17699,3.04513 -3.40102,-2.69682 -2.93026,-4.30855 0.2734,-5.09346 4.42987,-9.52722 3.30752,-14.7674 -2.09473,-2.69623 -6.28861,-1.64494 -9.33133,-2.25074 -1.56487,0.30381 -4.69411,-1.09941 -1.49632,-1.44286 3.69783,0.94254 8.62542,0.10675 8.484,-4.63416 1.32132,-5.94198 1.85022,-12.80574 -1.98804,-17.97674 -3.22845,-4.94748 -6.80742,-10.62901 -12.79605,-12.41103 -5.9138,-0.91102 -11.14243,-4.02798 -16.3176,-6.81222 -1.36995,-3.77325 4.05159,-5.92534 6.49733,-7.93743 0.98627,-0.62708 1.99149,-1.22367 3.00266,-1.80953 z" />
      <radialGradient
         id="radialGradient4287"
         cx="351.26181"
         cy="471.77899"
         r="28.589199"
         gradientTransform="matrix(-0.9901,-0.1403,-0.1403,0.9901,682.6381,58.0039)"
         gradientUnits="userSpaceOnUse">
        <stop
           offset="0.2338"
           style="stop-color:#15A6FF;stop-opacity:0.96"
           id="stop4269" />
        <stop
           offset="0.3077"
           style="stop-color:#1BA4F9;stop-opacity:0.964"
           id="stop4271" />
        <stop
           offset="0.4095"
           style="stop-color:#2D9EE9;stop-opacity:0.9694"
           id="stop4273" />
        <stop
           offset="0.5275"
           style="stop-color:#4A94CE;stop-opacity:0.9757"
           id="stop4275" />
        <stop
           offset="0.6577"
           style="stop-color:#7385A9;stop-opacity:0.9827"
           id="stop4277" />
        <stop
           offset="0.7979"
           style="stop-color:#A77379;stop-opacity:0.9902"
           id="stop4279" />
        <stop
           offset="0.9443"
           style="stop-color:#E65E40;stop-opacity:0.9981"
           id="stop4281" />
        <stop
           offset="0.9801"
           style="stop-color:#F65831"
           id="stop4283" />
        <stop
           offset="1"
           style="stop-color:#FF55F6"
           id="stop4285" />
      </radialGradient>
      <path
         id="path429"
         style="fill:url(#SVGID_15_)"
         d="m 258.79,443.7 c -0.43462,8.43581 0.46013,16.98372 2.76669,25.11449 1.87695,4.73035 1.836,10.15899 4.67831,14.48785 2.74265,3.69712 7.89326,3.2527 11.96084,2.95895 3.41325,-0.2449 7.48185,-0.84076 10.1301,1.88133 1.49966,1.59795 5.11307,4.74629 4.06125,6.46101 -3.94746,-2.59528 -7.85826,-6.20753 -12.87961,-6.21834 -2.96359,0.38481 -5.95422,1.15526 -8.65298,2.46141 -1.93743,2.47557 3.9828,2.18941 5.16823,3.914 3.13049,2.19143 4.81842,6.13652 4.81585,9.87599 -2.01027,-0.44336 -2.92299,-3.6798 -4.58224,-5.09763 -3.1102,-2.83715 -6.58505,-5.47357 -10.54644,-6.97906 -2.21092,-0.52263 1.1589,2.98045 0.53267,4.30622 0.23862,3.03193 -0.37263,6.12021 -1.34124,8.97782 -1.24882,-1.37946 -0.57385,-4.80492 -1.11374,-6.96353 -0.38835,-2.93973 -1.40326,-6.87069 -4.91663,-7.28966 -2.97903,-0.71649 -6.14685,-0.89933 -8.9628,-2.13421 2.05073,-0.82899 4.71775,0.31332 6.99148,-0.27912 3.21487,-0.23207 3.02412,-4.10664 1.80569,-6.2175 -2.73448,-5.9491 -8.06002,-10.26719 -10.60288,-16.34119 -2.45347,-4.82061 -2.99484,-10.33803 -2.37265,-15.65266 0.47268,-2.36337 0.0441,-5.77033 0.98254,-7.47563 4.02535,0.10091 8.05524,-0.012 12.07756,0.20946 z" />
    </g>
    <g
       id="g435"
       style="fill:#6d23b0;fill-opacity:1"
       transform="matrix(0.26458333,0,0,0.26458333,98.1027,38.186643)">
      <path
         id="path433"
         style="fill:#6d23b0;fill-opacity:1"
         d="m 247.06,278.37 c -10.63807,-11.28724 -27.05513,-19.54877 -30.67467,-35.67093 2.25324,-21.01654 23.33801,-36.49847 43.77207,-36.58069 18.19501,0.36782 34.74595,10.55698 44.82176,25.47152 14.60199,19.99915 25.93824,42.48702 34.47771,65.68797 3.40871,14.2033 6.87169,28.55676 14.86443,41.03453 8.41847,15.75314 8.49598,34.90507 5.24882,52.07037 -4.51311,16.65124 -13.50396,32.75592 -28.88399,41.57926 -14.94263,12.9832 -31.97122,25.1442 -52.33693,26.75287 -18.46331,3.25287 -36.79433,-1.17389 -54.89166,-4.2483 -24.53582,-0.41944 -43.88563,-16.63095 -64.62842,-27.4322 -33.83213,-19.72642 -72.140176,-31.01494 -110.844999,-35.89483 -10.301111,-4.1864 19.444008,-11.69399 2.54752,-11.96957 -14.962408,-4.00169 -4.198737,-11.75254 3.244609,-12.21875 -7.452871,-2.1626 -23.177881,-11.60724 -6.294414,-10.90941 6.180573,-0.45553 -15.968104,-10.84974 -2.908711,-13.49422 15.646241,1.62722 31.224945,6.45914 47.259551,4.57554 20.321134,-1.35775 39.736064,-8.95412 60.233944,-9.0808 34.24851,-3.36216 68.28442,-9.32444 101.61813,-17.7982 15.52612,-4.47014 8.59994,-25.51663 0.36067,-34.04601 -2.2303,-2.69545 -4.62364,-5.2491 -6.98542,-7.82815 z" />
    </g>
    <path
       class="st24"
       d="m 171.13564,98.673038 c 1.08479,1.095375 1.54781,2.719912 0.381,3.836462 -1.16682,1.11654 -1.73832,1.2647 -3.31523,1.00806 -1.38377,-0.22754 -2.7014,-0.84402 -3.24379,-2.01348 -0.53975,-1.16946 -0.0794,-1.762125 0.55562,-2.614084 0.635,-0.851958 1.61131,-1.653645 2.69081,-1.539875 1.08215,0.113771 2.18811,0.574146 2.93159,1.322917 z"
       id="path454"
       style="fill:url(#SVGID_16_);stroke-width:0.264583" />
    <path
       class="st25"
       d="m 170.10376,99.527642 c 0.51065,0.410104 0.96573,1.695978 0.21696,2.307168 -0.74877,0.61119 -2.29923,0.84402 -3.0771,0.20373 -0.77788,-0.64029 -1.62455,-2.01877 -0.46832,-2.664356 1.15359,-0.645583 2.11667,-0.817563 3.32846,0.153458 z"
       id="path456"
       style="fill:#e7e000;stroke-width:0.264583" />
    <path
       d="m 168.70941,99.596434 c 0.51329,0.01058 0.59796,0.468316 0.67468,1.227666 0.0529,0.51329 -0.55827,0.51329 -0.99218,0.42333 -0.43392,-0.0899 -1.06627,-0.66675 -0.84932,-1.08479 0.21432,-0.420685 0.47096,-0.579435 1.16682,-0.566206 z"
       id="path458"
       style="stroke-width:0.264583" />
    <g
       id="g466"
       transform="matrix(0.26458333,0,0,0.26458333,98.1027,38.186643)">
      <path
         class="st18"
         d="m 242.94,252.74 c -1.88,2.79 -1.98,3.94 -5.51,5.74 -3.54,1.8 -9.46,3.93 -13.79,4.88 -4.33,0.95 -7.91,-0.13 -12.04,-1.19 7.34,-2.76 14.54,-5.91 21.79,-8.9 3.19,-0.16 6.29,-0.34 9.55,-0.53 z"
         id="path460" />
      <path
         class="st26"
         d="m 224.37,239.34 c 3.6,2.34 3.03,4.91 5.31,7.89 2.28,2.97 6.8,3.58 10.12,3.17 3.32,-0.41 10.28,0.34 4.38,3.24 -5.9,2.9 -14.99,5.22 -20.68,7.01 -5.69,1.79 -8.13,3.76 -13.47,3.13 -5.34,-0.63 -10.92,-2.63 -16.06,-1.89 -5.14,0.74 -5.46,-0.06 -3.27,-4.78 2.19,-4.72 7.16,-9.84 11.22,-13.28 4.06,-3.44 11.14,-7.37 15.42,-7.76 4.29,-0.39 4.89,1.89 7.03,3.27 z"
         id="path462" />
      <path
         class="st27"
         d="m 212.71,250.8 c -0.81,-0.41 1.15,-2.41 2.33,-2.9 1.17,-0.49 4.87,-3.88 6.52,-2.13 1.64,1.75 0.01,4.24 -2.13,4.66 -2.15,0.41 -4.52,1.5 -6.72,0.37 z"
         id="path464" />
    </g>
    <path
       id="path487"
       style="fill:url(#SVGID_17_);stroke-width:0.264583"
       d="m 167.6352,116.92929 c 3.70542,1.40322 6.90504,3.81617 9.58429,6.70354 2.41032,2.20115 4.46867,5.10456 4.46948,8.49949 0.47022,3.65106 0.46069,7.81641 -2.24277,10.66793 -3.28535,4.01406 -7.39868,8.00457 -12.82962,8.53928 -6.29943,0.58514 -12.73667,-0.0647 -18.81562,-1.80434 -3.49456,-1.04269 -6.23274,-3.62325 -9.55912,-5.05201 -3.32202,-1.76115 -6.90586,-2.9653 -10.62101,-3.53757 -2.73983,-0.36355 2.43655,-1.99853 -0.45122,-1.36762 -1.65364,0.60204 -4.2306,-1.21752 -1.2481,-1.43676 1.23767,-0.17862 2.80499,-0.49284 0.61725,-0.48331 -1.46043,0.25175 -4.55822,-1.19213 -1.63906,-1.89547 1.03548,-0.26751 3.12042,-0.96463 0.79815,-0.82965 -1.03486,0.0704 -4.95597,0.15784 -2.18018,-0.79732 6.93063,-2.77987 14.62947,-4.35709 20.42275,-9.35624 2.52718,-2.46215 5.05328,-5.11239 8.48893,-6.28688 3.52336,-1.2637 7.11103,-2.79377 10.90357,-2.83251 1.50757,0.10975 2.93563,0.65733 4.30228,1.26944 z" />
    <path
       id="path510"
       style="fill:url(#SVGID_18_);stroke-width:0.264583"
       d="m 255.37289,175.61241 c 1.10276,3.50714 0.53803,7.27455 1.45766,10.81055 0.88817,2.74379 3.15427,5.17203 2.78007,8.22385 -0.46641,1.69143 -2.47505,1.69164 -3.87926,1.9657 -1.28633,0.25599 -2.09075,1.33668 -2.96844,2.20249 -0.93634,1.1071 -1.22997,2.67568 -0.74341,4.04066 0.16,1.40823 -0.69516,3.01213 0.29645,4.25763 0.90678,-1.39971 1.66495,-3.08071 1.10359,-4.76011 -0.25918,-1.62763 1.24274,-3.53716 2.96567,-3.02318 1.03707,1.09548 -0.43637,2.81944 0.14636,4.20723 0.16824,1.60121 0.63064,3.14901 0.99887,4.71086 1.6732,-0.32667 1.00686,-2.76238 1.21161,-4.02872 -0.16851,-1.41624 -0.55396,-3.23878 0.80056,-4.21273 1.71147,-1.18917 2.18745,1.64 2.50325,2.78951 0.54332,1.67064 1.13861,3.32812 1.88299,4.92098 1.36962,-0.54087 -0.13634,-2.6003 0.18214,-3.75753 0.26286,-1.78646 -1.15524,-3.54157 -0.48479,-5.21297 1.14843,-1.24806 2.4897,-2.34274 3.35316,-3.84279 0.39731,-0.50219 1.74028,-2.31995 0.29496,-1.95682 -0.90751,0.73843 -2.32576,3.08581 -3.30602,1.1044 -0.49542,-1.22067 -0.14803,-2.56441 -0.30537,-3.84688 -0.004,-1.95133 -0.39296,-3.98605 0.42326,-5.83954 1.04013,-2.72955 3.07499,-5.14527 3.16864,-8.17946 -0.0772,-1.22325 1.02791,-4.10892 -0.93669,-4.03756 -1.49108,0.69383 -3.08656,1.04771 -4.64463,1.57147 -2.09188,0.65819 -4.1891,1.30037 -6.30063,1.89296 z" />
    <path
       class="st31"
       d="m 251.72429,97.98895 c 0.40217,-1.889125 -3.429,-4.267729 -4.6064,-6.013979 -2.77018,1.391708 -4.95829,2.121958 -8.08566,1.367896 0.78846,1.177395 0.28575,1.140354 1.37848,2.606145 1.09273,1.465792 3.82058,4.537608 5.29695,6.178018 0.63765,0.70644 0.63765,1.34673 0.85196,2.14313 1.71715,-2.14577 3.8444,-3.83646 5.16467,-6.28121 z"
       id="path512"
       style="fill:#590c7b;stroke-width:0.264583" />
    <path
       class="st29"
       d="m 307.98,185.72478 c -1.89706,-3.80206 -7.65175,-8.54604 -12.51479,-13.86681 -4.86305,-5.32342 -6.95061,-19.18758 -8.27088,-26.95575 -1.32027,-7.76817 -6.09864,-17.34873 -8.17033,-22.84412 -2.07169,-5.4954 -1.83886,-2.71463 -3.4925,-6.51405 -1.65365,-3.79941 -3.71475,-9.61231 -5.16731,-12.91166 -1.45257,-3.299357 -1.70921,-4.688419 -1.73038,-7.503586 -0.0212,-2.815166 -0.70115,-4.929187 -1.41552,-7.490354 -0.71438,-2.561167 -1.33615,-5.30225 -3.05858,-7.368646 -1.72244,-2.066395 -4.42384,-3.791479 -6.74952,-4.926541 -2.32834,-1.135063 -4.46353,-0.973667 -6.95855,-0.529167 -2.49502,0.4445 -4.6646,1.272646 -7.07231,2.778125 -2.40771,1.505479 -4.83658,5.704417 -5.74939,8.352896 -0.91282,2.648479 0.20373,4.392083 1.03716,6.633104 0.13494,0.367771 0.26723,0.455083 0.39159,0.791104 3.06652,0.687917 5.30489,0.01323 8.05656,-1.399646 1.18004,1.748896 5.00856,4.124854 4.60904,6.016625 -1.31763,2.436816 -3.45281,4.146016 -5.15938,6.270626 0.0265,1.16152 0.39688,2.02406 0.27517,3.24379 -0.21167,2.14842 -1.51077,3.73592 -3.00831,5.67796 -1.49754,1.94204 -8.35554,6.59871 -9.82133,7.38187 -3.96082,2.11667 -6.0669,9.79223 -6.19919,11.49615 -0.93398,12.17877 -2.07698,22.36787 3.66712,32.90623 5.74411,10.53835 13.58636,15.86441 27.15684,19.07381 1.44727,0.34131 13.462,0.0476 17.61066,2.32304 5.11969,2.80723 17.01271,3.12738 20.96029,5.0509 3.94759,1.92352 3.11944,0.65352 5.58536,0.3175 1.07421,-0.14552 -0.82021,-1.28588 -0.66411,-1.34938 -0.52916,-0.09 -1.19856,-0.24341 -1.43404,-0.69056 -0.33602,-0.64029 1.31234,0.56621 1.43404,0.69056 1.05834,0.0265 2.15636,-0.0159 3.14855,-0.49477 0.68262,-0.33073 -0.18521,-0.89694 -0.56092,-1.07685 -0.56356,-0.0609 -1.63777,-0.33338 -1.96056,-0.61119 -0.39159,-0.33337 1.81504,0.52388 1.96056,0.61119 0.59002,-0.10584 2.10873,0.4736 2.49767,0.0265 0.75406,-0.86519 -1.63513,-2.10609 -1.12448,-2.13255 0.51064,-0.0238 3.78883,2.82575 1.89177,-0.97631 z"
       id="path514"
       style="fill:#36004e;fill-opacity:1;stroke-width:0.264583" />
    <path
       class="st32"
       d="m 244.30537,101.5423 c -0.71702,1.74361 -1.4261,3.47663 -2.17752,5.21494 0.7964,0.15875 1.26207,-0.0212 2.04523,-0.49212 0.30692,-0.18521 1.12977,-0.59002 1.64042,-0.81492 0.7911,-0.34925 1.90764,-0.72231 2.56116,-1.33879 1.07157,-1.01071 2.31511,-2.84692 2.71463,-4.02961 0.24871,-0.732892 0.0476,-0.719663 0.15875,-1.190621 0.0688,-0.288396 -0.0106,-0.142875 0.0397,-0.373062 -2.32834,1.039812 -4.6699,1.981733 -6.98236,3.024183 z"
       id="path516"
       style="fill:#43095c;stroke-width:0.264583" />
    <path
       class="st33"
       d="m 253.4626,84.341742 c -0.70379,0.545041 -1.49225,1.172104 -1.84414,2.034646 -0.3519,0.862541 -0.70909,1.762125 -0.29369,2.608791 0.41539,0.846667 0.81227,1.690688 1.69333,2.045229 0.87842,0.354542 1.79123,0.418042 2.74902,0.17198 0.95779,-0.246063 2.18811,-0.801688 2.89984,-1.476375 0.71173,-0.674688 1.27,-1.264709 1.28852,-2.217209 0.0185,-0.9525 -0.14023,-2.061104 -0.61384,-2.841625 -0.4736,-0.780521 -1.08214,-1.349375 -1.92352,-1.542521 -0.83873,-0.193145 -2.21456,0.08996 -2.85221,0.386292 -0.635,0.298979 -0.63235,0.468313 -1.10331,0.830792 z"
       id="path523"
       style="fill:url(#SVGID_19_);stroke-width:0.264583" />
    <path
       class="st34"
       d="m 254.10025,85.386846 c -0.57679,0.428625 -1.22238,1.246187 -1.25942,1.984375 -0.037,0.738187 -0.19844,1.508125 0.508,2.066396 0.70379,0.558271 2.59292,0.293687 3.36021,-0.145521 0.76729,-0.436563 1.44462,-1.023938 1.5531,-1.804458 0.10848,-0.780521 -0.0661,-1.465792 -0.508,-1.989667 -0.44185,-0.523875 -0.97895,-0.875771 -1.65893,-0.851958 -0.67998,0.02381 -1.41817,0.312208 -1.99496,0.740833 z"
       id="path525"
       style="fill:#ff00ff;stroke-width:0.264583" />
    <path
       d="m 254.83844,86.548367 c -0.30163,0.306916 -0.40217,0.862541 -0.11642,1.140354 0.28575,0.277812 0.61383,0.280458 1.01864,0.156104 0.40746,-0.124354 0.93398,-0.545042 0.78053,-1.026583 -0.15346,-0.481542 -0.53182,-0.648229 -0.8943,-0.611188 -0.35983,0.0344 -0.63235,0.182563 -0.78845,0.341313 z"
       id="path527"
       style="stroke-width:0.264583" />
    <path
       class="st35"
       d="m 248.1921,101.00255 c 0.24342,-0.13493 0.42598,-0.18785 0.65881,-0.30162 -0.88635,-0.71173 -1.82562,-0.43127 -2.86808,-0.32015 -2.52148,1.81504 -4.54289,3.23057 -7.61735,1.98173 -0.33867,2.11402 -0.0952,3.95817 0.63764,5.90286 0.21961,0.58473 0.25665,0.63764 0.51065,1.11389 1.71185,-0.96573 3.09827,-1.87854 4.40002,-3.46075 1.30175,-1.58221 2.36802,-3.86027 4.27831,-4.91596 z"
       id="path529"
       style="fill:#120311;stroke-width:0.264583" />
    <path
       class="st36"
       d="m 251.52585,99.137242 c 0.11642,-0.333375 0.0238,-0.378355 -0.0582,-0.640292 -0.29898,0.531812 -0.63764,1.018646 -1.00277,1.486958 0.36513,-0.148166 0.94457,-0.510646 1.06098,-0.846666 z"
       id="path531"
       style="fill:#93278f;stroke-width:0.264583" />
    <path
       class="st36"
       d="m 250.16325,98.065679 c -0.94192,-0.08996 -2.57704,-0.0926 -2.80194,-1.349375 -0.2249,-1.254125 -0.70644,-1.9685 -1.97379,-1.693333 -0.9869,0.214312 -1.43669,0.547687 -2.20133,0.867833 -0.39688,0.166688 -0.48684,0.246063 -0.83344,0.381 -0.48154,-0.351896 -0.84931,-1.150937 -1.64571,-0.812271 -0.7964,0.341313 -0.84667,1.537229 -0.93662,2.473854 -0.0291,0.296334 -0.005,0.33073 -0.30163,0.941917 -0.29898,0.613833 -0.96837,2.460626 -1.08479,3.394606 -0.003,0.0159 -0.0185,0.0794 -0.0132,0.082 3.07446,1.26206 5.09587,-0.16404 7.61735,-1.97644 1.04246,-0.11112 1.98173,-0.394228 2.86544,0.32015 0.53975,-0.23284 1.0795,-0.46302 1.61131,-0.714378 0.37307,-0.473604 0.70379,-0.963083 1.00807,-1.484312 -0.38365,-0.375708 -0.74613,-0.375708 -1.30969,-0.431271 z"
       id="path533"
       style="fill:#93278f;stroke-width:0.264583" />
    <path
       class="st37"
       d="m 246.66016,97.835492 c 0.39423,-0.566209 -0.037,-0.881063 -0.635,-0.677334 -0.59795,0.206375 -1.48695,1.693334 -1.82297,2.328334 0.6932,-0.34925 2.06375,-1.084792 2.45797,-1.651 z"
       id="path535"
       style="fill:#250a24;stroke-width:0.264583" />
    <path
       id="path550"
       style="fill:url(#SVGID_20_);stroke-width:0.264583"
       d="m 233.29077,157.58899 c -1.14628,5.43958 -1.49394,11.04733 -1.23213,16.59509 0.16802,3.1946 1.2708,6.70167 -0.3766,9.68752 -1.07062,1.36662 -2.18335,2.73213 -3.42115,3.95382 -2.24013,1.6767 -5.29228,0.74163 -7.74213,1.90978 -1.66488,0.84999 -2.80936,2.40623 -4.21708,3.60004 -1.38774,1.01014 -0.38114,1.37995 0.65956,0.63767 2.01476,-0.97532 3.47765,-3.07742 5.87249,-3.16226 1.10487,-0.0392 3.20611,-0.72469 3.76543,0.021 -1.80411,0.95921 -3.85691,1.91355 -4.71744,3.90856 -0.78051,1.33887 -2.04029,2.44772 -2.51217,3.93 1.45089,0.0161 2.36011,-1.65356 3.19743,-2.70726 0.8764,-1.49767 2.22676,-2.61374 3.86738,-3.18751 1.40611,-0.99092 3.42909,-0.0302 1.79027,1.56733 -1.2704,1.81455 -1.03593,4.1701 -0.94255,6.2648 0.53618,1.89564 1.63535,-1.21022 1.4692,-2.0041 0.42996,-2.36185 0.91115,-5.07763 3.07448,-6.5002 1.19761,-0.80447 1.33173,-3.20515 3.26418,-1.98907 0.89391,0.36621 2.38149,-0.0369 2.7295,-0.77887 -1.48906,-0.17773 -4.19979,-0.68159 -3.22341,-2.78854 0.72123,-2.17965 2.24409,-4.2162 1.93939,-6.62651 -0.0334,-2.53481 0.36805,-5.14038 1.69281,-7.34272 1.20081,-2.51037 1.83739,-5.73246 0.10167,-8.16432 -1.46971,-2.42584 -3.4864,-4.45852 -5.03913,-6.82427 z" />
    <path
       class="st39"
       d="m 239.06662,136.52022 c 0.28046,-8.84237 -0.41539,-4.79954 -1.04775,-8.88206 -0.63235,-4.08252 -0.58208,-4.27831 -2.37595,-5.88698 -1.79388,-1.61131 -2.02936,-1.85738 -4.20159,0.13758 -2.17223,1.99761 -5.6171,5.28373 -6.25739,9.57527 -0.6403,4.29154 -2.07963,9.51707 -1.15888,14.5415 0.92075,5.02444 -0.9181,9.65729 2.45269,15.10242 3.37079,5.44512 1.27794,8.09889 10.28171,12.79525 8.99848,4.69371 2.02671,-28.53796 2.30716,-37.38298 z"
       id="path567"
       style="fill:url(#SVGID_21_);stroke-width:0.264583" />
    <path
       id="path588"
       style="fill:url(#SVGID_22_);stroke-width:0.264583"
       d="m 269.37994,120.5976 c -5.47238,0.13995 -10.80832,1.51721 -15.88198,3.50821 -7.88863,2.55972 -16.0443,5.31622 -22.2243,11.10331 -2.46738,1.88839 -3.29789,4.87089 -4.47352,7.57686 -2.63403,5.04374 -0.97023,10.90976 0.32374,16.09142 1.665,5.64252 3.37392,11.53315 7.30489,16.06887 1.71844,2.1141 3.03273,5.03266 5.829,5.85837 1.70918,-0.7533 -1.40754,-4.30256 -0.7416,-4.64645 0.43098,1.63104 4.03855,6.23329 4.25588,2.55651 -0.20984,-1.30178 -1.37462,-3.36805 0.0855,-1.08253 0.53751,1.47384 3.28449,3.44647 2.79267,0.45508 0.21985,-1.14889 -1.91728,-4.29361 -0.48532,-1.57041 0.77709,2.77073 4.21964,4.43811 4.41306,0.56103 0.54743,-2.65573 0.0596,-5.82934 2.31256,-7.81454 3.99428,-3.86251 8.77641,-6.85227 13.61872,-9.53731 3.34369,-1.65097 6.78535,-3.5901 8.64193,-6.97963 3.54944,-4.75794 3.15085,-10.99481 3.23958,-16.61072 -0.12855,-4.70621 -0.68979,-9.84072 -3.74303,-13.6307 -1.41455,-1.43645 -3.19503,-2.43636 -5.2678,-1.90737 z"
       inkscape:transform-center-x="70"
       inkscape:transform-center-y="96" />
  </g>
</svg>
