<?xml version="1.0" encoding="UTF-8" standalone="no"?>
<svg
   xmlns:dc="http://purl.org/dc/elements/1.1/"
   xmlns:cc="http://creativecommons.org/ns#"
   xmlns:rdf="http://www.w3.org/1999/02/22-rdf-syntax-ns#"
   xmlns:svg="http://www.w3.org/2000/svg"
   xmlns="http://www.w3.org/2000/svg"
   xmlns:xlink="http://www.w3.org/1999/xlink"
   xmlns:sodipodi="http://sodipodi.sourceforge.net/DTD/sodipodi-0.dtd"
   xmlns:inkscape="http://www.inkscape.org/namespaces/inkscape"
   version="1.1"
   x="0px"
   y="0px"
   viewBox="0 0 1280 720"
   style="enable-background:new 0 0 1280 720;"
   xml:space="preserve"
   id="svg593"
   sodipodi:docname="pigeons-01.svg"
   inkscape:version="1.0.2 (e86c870879, 2021-01-15, custom)"><metadata
   id="metadata599"><rdf:RDF><cc:Work
       rdf:about=""><dc:format>image/svg+xml</dc:format><dc:type
         rdf:resource="http://purl.org/dc/dcmitype/StillImage" /><dc:title></dc:title></cc:Work></rdf:RDF></metadata><defs
   id="defs597">
	

		<radialGradient
   id="SVGID_18_"
   cx="677.86768"
   cy="586.57111"
   r="53.729698"
   gradientUnits="userSpaceOnUse"
   gradientTransform="translate(-65.942962,-11.775529)">
			<stop
   offset="0.2338"
   style="stop-color:#00153F;stop-opacity:0.96"
   id="stop497" />
			<stop
   offset="0.2829"
   style="stop-color:#09123C;stop-opacity:0.9626"
   id="stop499" />
			<stop
   offset="0.4362"
   style="stop-color:#210A36;stop-opacity:0.9706"
   id="stop501" />
			<stop
   offset="0.5994"
   style="stop-color:#320432;stop-opacity:0.9791"
   id="stop503" />
			<stop
   offset="0.7778"
   style="stop-color:#3C012F;stop-opacity:0.9884"
   id="stop505" />
			<stop
   offset="1"
   style="stop-color:#3F002E"
   id="stop507" />
		</radialGradient>
		
		
		
		
		<radialGradient
   id="SVGID_19_"
   cx="661.00311"
   cy="197.05161"
   r="16.1707"
   gradientUnits="userSpaceOnUse"
   gradientTransform="translate(-65.942962,-11.775529)">
			<stop
   offset="0"
   style="stop-color:#FFFFFF"
   id="stop518" />
			<stop
   offset="1"
   style="stop-color:#91278D"
   id="stop520" />
		</radialGradient>
		
		
		
		
		
		
		
		<radialGradient
   id="SVGID_20_"
   cx="554.83649"
   cy="545.724"
   r="66.5961"
   gradientUnits="userSpaceOnUse"
   gradientTransform="translate(-65.942962,-11.775529)">
			<stop
   offset="0.2338"
   style="stop-color:#00153F;stop-opacity:0.96"
   id="stop537" />
			<stop
   offset="0.2829"
   style="stop-color:#09123C;stop-opacity:0.9626"
   id="stop539" />
			<stop
   offset="0.4362"
   style="stop-color:#210A36;stop-opacity:0.9706"
   id="stop541" />
			<stop
   offset="0.5994"
   style="stop-color:#320432;stop-opacity:0.9791"
   id="stop543" />
			<stop
   offset="0.7778"
   style="stop-color:#3C012F;stop-opacity:0.9884"
   id="stop545" />
			<stop
   offset="1"
   style="stop-color:#3F002E"
   id="stop547" />
		</radialGradient>
		
		<linearGradient
   id="SVGID_21_"
   gradientUnits="userSpaceOnUse"
   x1="574.09161"
   y1="322.75671"
   x2="574.09161"
   y2="526.42468"
   gradientTransform="translate(-65.942962,-11.775529)">
			<stop
   offset="0.2338"
   style="stop-color:#7A00A3"
   id="stop552" />
			<stop
   offset="0.3405"
   style="stop-color:#5A007E"
   id="stop554" />
			<stop
   offset="0.4522"
   style="stop-color:#400060"
   id="stop556" />
			<stop
   offset="0.5698"
   style="stop-color:#2C0048"
   id="stop558" />
			<stop
   offset="0.6944"
   style="stop-color:#1D0037"
   id="stop560" />
			<stop
   offset="0.8305"
   style="stop-color:#15002D"
   id="stop562" />
			<stop
   offset="1"
   style="stop-color:#12002A"
   id="stop564" />
		</linearGradient>
		
		<linearGradient
   id="SVGID_22_"
   gradientUnits="userSpaceOnUse"
   x1="647.27039"
   y1="322.8876"
   x2="647.27039"
   y2="550.82172"
   gradientTransform="translate(-65.942962,-11.775529)">
			<stop
   offset="0.2338"
   style="stop-color:#E900A3;stop-opacity:0.96"
   id="stop569" />
			<stop
   offset="0.2584"
   style="stop-color:#DB009D;stop-opacity:0.9613"
   id="stop571" />
			<stop
   offset="0.347"
   style="stop-color:#AF008A;stop-opacity:0.9659"
   id="stop573" />
			<stop
   offset="0.4396"
   style="stop-color:#8A007A;stop-opacity:0.9707"
   id="stop575" />
			<stop
   offset="0.5353"
   style="stop-color:#6B006C;stop-opacity:0.9757"
   id="stop577" />
			<stop
   offset="0.6351"
   style="stop-color:#530062;stop-opacity:0.981"
   id="stop579" />
			<stop
   offset="0.7408"
   style="stop-color:#42005B;stop-opacity:0.9865"
   id="stop581" />
			<stop
   offset="0.8563"
   style="stop-color:#380056;stop-opacity:0.9925"
   id="stop583" />
			<stop
   offset="1"
   style="stop-color:#350055"
   id="stop585" />
		</linearGradient>
		
	
	
	
	
	<linearGradient
   id="SVGID_7_"
   gradientUnits="userSpaceOnUse"
   x1="1143.5073"
   y1="178.78349"
   x2="1143.5073"
   y2="436.85461">
		<stop
   offset="0"
   style="stop-color:#FF3FA5"
   id="stop170" />
		<stop
   offset="0.0175"
   style="stop-color:#F93DA0"
   id="stop172" />
		<stop
   offset="0.1847"
   style="stop-color:#C02B70"
   id="stop174" />
		<stop
   offset="0.3468"
   style="stop-color:#901B48"
   id="stop176" />
		<stop
   offset="0.4997"
   style="stop-color:#6B0F29"
   id="stop178" />
		<stop
   offset="0.6415"
   style="stop-color:#510712"
   id="stop180" />
		<stop
   offset="0.7678"
   style="stop-color:#410205"
   id="stop182" />
		<stop
   offset="0.8659"
   style="stop-color:#3B0000"
   id="stop184" />
	</linearGradient>
	

	<radialGradient
   id="SVGID_9_"
   cx="962.5936"
   cy="504.3965"
   r="35.5199"
   gradientUnits="userSpaceOnUse">
		<stop
   offset="0.2338"
   style="stop-color:#E90020;stop-opacity:0.96"
   id="stop288" />
		<stop
   offset="0.3122"
   style="stop-color:#EA0226;stop-opacity:0.9641"
   id="stop290" />
		<stop
   offset="0.4201"
   style="stop-color:#EB0A38;stop-opacity:0.9697"
   id="stop292" />
		<stop
   offset="0.5452"
   style="stop-color:#EE1555;stop-opacity:0.9763"
   id="stop294" />
		<stop
   offset="0.6833"
   style="stop-color:#F3257E;stop-opacity:0.9835"
   id="stop296" />
		<stop
   offset="0.8318"
   style="stop-color:#F83AB2;stop-opacity:0.9912"
   id="stop298" />
		<stop
   offset="0.9871"
   style="stop-color:#FE53F0;stop-opacity:0.9993"
   id="stop300" />
		<stop
   offset="1"
   style="stop-color:#FF55F6"
   id="stop302" />
	</radialGradient>
	
	<radialGradient
   id="SVGID_10_"
   cx="1036.0438"
   cy="515.8981"
   r="28.2822"
   gradientUnits="userSpaceOnUse">
		<stop
   offset="0.2338"
   style="stop-color:#E90020;stop-opacity:0.96"
   id="stop307" />
		<stop
   offset="0.3122"
   style="stop-color:#EA0226;stop-opacity:0.9641"
   id="stop309" />
		<stop
   offset="0.4201"
   style="stop-color:#EB0A38;stop-opacity:0.9697"
   id="stop311" />
		<stop
   offset="0.5452"
   style="stop-color:#EE1555;stop-opacity:0.9763"
   id="stop313" />
		<stop
   offset="0.6833"
   style="stop-color:#F3257E;stop-opacity:0.9835"
   id="stop315" />
		<stop
   offset="0.8318"
   style="stop-color:#F83AB2;stop-opacity:0.9912"
   id="stop317" />
		<stop
   offset="0.9871"
   style="stop-color:#FE53F0;stop-opacity:0.9993"
   id="stop319" />
		<stop
   offset="1"
   style="stop-color:#FF55F6"
   id="stop321" />
	</radialGradient>
	
	
	<linearGradient
   id="SVGID_11_"
   gradientUnits="userSpaceOnUse"
   x1="975.0342"
   y1="404.179"
   x2="1201.3661"
   y2="404.179">
		<stop
   offset="0.2338"
   style="stop-color:#E9005A;stop-opacity:0.96"
   id="stop328" />
		<stop
   offset="0.2543"
   style="stop-color:#E50654;stop-opacity:0.9611"
   id="stop330" />
		<stop
   offset="0.3807"
   style="stop-color:#D02436;stop-opacity:0.9677"
   id="stop332" />
		<stop
   offset="0.5137"
   style="stop-color:#BF3C1E;stop-opacity:0.9746"
   id="stop334" />
		<stop
   offset="0.6545"
   style="stop-color:#B34D0D;stop-opacity:0.982"
   id="stop336" />
		<stop
   offset="0.8084"
   style="stop-color:#AC5703;stop-opacity:0.99"
   id="stop338" />
		<stop
   offset="1"
   style="stop-color:#AA5A00"
   id="stop340" />
	</linearGradient>
	
	<radialGradient
   id="SVGID_12_"
   cx="1017.1484"
   cy="221.147"
   r="13.5161"
   gradientUnits="userSpaceOnUse">
		<stop
   offset="0.2338"
   style="stop-color:#E90020;stop-opacity:0.96"
   id="stop345" />
		<stop
   offset="0.3122"
   style="stop-color:#EA0226;stop-opacity:0.9641"
   id="stop347" />
		<stop
   offset="0.4201"
   style="stop-color:#EB0A38;stop-opacity:0.9697"
   id="stop349" />
		<stop
   offset="0.5452"
   style="stop-color:#EE1555;stop-opacity:0.9763"
   id="stop351" />
		<stop
   offset="0.6833"
   style="stop-color:#F3257E;stop-opacity:0.9835"
   id="stop353" />
		<stop
   offset="0.8318"
   style="stop-color:#F83AB2;stop-opacity:0.9912"
   id="stop355" />
		<stop
   offset="0.9871"
   style="stop-color:#FE53F0;stop-opacity:0.9993"
   id="stop357" />
		<stop
   offset="1"
   style="stop-color:#FF55F6"
   id="stop359" />
	</radialGradient>
	
	
	
	
	<linearGradient
   id="SVGID_13_"
   gradientUnits="userSpaceOnUse"
   x1="1035.829"
   y1="244.6234"
   x2="1095.4705"
   y2="244.6234">
		<stop
   offset="0.2338"
   style="stop-color:#E9005A;stop-opacity:0.96"
   id="stop370" />
		<stop
   offset="0.2543"
   style="stop-color:#E50654;stop-opacity:0.9611"
   id="stop372" />
		<stop
   offset="0.3807"
   style="stop-color:#D02436;stop-opacity:0.9677"
   id="stop374" />
		<stop
   offset="0.5137"
   style="stop-color:#BF3C1E;stop-opacity:0.9746"
   id="stop376" />
		<stop
   offset="0.6545"
   style="stop-color:#B34D0D;stop-opacity:0.982"
   id="stop378" />
		<stop
   offset="0.8084"
   style="stop-color:#AC5703;stop-opacity:0.99"
   id="stop380" />
		<stop
   offset="1"
   style="stop-color:#AA5A00"
   id="stop382" />
	</linearGradient>
	
	
	
	
	
		<radialGradient
   id="SVGID_16_"
   cx="387.5338"
   cy="234.1237"
   r="12.9261"
   gradientTransform="matrix(-0.9901,-0.1403,-0.1403,0.9901,682.6381,58.0039)"
   gradientUnits="userSpaceOnUse">
		<stop
   offset="0.2338"
   style="stop-color:#E90020;stop-opacity:0.96"
   id="stop437" />
		<stop
   offset="0.3122"
   style="stop-color:#EA0226;stop-opacity:0.9641"
   id="stop439" />
		<stop
   offset="0.4201"
   style="stop-color:#EB0A38;stop-opacity:0.9697"
   id="stop441" />
		<stop
   offset="0.5452"
   style="stop-color:#EE1555;stop-opacity:0.9763"
   id="stop443" />
		<stop
   offset="0.6833"
   style="stop-color:#F3257E;stop-opacity:0.9835"
   id="stop445" />
		<stop
   offset="0.8318"
   style="stop-color:#F83AB2;stop-opacity:0.9912"
   id="stop447" />
		<stop
   offset="0.9871"
   style="stop-color:#FE53F0;stop-opacity:0.9993"
   id="stop449" />
		<stop
   offset="1"
   style="stop-color:#FF55F6"
   id="stop451" />
	</radialGradient>
	
	
	
	
	

		
			<linearGradient
   id="SVGID_17_"
   gradientUnits="userSpaceOnUse"
   x1="315.17209"
   y1="385.14871"
   x2="496.0993"
   y2="385.14871"
   gradientTransform="matrix(-0.7427,-0.6696,-0.6696,0.7427,772.7103,350.1911)">
			<stop
   offset="0.2338"
   style="stop-color:#E900BD;stop-opacity:0.96"
   id="stop468" />
			<stop
   offset="0.2584"
   style="stop-color:#DB00B5;stop-opacity:0.9613"
   id="stop470" />
			<stop
   offset="0.347"
   style="stop-color:#AF009C;stop-opacity:0.9659"
   id="stop472" />
			<stop
   offset="0.4396"
   style="stop-color:#8A0086;stop-opacity:0.9707"
   id="stop474" />
			<stop
   offset="0.5353"
   style="stop-color:#6B0074;stop-opacity:0.9757"
   id="stop476" />
			<stop
   offset="0.6351"
   style="stop-color:#530066;stop-opacity:0.981"
   id="stop478" />
			<stop
   offset="0.7408"
   style="stop-color:#42005D;stop-opacity:0.9865"
   id="stop480" />
			<stop
   offset="0.8563"
   style="stop-color:#380057;stop-opacity:0.9925"
   id="stop482" />
			<stop
   offset="1"
   style="stop-color:#350055"
   id="stop484" />
		</linearGradient>
		
	</defs><sodipodi:namedview
   pagecolor="#ffffff"
   bordercolor="#666666"
   borderopacity="1"
   objecttolerance="10"
   gridtolerance="10"
   guidetolerance="10"
   inkscape:pageopacity="0"
   inkscape:pageshadow="2"
   inkscape:window-width="3440"
   inkscape:window-height="1377"
   id="namedview595"
   showgrid="false"
   inkscape:zoom="1"
   inkscape:cx="791.89111"
   inkscape:cy="542.7815"
   inkscape:window-x="-8"
   inkscape:window-y="-8"
   inkscape:window-maximized="1"
   inkscape:current-layer="svg593"><inkscape:grid
     type="xygrid"
     id="grid1664" /></sodipodi:namedview>
<style
   type="text/css"
   id="style2">
	.st0{fill:#91278D;}
	.st1{fill:url(#SVGID_1_);}
	.st2{filter:url(#Adobe_OpacityMaskFilter);}
	.st3{mask:url(#SVGID_2_);fill:url(#SVGID_3_);}
	.st4{fill:url(#SVGID_4_);}
	.st5{fill:url(#SVGID_5_);}
	.st6{fill:url(#SVGID_6_);}
	.st7{fill:url(#SVGID_7_);}
	.st8{fill:url(#SVGID_8_);}
	.st9{fill:#270956;stroke:#FF00FF;stroke-width:0.2454;stroke-linecap:round;stroke-linejoin:round;stroke-miterlimit:10;}
	.st10{fill:none;stroke:#FFFFFF;stroke-width:0.5;stroke-miterlimit:10;}
	.st11{display:none;}
	.st12{fill:url(#SVGID_9_);}
	.st13{fill:url(#SVGID_10_);}
	.st14{fill:#5C0A63;}
	.st15{fill:url(#SVGID_11_);}
	.st16{fill:url(#SVGID_12_);}
	.st17{fill:#E90020;}
	.st18{fill:#D966E3;}
	.st19{fill:url(#SVGID_13_);}
	.st20{fill:#C000D0;}
	.st21{fill:url(#SVGID_14_);}
	.st22{fill:url(#SVGID_15_);}
	.st23{fill:#6D23B0;}
	.st24{fill:url(#SVGID_16_);}
	.st25{fill:#E7E000;}
	.st26{fill:#1F6C9C;}
	.st27{fill:#9FF059;}
	.st28{fill:url(#SVGID_17_);}
	.st29{fill:#20002E;}
	.st30{fill:url(#SVGID_18_);}
	.st31{fill:#590C7B;}
	.st32{fill:#43095C;}
	.st33{fill:url(#SVGID_19_);}
	.st34{fill:#FF00FF;}
	.st35{fill:#120311;}
	.st36{fill:#93278F;}
	.st37{fill:#250A24;}
	.st38{fill:url(#SVGID_20_);}
	.st39{fill:url(#SVGID_21_);}
	.st40{fill:url(#SVGID_22_);}
</style>

<g
   id="sky"
   transform="translate(0,0.00997925)">
	<linearGradient
   id="SVGID_1_"
   gradientUnits="userSpaceOnUse"
   x1="640"
   y1="393.92841"
   x2="640"
   y2="-26.9851">
		<stop
   offset="0.1341"
   style="stop-color:#EB1E79"
   id="stop7" />
		<stop
   offset="0.1446"
   style="stop-color:#E11E76"
   id="stop9" />
		<stop
   offset="0.2007"
   style="stop-color:#B21D66"
   id="stop11" />
		<stop
   offset="0.2618"
   style="stop-color:#881C58"
   id="stop13" />
		<stop
   offset="0.3265"
   style="stop-color:#631C4B"
   id="stop15" />
		<stop
   offset="0.3959"
   style="stop-color:#441B41"
   id="stop17" />
		<stop
   offset="0.4713"
   style="stop-color:#2B1B39"
   id="stop19" />
		<stop
   offset="0.5551"
   style="stop-color:#181A32"
   id="stop21" />
		<stop
   offset="0.652"
   style="stop-color:#0A1A2D"
   id="stop23" />
		<stop
   offset="0.7738"
   style="stop-color:#021A2B"
   id="stop25" />
		<stop
   offset="1"
   style="stop-color:#001A2A"
   id="stop27" />
	</linearGradient>
	<rect
   x="-43.880001"
   y="-26.99"
   class="st1"
   width="1367.76"
   height="420.91"
   id="rect30"
   style="fill:url(#SVGID_1_)" />
</g>
<g
   id="Layer_7">
	<defs
   id="defs38">
		<filter
   id="Adobe_OpacityMaskFilter"
   filterUnits="userSpaceOnUse"
   x="411.23"
   y="41.97"
   width="458.55"
   height="458.55">
			<feFlood
   style="flood-color:white;flood-opacity:1"
   result="back"
   id="feFlood33" />
			<feBlend
   in="SourceGraphic"
   in2="back"
   mode="normal"
   id="feBlend35" />
		</filter>
	</defs>
	<mask
   maskUnits="userSpaceOnUse"
   x="411.23"
   y="41.97"
   width="458.55"
   height="458.55"
   id="SVGID_2_">
		<g
   class="st2"
   id="g86">
			<g
   id="g84">
				<g
   id="g42">
					<rect
   x="391.87"
   y="434.31"
   width="487.17"
   height="99.03"
   id="rect40" />
				</g>
				<g
   id="g46">
					<rect
   x="391.87"
   y="419.82"
   width="487.17"
   height="1.74"
   id="rect44" />
				</g>
				<g
   id="g50">
					<rect
   x="391.87"
   y="405.34"
   width="487.17"
   height="1.74"
   id="rect48" />
				</g>
				<g
   id="g54">
					<rect
   x="391.87"
   y="390.86"
   width="487.17"
   height="1.74"
   id="rect52" />
				</g>
				<g
   id="g58">
					<rect
   x="391.87"
   y="376.37"
   width="487.17"
   height="1.74"
   id="rect56" />
				</g>
				<g
   id="g62">
					<rect
   x="391.87"
   y="361.89"
   width="487.17"
   height="1.74"
   id="rect60" />
				</g>
				<g
   id="g66">
					<rect
   x="391.87"
   y="347.4"
   width="487.17"
   height="1.74"
   id="rect64" />
				</g>
				<g
   id="g70">
					<rect
   x="391.87"
   y="332.92"
   width="487.17"
   height="1.74"
   id="rect68" />
				</g>
				<g
   id="g74">
					<rect
   x="391.87"
   y="318.44"
   width="487.17"
   height="1.74"
   id="rect72" />
				</g>
				<g
   id="g78">
					<rect
   x="391.87"
   y="303.95"
   width="487.17"
   height="1.74"
   id="rect76" />
				</g>
				<g
   id="g82">
					<rect
   x="391.87"
   y="289.47"
   width="487.17"
   height="1.74"
   id="rect80" />
				</g>
			</g>
		</g>
	</mask>
	
		<linearGradient
   id="SVGID_3_"
   gradientUnits="userSpaceOnUse"
   x1="4903.3105"
   y1="551.3546"
   x2="4903.3105"
   y2="92.805"
   gradientTransform="matrix(-1 0 0 -1 5543.8105 593.3263)">
		<stop
   offset="0"
   style="stop-color:#F7BA4F"
   id="stop89" />
		<stop
   offset="0.4832"
   style="stop-color:#FF2E00"
   id="stop91" />
		<stop
   offset="0.5492"
   style="stop-color:#FF2824"
   id="stop93" />
		<stop
   offset="0.7741"
   style="stop-color:#FF1398"
   id="stop95" />
		<stop
   offset="0.9288"
   style="stop-color:#FF05E2"
   id="stop97" />
		<stop
   offset="1"
   style="stop-color:#FF00FF"
   id="stop99" />
	</linearGradient>
	<circle
   class="st3"
   cx="640.5"
   cy="271.25"
   r="229.27"
   mask="url(#SVGID_2_)"
   id="circle102" />
</g>
<g
   id="g1701"><g
     id="g126">
		<g
   id="g124">
			<linearGradient
   id="SVGID_4_"
   gradientUnits="userSpaceOnUse"
   x1="360.1655"
   y1="-26.349501"
   x2="360.1655"
   y2="505.7175">
				<stop
   offset="0"
   style="stop-color:#FF3FA5"
   id="stop105" />
				<stop
   offset="0.0175"
   style="stop-color:#F93DA0"
   id="stop107" />
				<stop
   offset="0.1847"
   style="stop-color:#C02B70"
   id="stop109" />
				<stop
   offset="0.3468"
   style="stop-color:#901B48"
   id="stop111" />
				<stop
   offset="0.4997"
   style="stop-color:#6B0F29"
   id="stop113" />
				<stop
   offset="0.6415"
   style="stop-color:#510712"
   id="stop115" />
				<stop
   offset="0.7678"
   style="stop-color:#410205"
   id="stop117" />
				<stop
   offset="0.8659"
   style="stop-color:#3B0000"
   id="stop119" />
			</linearGradient>
			<path
   id="path122"
   style="fill:url(#SVGID_4_)"
   d="m 397.78,30.09 c 9.66758,-2.017121 7.08353,9.834901 15.01994,-1.906035 10.44532,-8.000906 16.66453,-4.157238 4.73006,4.836035 5.9532,0.1076 31.20513,-21.293301 28.77,-4.57 8.05488,-7.917555 22.35872,-2.771446 7.84,3.6 9.65829,-3.02028 26.3777,-6.232821 33.06,6.11 -11.96698,5.903628 -25.5569,13.837431 -38.67,7.24 18.46857,18.697885 -30.89413,-3.679922 -9.52,10.66 -6.67205,6.409417 -36.79494,-8.388488 -16.7775,3.076562 6.96501,7.766954 -25.19647,1.114148 -16.5925,9.313438 -10.82657,1.727071 -31.56825,15.767078 -9.58109,7.991719 8.26069,-3.385027 23.91878,-9.365703 9.89109,1.368281 9.43375,-5.898741 27.47016,-10.242791 26.57031,-3.424375 9.92531,-6.782115 25.98391,1.091297 7.31969,4.724375 5.45475,0.155854 34.74675,-3.287257 23.65,8.72 12.93955,-1.872452 14.86312,8.861877 2.65,7.95 18.48261,-3.388884 27.23955,31.66679 4.27,19.05 -9.59259,3.75752 -16.07646,-19.130371 -15.28,-3.73 -8.42546,4.50158 -15.73763,-17.52115 -11.27,-1.57 -8.86632,3.12477 -21.43696,-22.799538 -12.8475,-3.80922 2.32489,8.78183 -19.95506,-8.096587 -16.9825,0.65922 -14.86489,-7.081339 -26.80437,-3.01862 -42.27,-4.21 17.60444,28.56003 30.4786,59.61876 38.44389,92.18809 15.28522,52.16746 12.50135,107.29213 12.95611,161.05191 -0.97194,49.38622 -5.33594,98.79579 -9.9175,147.8625 -10.73285,4.11997 -28.01628,5.35576 -20.67875,-11.49875 6.9391,-69.90678 12.5668,-140.01893 12.10143,-210.33453 1.74222,-19.89699 2.64127,-43.94864 -20.99518,-46.25922 -1.88717,7.52919 -18.22079,-8.40864 -9,1.54 -10.29641,-1.20217 -35.58939,5.86432 -33.54209,9.09373 9.543,-2.41335 23.36428,-6.50957 19.86568,-2.07264 6.3892,-3.82535 27.63466,3.72866 22.21391,5.90391 -1.54422,-0.81016 22.39587,14.03611 14.98109,15.26213 13.68312,10.03639 3.2627,16.82354 -6.9939,7.17568 -7.24737,-7.03616 -16.4181,-3.5265 -22.23469,-15.17281 5.43723,13.63856 -31.39078,-12.56677 -36.83,2.04 11.73866,51.28658 23.82921,103.05516 47.95665,150.21686 12.7892,14.88124 -16.03069,18.84633 -13.99472,0.0951 -20.1441,-47.40841 -32.2863,-97.89187 -38.53818,-148.9332 -7.97415,-1.80763 -23.06918,20.12365 -24.7325,26.86125 -5.39888,4.52743 1.95065,22.32064 -6.67125,10.04 3.0685,9.33435 3.70376,25.13235 0.35799,23.56502 6.82476,10.87534 -0.32193,22.60983 -7.37674,7.95998 -0.48809,-12.3493 -10.66967,-10.98643 -5.41125,-23.995 -11.23177,4.61267 9.83654,-24.10597 -2.04,-11.01 -1.46669,-16.33598 24.26864,-31.95364 24.02437,-34.64656 -11.92175,0.10241 -18.87645,9.67951 -27.08437,14.28656 -0.96444,-10.26952 -11.2225,22.11703 -14.84,10.44 0.55507,15.43337 -14.45025,19.46949 -9.63916,1.794 1.57938,-7.85839 6.7312,-17.66817 9.12916,-19.79775 -8.88842,-2.76408 23.44562,-12.27806 6.11,-9.53625 8.08114,-5.0783 37.73995,-17.36379 12.36047,-11.17562 -7.62247,-0.48032 -10.72663,5.91695 -12.38678,1.26621 -5.63424,2.32744 -20.52276,19.34095 -19.29369,8.53941 -3.44888,9.45534 -24.218,22.83837 -12.89891,4.37813 4.27043,-8.3507 13.36168,-11.44616 10.00407,-14.63344 8.51908,-4.49022 10.36735,-6.22125 11.02375,-9.49375 9.56731,-4.30417 22.07494,0.0566 14.81451,-6.10996 9.68402,-4.79997 32.49858,5.38687 32.7672,0.62058 -2.89233,-4.00951 -19.72119,-8.24888 -9.18062,-9.82156 -16.98854,-3.48916 -15.27278,-10.74988 -32.26,-11.79 9.97214,-14.05079 39.45946,3.61125 26.72902,-16.66662 -0.0345,-10.19137 11.81479,-22.0312 -2.16902,-9.44338 -7.49157,-6.49231 12.98536,-14.83755 -1.23,-11.82 -3.76639,-10.66366 25.32525,-29.64116 4.89547,-17.85922 -12.0135,1.1789 20.03773,-17.41387 6.91453,-14.27078 5.06374,-7.56766 34.87653,-22.63926 13.39,-11.39 11.8566,-15.44864 -5.3482,3.73424 -6.36,12.11 -3.7138,-24.63518 0.0475,5.96418 -6.9,12.81 -4.55213,-24.55485 -0.79088,31.32682 -11.24,4.98 6.39068,13.4278 -20.8852,48.01876 -21.08578,18.67813 1.39113,-8.7124 15.87502,-23.0854 0.32578,-11.57813 -5.10656,-7.12445 14.21331,-14.87951 1.38,-14.16 4.52604,-16.94544 25.48889,-25.34475 8.66994,-22.87619 6.17143,-8.90605 17.90694,-8.23665 14.3724,-15.55568 8.2028,-9.89231 6.01312,-14.775071 -0.76234,-2.58813 -6.73087,14.44092 -12.39219,7.1866 -10.08814,4.8518 -2.16897,8.15376 -15.07458,18.10173 -14.05186,6.8982 -3.11285,13.26683 -39.9846,31.52495 -27.67965,7.09922 2.15523,-9.99436 27.97453,-17.00326 6.38965,-13.40922 3.83019,-10.56751 14.63648,-7.91246 12.60582,-16.077871 C 266.20471,88.768033 299.02867,86.116068 272.08,85.34 c 12.41988,-2.207077 9.63293,-15.656018 -1.06094,-7.910937 -4.76351,-2.839345 9.04942,-11.992064 -4.64547,-3.805157 -9.99257,6.974991 -30.37487,1.5162 -12.53709,-7.423633 7.74972,-10.654875 27.45479,-3.063125 23.79028,-12.436679 5.17504,-6.087607 26.98058,7.592123 13.89322,-3.393594 8.8792,-7.464715 34.9151,15.803277 18.77,-1.53 13.60244,2.818661 -3.45582,-20.055659 12.70187,-6.560937 8.88638,5.279812 -23.39403,-23.596216 -6.67187,-20.584063 8.51448,8.449042 -11.09558,-22.61695117 1.74141,-20.2345312 9.35955,14.0109892 -3.08536,-15.0754368 10.6991,-17.6393168 6.60853,-7.926993 20.02163,-15.287568 15.15949,1.563379 1.19715,7.2245386 -15.17451,23.6610816 -1,12.765469 2.15426,8.5567187 -4.1616,8.9318606 3.24096,12.900645 -0.0315,7.768189 -8.30138,26.300171 1.75716,10.67998 2.75976,-3.161833 0.51466,18.160995 2.43938,23.548125 -0.26062,9.172601 12.47394,46.762941 14.63,22.27375 0.72239,-11.090799 19.21688,-30.913201 22.34094,-28.875156 -9.70297,19.755791 8.51779,-7.30349 10.45156,-8.587344 z m -68.95,124.09 c -4.31814,-7.40594 -8.33725,-11.32863 -3.95,1.22 2.4631,9.14179 -4.32659,10.49581 -8.69,5.31 6.55498,4.98182 0.91322,22.05622 -5.81,11.09 10.52788,16.25678 -24.03179,28.43916 -2.71828,38.97281 4.59339,10.59556 -1.13577,-11.18739 6.03344,1.64844 4.87259,4.51639 11.80333,20.68116 13.51484,5.76875 3.20678,5.35572 8.04793,-17.126 16.85,-19.75 -1.96983,9.22345 15.38095,-16.24841 20.71,-5.36 10.83173,-10.8011 23.56627,-1.8415 6.83773,5.66176 -5.83905,2.15023 -14.37977,8.74161 -13.11773,11.31824 -4.45442,4.81378 -14.55268,3.1387 -9.741,8.65934 -7.12159,7.44822 -20.81705,25.62823 -4.949,9.19066 9.97323,-8.4802 22.3309,-9.85042 36.31,-9.84 -9.15754,5.86761 15.55231,-0.6918 17.94,7.77625 5.45065,-16.15541 -8.05664,-48.67542 -12.75522,-70.33987 -6.23728,-15.7163 -12.25394,-42.27787 -24.28228,-49.04763 -13.42977,14.29427 -25.35484,29.19922 -32.1825,47.72125 z m 49,-85.72 c 18.42079,-20.145743 45.63008,-29.036052 72.05,-32.22 -26.61111,0.436007 -56.39564,9.158247 -72.05,32.22 z m -51.38,31.53 c -19.4728,4.37442 -43.46796,41.49679 -41.37566,46.50373 C 295.32205,128.03255 307.5859,110.55159 326.45,99.99 Z m 14.03,-25.86 c -9.35666,-8.374129 -35.90792,-13.139435 -38.84282,-9.993494 13.1885,2.272177 26.23134,5.493866 38.84282,9.993494 z" />
		</g>
	</g><g
     id="g147">
		<linearGradient
   id="SVGID_5_"
   gradientUnits="userSpaceOnUse"
   x1="842.67261"
   y1="162.95509"
   x2="842.67261"
   y2="415.47699">
			<stop
   offset="0"
   style="stop-color:#FF3FA5"
   id="stop128" />
			<stop
   offset="0.0175"
   style="stop-color:#F93DA0"
   id="stop130" />
			<stop
   offset="0.1847"
   style="stop-color:#C02B70"
   id="stop132" />
			<stop
   offset="0.3468"
   style="stop-color:#901B48"
   id="stop134" />
			<stop
   offset="0.4997"
   style="stop-color:#6B0F29"
   id="stop136" />
			<stop
   offset="0.6415"
   style="stop-color:#510712"
   id="stop138" />
			<stop
   offset="0.7678"
   style="stop-color:#410205"
   id="stop140" />
			<stop
   offset="0.8659"
   style="stop-color:#3B0000"
   id="stop142" />
		</linearGradient>
		<path
   id="path145"
   style="fill:url(#SVGID_5_)"
   d="m 923.18,181.73 c -6.58844,-6.33495 -17.58478,-1.405 -22.36,-0.58 7.27455,-8.73671 -6.53523,0.10429 -10.75555,-3.33498 -6.64803,2.96096 -17.12876,15.29576 -12.07445,2.36498 -6.27146,8.20869 -17.85112,7.71349 -20.81906,18.77969 -1.72325,4.65169 -2.7677,4.86709 -2.53094,-0.75969 -3.6393,7.05097 -6.73734,8.9132 -8.51107,0.20312 -2.29664,-4.78027 -7.78752,-24.06108 -8.81893,-10.13312 0.52695,-5.40806 -8.56923,-22.64616 -9.37,-10.18 0.19779,-6.99561 -8.92134,-14.27638 -11.76977,-10.71484 -6.07754,-5.1323 -19.99845,-5.82529 -23.40868,-2.14916 2.39119,5.79912 14.19242,9.13159 14.99111,10.15134 -8.35774,1.52328 5.94664,4.82187 5.58382,10.25352 3.30029,1.90714 13.0948,6.1109 3.57352,4.63914 1.09978,5.93422 8.97755,13.12651 14.31,18.61 -12.10328,-8.44475 -25.79722,-15.70204 -40.84,-16.4 6.9466,4.28048 6.6476,6.07478 -1.12385,3.34776 -5.07429,-2.55012 -21.02948,-2.19348 -11.61615,3.59224 -8.43117,-4.10569 -20.71755,3.94449 -16.72579,5.76581 -9.46756,1.25937 -20.57196,14.96654 -20.20466,20.05552 8.42759,0.6362 15.78396,-7.59948 21.17045,-9.90133 -5.64252,12.50387 6.58836,-5.8303 8.47,2.66 5.7117,-2.38443 11.99803,-7.10108 17.36,-8.08 -8.97456,9.18622 8.14338,-0.11377 12.55674,4.43217 4.54607,-0.49201 15.75978,-0.62073 5.98683,2.28066 -4.94041,4.14722 -25.07794,-0.0544 -21.36173,6.08263 12.5889,3.39731 -7.59292,0.98523 -11.03871,3.83376 -4.05792,1.99657 -5.91406,5.09875 0.41687,4.34078 -8.74344,-0.38017 -15.49669,10.847 -12.03406,11.01822 -7.40259,4.2908 -11.24755,19.43755 -8.4621,23.56775 6.74036,-1.17208 13.2647,-13.05099 14.31866,-13.61003 -1.50662,9.88424 6.26139,-5.28851 11.75195,-4.38981 3.69794,-4.80341 8.93935,-12.08416 5.54555,-1.82613 6.00891,-7.06829 14.27834,-5.48462 21.75,-10.33 -7.96374,7.73994 23.71827,-2.45164 11.88781,4.25078 -12.55961,1.74347 -21.47808,9.46209 -29.67625,18.10656 -4.24681,2.69551 -11.27313,13.70065 -1.94859,7.70547 3.11263,-0.46548 -15.39616,14.48975 -7.80103,16.14931 1.72771,-1.18572 -8.56791,16.78443 0.29806,13.30788 -4.81248,8.9388 1.83505,24.97727 5.69066,27.83115 5.04845,-5.54193 3.9183,-19.84275 4.12934,-21.49271 5.72819,8.97396 0.73071,-7.03917 6.54578,-9.33969 1.03534,-9.32437 -0.0449,-15.33276 4.21422,-9.00248 -0.0828,-9.41898 7.49343,-13.64138 9.93,-22.36627 1.35394,5.98312 9.90898,-8.55837 14.88,-9.92 7.92752,-5.20646 21.64139,-15.0722 17.40109,1.22396 -1.57815,47.16023 21.9308,90.16837 47.38442,128.21505 7.85387,11.53836 15.44099,23.30345 23.6973,34.54036 6.58632,1.0299 20.48159,-6.90753 10.02856,-13.48421 -27.4891,-37.21062 -57.40838,-74.82169 -68.87931,-120.6048 -3.3442,-12.68588 -5.46407,-25.67774 -6.62206,-38.74036 14.56835,2.32972 26.84266,11.36553 37.35,21.22 0.16886,-15.51924 2.67594,6.24924 7.18,6.7 2.44181,-8.64427 4.42925,15.49089 9.11,4.43 1.27003,7.33898 11.37364,16.35812 15.70993,16.49034 4.58384,-6.03521 -5.60663,-17.14843 -2.41493,-17.25534 4.81994,0.17358 -4.99437,-7.71954 -3.6,-12.295 -2.32514,-5.02486 -18.68625,-10.8919 -5.425,-8.3 0.28104,-3.33483 -6.5622,-4.90542 -9.23,-7.51 -0.46424,-7.97044 -24.05251,-6.10662 -11.94,-9.32 -8.12085,-3.74693 -24.84068,-2.67309 -28.43642,-2.73676 10.27804,-3.03174 20.84728,-5.46919 31.62712,-3.81742 5.56192,-0.1657 18.38797,4.0965 9.0293,-3.72582 5.17994,1.31053 15.68692,11.79235 14.38625,4.16123 4.00941,1.63246 11.84493,11.45112 10.58375,1.75877 5.15348,6.08129 19.59769,10.37128 23.56239,8.26941 -0.0317,-7.38364 -13.97282,-14.23166 -12.89239,-14.61441 6.23664,-1.36184 -7.61283,-5.83885 -9.53234,-9.42469 -3.97695,-3.20727 -22.92941,-0.4653 -10.7232,-4.5441 0.2362,-3.8997 -13.48254,0.21234 -18.29383,-3.02574 -4.47724,-1.05025 -20.03947,9.20254 -10.70063,0.85953 -6.21164,-0.70716 -23.53381,11.83017 -25.42044,10.80077 6.11746,-5.82244 18.86407,-13.65419 21.53044,-17.28483 -14.80076,-3.76841 21.10742,-0.45049 8.49801,-6.70838 2.63595,-1.70968 16.62885,1.44169 12.89664,-4.83543 8.07818,-1.24625 15.24449,-4.83627 22.02535,-9.26213 z" />
	</g><g
     id="g168">
		<linearGradient
   id="SVGID_6_"
   gradientUnits="userSpaceOnUse"
   x1="33.5196"
   y1="96.778603"
   x2="33.5196"
   y2="405.81259">
			<stop
   offset="0"
   style="stop-color:#FF3FA5"
   id="stop149" />
			<stop
   offset="0.0175"
   style="stop-color:#F93DA0"
   id="stop151" />
			<stop
   offset="0.1847"
   style="stop-color:#C02B70"
   id="stop153" />
			<stop
   offset="0.3468"
   style="stop-color:#901B48"
   id="stop155" />
			<stop
   offset="0.4997"
   style="stop-color:#6B0F29"
   id="stop157" />
			<stop
   offset="0.6415"
   style="stop-color:#510712"
   id="stop159" />
			<stop
   offset="0.7678"
   style="stop-color:#410205"
   id="stop161" />
			<stop
   offset="0.8659"
   style="stop-color:#3B0000"
   id="stop163" />
		</linearGradient>
		<path
   id="path166"
   style="fill:url(#SVGID_6_)"
   d="m 90.27,155.63 c -0.272775,-7.61242 -16.96082,-3.84299 -9.41,-9.26 -5.559911,-3.0934 -12.47487,-2.20726 -17.13,-2.34 7.958105,-4.67652 -7.978296,-1.12159 -10.62875,-0.0213 -2.542129,2.10973 -6.4907,8.55916 -3.73125,1.51125 -9.155795,8.39424 -2.721673,-11.43324 -4.076133,-17.08875 -0.542941,-5.03869 -4.109067,7.04274 -2.229648,-1.60141 1.948076,-6.46602 -1.688484,-11.41075 -2.644981,-9.45584 C 40.656587,107.0227 34.031711,101.69714 24.54,96.78 c 0.1936,6.1415 8.387482,13.05996 3.832656,12.79828 1.817189,3.78489 3.889406,14.11926 4.047344,14.87672 -4.228849,-1.60935 0.553768,11.4083 0.560723,15.67 2.722531,10.6261 -3.506383,-8.49932 -5.778223,-11.66 -3.718235,-8.14493 -12.036235,-15.47347 -10.180156,-9.77494 -4.519342,-6.12543 -10.966033,-7.87976 -10.5627151,-5.15336 -3.5301843,-4.53181 -10.6134773,-3.37001 -9.1960962,-1.3842 -6.1201306,-3.29132 -24.9528717,4.6195 -9.9122827,5.77 3.0299057,0.57575 11.3772729,-1.76174 5.33875,2.8175 6.60533211,-0.25566 10.0286997,4.26789 17.66,3.9 -7.3733761,2.2779 6.713525,4.9571 6.79125,10.065 5.376071,4.53143 4.702518,6.04622 -1.680469,2.37703 C 11.077933,131.9719 1.1503411,126.21979 7.51,135.77 4.2762944,129.33404 -6.3905239,129.7025 -3.7713086,132.44424 -5.8262001,130.82639 -15.705661,133.1817 -10.38,135.33 c -8.236789,-1.00286 -18.387212,15.21082 -4.763477,9.44303 3.44739,-1.72778 5.4708065,-3.25004 2.803477,0.90697 3.4926938,-0.42543 15.3082952,-2.23628 13.40625,0.17 -2.5472413,3.57021 6.8255533,0.35111 8.5975,4.4625 5.732435,0.69018 1.85523,4.5452 8.658105,7.71998 C 27.853478,167.77176 8.6701806,152.16024 3.63,157.34 c -7.5729879,-2.33545 -12.8383272,3.04473 -8.3421289,3.7651 -6.2490291,0.5112 -8.6921281,6.12293 -9.2772461,7.52068 -4.76184,5.09224 -1.920368,7.0502 -5.928965,13.14174 -1.401464,6.6045 -1.797761,15.35713 4.40834,5.78998 2.427029,-3.21778 3.058346,-9.91682 3.8,-2.8875 1.7901734,-3.46459 9.6261494,-13.33951 9.415,-10.49 0.1470683,4.9668 4.0664658,-5.87431 8.07625,-3.08875 4.269178,-3.25666 11.027234,6.48492 18.864941,3.30539 14.206777,0.26036 1.721001,15.54519 2.450645,23.88818 -9.869741,51.71441 -6.902154,104.70783 -5.292715,157.00235 0.807354,16.28632 1.412324,32.6039 2.870879,48.84299 5.787307,5.04174 13.048121,-1.46485 8.987154,-8.71985 C 27.338046,324.02672 26.629185,251.9534 34.96,180.7 c 10.714531,-4.41434 11.901868,20.32104 16.45,11.58 -1.24391,5.32148 -0.974736,9.73855 1.191563,9.89156 -1.54288,7.3894 3.738879,3.19252 2.7483,10.65422 0.962126,5.94015 4.397098,12.66185 6.200137,3.26547 -0.157661,-5.3498 0.04368,-5.93274 1.8375,-6.29109 1.431061,-4.85413 -3.301214,-16.664 -2.0975,-15.58016 3.934104,1.14628 -3.783013,-13.12914 -8.36,-15.54 8.758142,-0.26732 -13.869842,-9.12035 -10.592539,-6.9592 8.045777,-5.70906 20.920049,9.41935 23.248789,5.8742 -1.366792,-8.42442 5.612539,12.90578 5.60375,3.005 1.961154,1.945 3.666488,11.35991 5.72,4.98 1.870934,6.10399 14.027344,19.16801 9.83375,5.37875 0.286098,-3.13606 -6.783424,-8.17248 -0.76375,-5.89875 -1.276824,-5.7668 -11.449283,-14.24399 -10.375,-14.55 4.075879,-0.38862 -9.857222,-9.52355 -14.93418,-7.93014 -2.962655,0.37254 5.621078,-4.1573 -2.952695,-2.17549 -5.812073,0.0362 -19.007245,3.4743 -6.622207,-0.96099 4.092838,-2.64744 14.346415,-1.2604 8.734082,-6.28338 2.738811,0.65795 12.506332,6.76282 7.85,0.11 4.903758,2.94795 7.307184,3.81511 9.324063,1.53813 4.313826,1.42029 8.814097,1.1336 13.265937,0.82187 z" />
	</g><path
     id="path187"
     style="fill:url(#SVGID_7_)"
     d="m 1072.14,203.43 c 4.5411,-6.83924 16.6335,-1.39893 18.381,-2.54034 -5.6469,-5.72452 6.7213,-0.49365 9.894,-3.18466 3.6377,2.0436 16.5545,11.87365 9.065,1.985 6.3443,3.48317 15.9837,5.5882 19.7207,14.52678 3.3913,7.2384 -0.2879,-7.70574 4.2393,1.19197 5.3707,5.7051 6.033,-12.76288 9.32,-17.73875 2.9626,0.84627 1.8118,8.52245 3.0531,1.31234 -1.501,-4.85755 5.9397,-14.68785 6.4669,-5.57234 -0.4802,-7.74972 6.7641,-11.47678 10.2706,-10.50781 4.3657,-5.10272 26.221,-7.22747 14.9852,1.83133 -2.1053,3.96129 -14.2144,4.48593 -5.0758,5.70648 -6.1926,3.53255 -6.997,10.07576 -14.22,12.94 9.8727,-2.59639 -0.4593,7.49237 -2.3913,10.89375 -3.9552,2.12499 -6.1668,7.96851 -0.6876,2.22883 6.1575,-6.24505 25.3774,-16.02775 28.2506,-12.40555 -8.1609,8.35808 10.1422,-4.85655 14.6785,-0.31979 2.164,1.47495 -6.0257,5.34173 2.3182,2.68151 3.2992,-2.132 16.0289,2.64498 8.2716,4.54125 9.2677,-1.70533 20.0245,10.91142 20.29,15.60694 -7.0969,1.45212 -13.9377,-5.09023 -18.48,-6.81694 5.6519,10.23204 -6.0412,-4.5732 -6.98,2.84 -5.5967,-1.18602 -18.5641,-10.21644 -12.6,-1.5 -7.6162,-2.08551 -14.4841,1.13776 -22.25,1.83 7.3017,5.10499 18.7016,-1.05265 24.44,4.14 -7.4043,1.57199 -5.5345,4.01522 1.3533,1.9502 3.8182,-2.19576 15.7744,4.42514 6.5867,4.6398 8.6179,-1.39407 12.3391,8.13221 11.0233,8.21206 6.7011,1.92488 12.3172,18.75382 7.1854,18.85513 -6.4948,0.75615 -13.5144,-17.33193 -11.2187,-6.10719 -5.1816,-5.86344 -12.5041,-6.00511 -17.02,-13.12 4.4612,10.25092 -4.9153,-1.71587 -10.1491,1.36797 -4.5224,-3.29198 -7.6017,-3.50339 -6.6158,-0.46797 -4.4884,0 -8.9767,0 -13.4651,0 6.7323,4.64113 21.6149,3.30114 26.8987,13.4625 5.6883,1.89034 13.4713,12.60875 2.9413,7.1675 3.4356,2.13266 16.2384,13.29581 8.09,13.09 6.2091,4.27308 4.0686,12.18402 2.4994,13.72031 3.6607,6.21181 -1.2008,19.93391 -3.8171,21.40621 -5.3885,-3.61346 -4.0849,-18.66856 -5.2223,-16.96902 -3.8994,6.78439 -0.4091,-7.48007 -5.9991,-7.67844 -0.7082,-8.12377 -0.741,-13.07713 -3.9051,-7.71939 -0.8744,-6.93428 -7.7673,-12.5404 -9.8758,-17.10723 -3.989,1.29369 -14.5353,-11.16066 -22.7608,-11.54849 -11.2656,-6.33346 -4.2371,13.05628 -6.1302,19.92808 -0.21,55.7485 -7.6712,111.6754 -23.8903,165.05813 -5.3506,3.29699 -18.6068,0.23388 -11.5797,-8.16375 18.5123,-57.50008 28.5588,-117.63128 30.621,-177.97641 -12.1822,0.4936 -23.6834,15.59062 -29.8495,18.4075 -1.5667,-12.45042 -2.4021,15.36416 -6.4305,5.3225 -1.2073,6.03898 -4.0393,9.78344 -6.4621,8.18512 -1.2936,7.04809 -15.5649,21.68586 -13.2429,6.00863 -0.8469,-3.92958 8.0527,-9.49262 0.095,-6.75375 4.0833,-7.47744 4.283,-15.51647 13.53,-19.44 -12.4117,3.34503 2.6824,-4.52838 4.0156,-9.51609 6.2485,-2.74826 13.3628,-3.53144 8.8512,-5.63462 7.306,-3.27295 15.4653,-3.47755 23.3332,-3.35929 -12.4115,-3.58863 -25.238,-2.54372 -37.6807,0.34812 -2.9888,1.18263 5.5576,-8.5478 -1.0368,-2.77718 -2.5292,2.07353 -10.5264,10.22082 -7.6725,2.08906 -4.5891,4.38032 -9.997,8.08228 -10.8466,4.39331 -3.7663,5.06187 -15.5117,8.6185 -18.4329,7.22677 -0.95,-6.32222 11.4039,-13.20186 9.9445,-13.09008 -5.889,-0.59902 6.6611,-5.46736 7.158,-8.89859 6.2592,-3.16366 18.1505,-0.59966 8.117,-5.54141 10.164,0.0584 19.053,-5.21684 28.71,0.54 -8.7216,-8.44695 12.0354,2.77847 16.8746,4.0175 5.6812,2.4765 -8.6439,-6.4783 -11.6102,-8.75496 -3.1948,-2.34614 -11.0346,-4.29079 -2.5144,-4.87254 -1.4899,-2.50831 -7.7315,-0.47056 -11.154,-1.13 -6.5257,0.49923 4.9939,-5.55083 -3.6829,-3.29783 -5.7805,1.04775 -7.2992,0.089 -7.3865,-2.96338 -6.8668,-0.45864 -13.1333,-2.94757 -19.1366,-6.17879 z" /></g>
<g
   id="bottom">
	<linearGradient
   id="SVGID_8_"
   gradientUnits="userSpaceOnUse"
   x1="640"
   y1="748.3568"
   x2="640"
   y2="393.9284">
		<stop
   offset="0"
   style="stop-color:#00142A"
   id="stop190" />
		<stop
   offset="0.0886"
   style="stop-color:#1B1442"
   id="stop192" />
		<stop
   offset="0.2403"
   style="stop-color:#451365"
   id="stop194" />
		<stop
   offset="0.3783"
   style="stop-color:#62137F"
   id="stop196" />
		<stop
   offset="0.4965"
   style="stop-color:#75138E"
   id="stop198" />
		<stop
   offset="0.581"
   style="stop-color:#7B1394"
   id="stop200" />
		<stop
   offset="1"
   style="stop-color:#FF2AE8"
   id="stop202" />
	</linearGradient>
	<rect
   x="-43.88"
   y="393.93"
   class="st8"
   width="1367.76"
   height="354.43"
   id="rect205" />
</g>
<g
   id="grid">
	<g
   id="g274">
		<line
   class="st10"
   x1="-2027.7"
   y1="748.36"
   x2="1.44"
   y2="393.93"
   id="line208" />
		<line
   class="st10"
   x1="-1785.19"
   y1="748.36"
   x2="59.49"
   y2="393.93"
   id="line210" />
		<line
   class="st10"
   x1="-1542.67"
   y1="748.36"
   x2="117.54"
   y2="393.93"
   id="line212" />
		<line
   class="st10"
   x1="-1300.15"
   y1="748.36"
   x2="175.59"
   y2="393.93"
   id="line214" />
		<line
   class="st10"
   x1="-1057.63"
   y1="748.36"
   x2="233.64"
   y2="393.93"
   id="line216" />
		<line
   class="st10"
   x1="-815.11"
   y1="748.36"
   x2="291.7"
   y2="393.93"
   id="line218" />
		<line
   class="st10"
   x1="-572.59"
   y1="748.36"
   x2="349.75"
   y2="393.93"
   id="line220" />
		<line
   class="st10"
   x1="-330.07"
   y1="748.36"
   x2="407.8"
   y2="393.93"
   id="line222" />
		<line
   class="st10"
   x1="-87.56"
   y1="748.36"
   x2="465.85"
   y2="393.93"
   id="line224" />
		<line
   class="st10"
   x1="154.96"
   y1="748.36"
   x2="523.9"
   y2="393.93"
   id="line226" />
		<line
   class="st10"
   x1="397.48"
   y1="748.36"
   x2="581.95"
   y2="393.93"
   id="line228" />
		<line
   class="st10"
   x1="640"
   y1="748.36"
   x2="640"
   y2="393.93"
   id="line230" />
		<line
   class="st10"
   x1="882.52"
   y1="748.36"
   x2="698.05"
   y2="393.93"
   id="line232" />
		<line
   class="st10"
   x1="1125.04"
   y1="748.36"
   x2="756.1"
   y2="393.93"
   id="line234" />
		<line
   class="st10"
   x1="1367.56"
   y1="748.36"
   x2="814.15"
   y2="393.93"
   id="line236" />
		<line
   class="st10"
   x1="1610.07"
   y1="748.36"
   x2="872.2"
   y2="393.93"
   id="line238" />
		<line
   class="st10"
   x1="1852.59"
   y1="748.36"
   x2="930.25"
   y2="393.93"
   id="line240" />
		<line
   class="st10"
   x1="2095.11"
   y1="748.36"
   x2="988.3"
   y2="393.93"
   id="line242" />
		<line
   class="st10"
   x1="2337.63"
   y1="748.36"
   x2="1046.36"
   y2="393.93"
   id="line244" />
		<line
   class="st10"
   x1="2580.15"
   y1="748.36"
   x2="1104.41"
   y2="393.93"
   id="line246" />
		<line
   class="st10"
   x1="2822.67"
   y1="748.36"
   x2="1162.46"
   y2="393.93"
   id="line248" />
		<line
   class="st10"
   x1="3065.19"
   y1="748.36"
   x2="1220.51"
   y2="393.93"
   id="line250" />
		<line
   class="st10"
   x1="3307.7"
   y1="748.36"
   x2="1278.56"
   y2="393.93"
   id="line252" />
		<line
   class="st10"
   x1="-62.37"
   y1="393.93"
   x2="1346.05"
   y2="393.93"
   id="line254" />
		<line
   class="st10"
   x1="-62.37"
   y1="401.88"
   x2="1346.05"
   y2="401.88"
   id="line256" />
		<line
   class="st10"
   x1="-62.37"
   y1="418.46"
   x2="1346.05"
   y2="418.46"
   id="line258" />
		<line
   class="st10"
   x1="-62.37"
   y1="437.12"
   x2="1346.05"
   y2="437.12"
   id="line260" />
		<line
   class="st10"
   x1="-62.37"
   y1="459.93"
   x2="1346.05"
   y2="459.93"
   id="line262" />
		<line
   class="st10"
   x1="-62.37"
   y1="488.61"
   x2="1346.05"
   y2="488.61"
   id="line264" />
		<line
   class="st10"
   x1="-62.37"
   y1="518.32"
   x2="1346.05"
   y2="518.32"
   id="line266" />
		<line
   class="st10"
   x1="-62.37"
   y1="557.94"
   x2="1346.05"
   y2="557.94"
   id="line268" />
		<line
   class="st10"
   x1="-62.37"
   y1="601.25"
   x2="1346.05"
   y2="601.25"
   id="line270" />
		<line
   class="st10"
   x1="-62.37"
   y1="659.3"
   x2="1346.05"
   y2="659.3"
   id="line272" />
	</g>
</g>
<path
   id="path305"
   style="fill:url(#SVGID_9_)"
   d="m 978.92,462.86 c -10.11539,7.30641 -20.44587,15.94634 -24.39245,28.24987 -2.39435,6.79785 -2.71363,14.08975 -2.51366,21.21998 -0.99699,8.6963 -6.76482,15.84377 -12.40181,22.13008 -1.59539,1.06471 -7.30093,5.4045 -2.34809,4.6535 6.32311,-1.3426 9.08772,-7.79992 12.47581,-12.56309 1.91031,-2.95142 0.39257,3.21641 0.35112,4.5769 -0.57728,3.96453 -1.59375,7.85431 -3.62063,11.33911 -1.15184,3.61161 3.72201,-1.49201 4.25607,-3.11819 2.38488,-4.36785 2.40317,-9.58777 4.79971,-13.96132 2.63999,3.44648 0.84257,8.27405 2.71988,12.09248 0.43896,2.27524 -1.2754,7.28543 1.02795,7.78636 3.3563,-3.31659 1.47037,-8.33972 0.62143,-12.28209 -1.27964,-3.69049 -2.74915,-10.10605 3.14094,-10.1245 2.4225,-0.70931 8.21873,1.13718 8.59989,-1.34955 -3.23575,-0.93928 -9.11746,0.98605 -9.56728,-3.94733 -1.16962,-7.29566 -1.8371,-15.48361 2.53543,-21.91787 2.70689,-5.03722 4.74924,-10.78849 9.4403,-14.39153 4.35598,-1.12746 7.93005,-3.99008 10.89624,-7.22301 2.79377,-1.19649 8.00299,-4.47244 3.26052,-6.96 -2.91277,-1.761 -6.1527,-2.90113 -9.28137,-4.2098 z" /><path
   id="path324"
   style="fill:url(#SVGID_10_)"
   d="m 1047.41,484.28 c 0.059,8.60278 -0.4211,17.40178 -3.2353,25.59211 -2.3506,4.99688 -1.9979,11.14549 -5.6552,15.52451 -2.9632,2.678 -7.2724,1.6488 -10.8563,1.30126 -3.7768,-0.55642 -8.3989,-0.98306 -11.1955,2.19768 -1.5164,1.49171 -5.5641,4.62647 -4.082,6.19883 4.2061,-2.02193 7.5187,-6.2714 12.4689,-6.45862 3.2932,0.24323 6.2166,2.00745 9.3729,2.81023 2.5635,0.91055 0.6833,2.50165 -1.1207,2.19457 -3.7315,0.56476 -7.2247,3.2044 -8.1187,6.98026 -0.8045,1.6295 -2.025,6.88878 0.4831,3.3576 2.5105,-2.9946 5.0705,-6.0661 8.6052,-7.90089 1.6747,-0.8535 4.7674,-3.04771 5.8972,-2.35706 -0.6917,2.87825 -1.8394,5.82508 -0.8689,8.79457 0.2542,1.21589 0.5207,4.66132 1.1787,4.45496 0.9409,-4.08626 1.1508,-8.30907 2.2279,-12.36751 2.012,-3.05578 6.1877,-1.68533 9.1748,-2.80687 1.4958,0.14904 6.43,-1.35953 2.561,-1.50668 -3.0844,0.11375 -9.3028,0.73847 -8.403,-4.09106 1.7666,-5.32892 6.1498,-9.193 9.1526,-13.81444 3.7124,-5.41261 6.2663,-12.04992 5.4132,-18.70445 -0.4068,-3.00003 0.1182,-7.03882 -0.9484,-9.38958 -4.0172,-0.005 -8.0344,0.0132 -12.0515,-0.009 z" /><path
   id="path326"
   style="fill:#5c0a63;fill-opacity:1"
   d="m 1040.54,268.7 c 8.3723,-14.94645 27.7044,-26.91089 23.2175,-46.30512 -9.2284,-28.66588 -47.7527,-44.69982 -73.0355,-26.36335 -26.3584,21.78892 -36.84558,56.39991 -44.3664,88.40975 -0.61912,20.07757 -8.41184,38.53769 -17.1278,56.15126 -12.67269,36.99832 -3.17701,81.56541 26.53856,107.79306 12.05726,15.18986 25.32692,31.91738 45.34594,36.14632 22.1029,8.87097 46.5285,6.10954 69.6099,9.94287 25.8948,-0.99688 48.8305,-16.90639 75.0829,-16.30424 29.8076,-1.55711 57.6305,11.03334 86.3012,16.90914 2.8023,-6.32294 -14.9424,-15.99871 0.7108,-10.37696 11.8763,4.04183 9.8552,-14.14834 -0.5931,-12.27533 6.7658,-0.64829 29.8375,0.43949 12.458,-6.92937 5.9733,-2.43852 23.4686,-7.99861 6.7713,-11.80842 -26.1096,-4.36133 -50.6754,-17.80773 -67.508,-38.33266 -22.1874,-18.30795 -46.1602,-34.32788 -68.2196,-52.80601 -21.1346,-16.26637 -44.9973,-28.57607 -67.3208,-42.86142 -13.4482,-12.55798 -18.7787,-35.17359 -7.8649,-50.98952 z" /><path
   class="st15"
   d="m 1018.45,337.78 c -18.52,11.86 -20.56,17.14 -26.5,26.5 -5.94,9.36 -16.91,21.87 -16.91,38.92 0,17.06 -0.46,31.68 9.83,41.51 10.29,9.83 22.6,26.31 40.32,30.18 17.72,3.87 68.51,4.81 83.56,0 15.05,-4.81 41.78,-5.5 55.03,-4.36 13.25,1.14 22.62,1.84 13.02,-3.19 -9.59,-5.03 0,1.14 8.46,1.14 8.46,0 6.63,-2.28 -4.57,-7.08 -11.2,-4.8 0.73,0.69 9.85,0.23 9.12,-0.46 5.23,-2.51 -5.05,-9.14 -10.28,-6.63 22.62,5.71 14.62,0.23 -8,-5.48 -30.85,-18.28 -44.1,-33.36 -13.25,-15.08 -37.02,-46.61 -43.64,-53.92 -6.63,-7.31 -18.05,-20.56 -36.33,-26.5 -18.28,-5.94 -30.62,-9.14 -37.7,-8.68 -7.09,0.44 -14.7,4.2 -19.89,7.52 z"
   id="path343"
   style="fill:url(#SVGID_11_)" /><path
   class="st16"
   d="m 1007.11,211.89 c -4.51,3.67 -5.88,10.28 -2.4,15.54 2.48,3.75 2.96,4.36 9.03,5.8 7.92,1.88 14.85,-1.92 16.79,-5.92 1.94,-4 0.91,-6.97 -1.6,-10.97 -2.51,-4 -6.4,-7.77 -9.94,-7.77 -3.54,0 -8.79,0.8 -11.88,3.32 z"
   id="path362"
   style="fill:url(#SVGID_12_)" /><path
   class="st17"
   d="m 1010.91,215.66 c -2.51,1.62 -3.88,6.85 -1.6,9.48 2.28,2.63 9.14,5.03 12.11,2.86 2.97,-2.17 6.51,-8.23 2.51,-10.74 -3.99,-2.52 -7.06,-5.45 -13.02,-1.6 z"
   id="path364" /><path
   d="m 1017.65,219.2 c -3.12,0.98 -4.34,2.4 -3.77,3.88 0.57,1.48 1.71,2.63 3.77,2.28 2.06,-0.34 4.57,-2.5 3.54,-4.05 -1.03,-1.55 -1.94,-2.62 -3.54,-2.11 z"
   id="path366" /><path
   class="st18"
   d="m 1040.54,247.68 c 0,0 1.07,3.5 5.64,6.25 4.57,2.74 11.73,4.11 14.78,4.72 3.05,0.61 11.58,-1.83 11.58,-1.83 l -21.94,-9.14 z"
   id="path368" /><path
   id="path385"
   style="fill:url(#SVGID_13_)"
   d="m 1061.1,231.84 c -3.2084,2.10643 -4.1262,6.06727 -6.2875,8.99955 -3.4179,3.16539 -8.353,4.53781 -12.9375,3.84567 -1.8304,0.0983 -6.415,-0.11478 -5.7393,2.54491 2.2262,1.83751 5.2252,2.2959 7.8394,3.38824 6.2698,2.16148 12.5861,4.28466 19.1146,5.51206 3.5758,1.13116 7.0394,3.4312 10.9603,2.66957 5.1961,-0.642 10.5561,-1.2902 15.7223,-0.12041 1.691,0.25673 5.0768,2.93645 5.6967,0.25109 -0.5493,-3.45746 -2.3872,-6.5591 -3.9764,-9.63354 -4.2355,-7.55043 -11.2457,-13.00841 -18.2926,-17.78542 -2.0882,-1.24158 -4.3849,-3.0704 -6.9559,-2.15797 -1.8552,0.48633 -3.5583,1.42809 -5.1441,2.48625 z" /><path
   class="st20"
   d="m 1072.22,245.85 c 0,0 1.37,-0.3 -1.68,-3.2 -3.05,-2.89 -5.79,-4.57 -6.85,-3.66 -1.06,0.91 -0.35,5.15 1.96,5.62 2.31,0.47 4.29,2.16 6.57,1.24 z"
   id="path387" /><g
   id="g431">
		
			<radialGradient
   id="SVGID_14_"
   cx="280.1839"
   cy="436.58359"
   r="32.5224"
   gradientTransform="matrix(-0.9846,0.1749,0.1749,0.9846,542.98,-27.5813)"
   gradientUnits="userSpaceOnUse">
			<stop
   offset="0.2338"
   style="stop-color:#15A6FF;stop-opacity:0.96"
   id="stop389" />
			<stop
   offset="0.3077"
   style="stop-color:#1BA4F9;stop-opacity:0.964"
   id="stop391" />
			<stop
   offset="0.4095"
   style="stop-color:#2D9EE9;stop-opacity:0.9694"
   id="stop393" />
			<stop
   offset="0.5275"
   style="stop-color:#4A94CE;stop-opacity:0.9757"
   id="stop395" />
			<stop
   offset="0.6577"
   style="stop-color:#7385A9;stop-opacity:0.9827"
   id="stop397" />
			<stop
   offset="0.7979"
   style="stop-color:#A77379;stop-opacity:0.9902"
   id="stop399" />
			<stop
   offset="0.9443"
   style="stop-color:#E65E40;stop-opacity:0.9981"
   id="stop401" />
			<stop
   offset="0.9801"
   style="stop-color:#F65831"
   id="stop403" />
			<stop
   offset="1"
   style="stop-color:#FF55F6"
   id="stop405" />
		</radialGradient>
		<path
   id="path408"
   style="fill:url(#SVGID_14_)"
   d="m 325.2,413.97 c 9.50746,4.71747 19.8406,9.39197 25.91503,18.55023 4.94546,7.10096 6.13858,16.01312 5.8492,24.4713 0.53713,8.79298 5.52997,16.64041 11.22103,23.0802 0.81656,1.5505 5.45076,3.94158 3.68576,4.98888 -3.69148,-1.15478 -7.6729,-2.91559 -9.46764,-6.58761 -1.63598,-2.50564 -2.87146,-5.29507 -4.72336,-7.64095 -0.99835,2.62522 0.15767,6.6717 0.58602,9.73368 0.68879,2.76531 1.58259,5.59083 2.758,8.12046 -2.17869,-2.15062 -4.42614,-4.49182 -5.63404,-7.33619 -0.62398,-3.60126 -1.13485,-7.35011 -2.77453,-10.65094 -2.02209,0.53157 -1.72153,5.46205 -2.86782,7.65072 -0.96696,3.23434 -1.34674,6.61537 -0.97956,9.97088 -1.17699,3.04513 -3.40102,-2.69682 -2.93026,-4.30855 0.2734,-5.09346 4.42987,-9.52722 3.30752,-14.7674 -2.09473,-2.69623 -6.28861,-1.64494 -9.33133,-2.25074 -1.56487,0.30381 -4.69411,-1.09941 -1.49632,-1.44286 3.69783,0.94254 8.62542,0.10675 8.484,-4.63416 1.32132,-5.94198 1.85022,-12.80574 -1.98804,-17.97674 -3.22845,-4.94748 -6.80742,-10.62901 -12.79605,-12.41103 -5.9138,-0.91102 -11.14243,-4.02798 -16.3176,-6.81222 -1.36995,-3.77325 4.05159,-5.92534 6.49733,-7.93743 0.98627,-0.62708 1.99149,-1.22367 3.00266,-1.80953 z" />
		
			<radialGradient
   id="SVGID_15_"
   cx="351.26181"
   cy="471.77899"
   r="28.589199"
   gradientTransform="matrix(-0.9901,-0.1403,-0.1403,0.9901,682.6381,58.0039)"
   gradientUnits="userSpaceOnUse">
			<stop
   offset="0.2338"
   style="stop-color:#15A6FF;stop-opacity:0.96"
   id="stop410" />
			<stop
   offset="0.3077"
   style="stop-color:#1BA4F9;stop-opacity:0.964"
   id="stop412" />
			<stop
   offset="0.4095"
   style="stop-color:#2D9EE9;stop-opacity:0.9694"
   id="stop414" />
			<stop
   offset="0.5275"
   style="stop-color:#4A94CE;stop-opacity:0.9757"
   id="stop416" />
			<stop
   offset="0.6577"
   style="stop-color:#7385A9;stop-opacity:0.9827"
   id="stop418" />
			<stop
   offset="0.7979"
   style="stop-color:#A77379;stop-opacity:0.9902"
   id="stop420" />
			<stop
   offset="0.9443"
   style="stop-color:#E65E40;stop-opacity:0.9981"
   id="stop422" />
			<stop
   offset="0.9801"
   style="stop-color:#F65831"
   id="stop424" />
			<stop
   offset="1"
   style="stop-color:#FF55F6"
   id="stop426" />
		</radialGradient>
		<path
   id="path429"
   style="fill:url(#SVGID_15_)"
   d="m 258.79,443.7 c -0.43462,8.43581 0.46013,16.98372 2.76669,25.11449 1.87695,4.73035 1.836,10.15899 4.67831,14.48785 2.74265,3.69712 7.89326,3.2527 11.96084,2.95895 3.41325,-0.2449 7.48185,-0.84076 10.1301,1.88133 1.49966,1.59795 5.11307,4.74629 4.06125,6.46101 -3.94746,-2.59528 -7.85826,-6.20753 -12.87961,-6.21834 -2.96359,0.38481 -5.95422,1.15526 -8.65298,2.46141 -1.93743,2.47557 3.9828,2.18941 5.16823,3.914 3.13049,2.19143 4.81842,6.13652 4.81585,9.87599 -2.01027,-0.44336 -2.92299,-3.6798 -4.58224,-5.09763 -3.1102,-2.83715 -6.58505,-5.47357 -10.54644,-6.97906 -2.21092,-0.52263 1.1589,2.98045 0.53267,4.30622 0.23862,3.03193 -0.37263,6.12021 -1.34124,8.97782 -1.24882,-1.37946 -0.57385,-4.80492 -1.11374,-6.96353 -0.38835,-2.93973 -1.40326,-6.87069 -4.91663,-7.28966 -2.97903,-0.71649 -6.14685,-0.89933 -8.9628,-2.13421 2.05073,-0.82899 4.71775,0.31332 6.99148,-0.27912 3.21487,-0.23207 3.02412,-4.10664 1.80569,-6.2175 -2.73448,-5.9491 -8.06002,-10.26719 -10.60288,-16.34119 -2.45347,-4.82061 -2.99484,-10.33803 -2.37265,-15.65266 0.47268,-2.36337 0.0441,-5.77033 0.98254,-7.47563 4.02535,0.10091 8.05524,-0.012 12.07756,0.20946 z" />
	</g><g
   id="g435"
   style="fill:#6d23b0;fill-opacity:1">
		<path
   id="path433"
   style="fill:#6d23b0;fill-opacity:1"
   d="m 247.06,278.37 c -10.63807,-11.28724 -27.05513,-19.54877 -30.67467,-35.67093 2.25324,-21.01654 23.33801,-36.49847 43.77207,-36.58069 18.19501,0.36782 34.74595,10.55698 44.82176,25.47152 14.60199,19.99915 25.93824,42.48702 34.47771,65.68797 3.40871,14.2033 6.87169,28.55676 14.86443,41.03453 8.41847,15.75314 8.49598,34.90507 5.24882,52.07037 -4.51311,16.65124 -13.50396,32.75592 -28.88399,41.57926 -14.94263,12.9832 -31.97122,25.1442 -52.33693,26.75287 -18.46331,3.25287 -36.79433,-1.17389 -54.89166,-4.2483 -24.53582,-0.41944 -43.88563,-16.63095 -64.62842,-27.4322 -33.83213,-19.72642 -72.140176,-31.01494 -110.844999,-35.89483 -10.301111,-4.1864 19.444008,-11.69399 2.54752,-11.96957 -14.962408,-4.00169 -4.198737,-11.75254 3.244609,-12.21875 -7.452871,-2.1626 -23.177881,-11.60724 -6.294414,-10.90941 6.180573,-0.45553 -15.968104,-10.84974 -2.908711,-13.49422 15.646241,1.62722 31.224945,6.45914 47.259551,4.57554 20.321134,-1.35775 39.736064,-8.95412 60.233944,-9.0808 34.24851,-3.36216 68.28442,-9.32444 101.61813,-17.7982 15.52612,-4.47014 8.59994,-25.51663 0.36067,-34.04601 -2.2303,-2.69545 -4.62364,-5.2491 -6.98542,-7.82815 z" />
	</g><path
   class="st24"
   d="m 276.03,228.61 c 4.1,4.14 5.85,10.28 1.44,14.5 -4.41,4.22 -6.57,4.78 -12.53,3.81 -5.23,-0.86 -10.21,-3.19 -12.26,-7.61 -2.04,-4.42 -0.3,-6.66 2.1,-9.88 2.4,-3.22 6.09,-6.25 10.17,-5.82 4.09,0.43 8.27,2.17 11.08,5 z"
   id="path454"
   style="fill:url(#SVGID_16_)" /><path
   class="st25"
   d="m 272.13,231.84 c 1.93,1.55 3.65,6.41 0.82,8.72 -2.83,2.31 -8.69,3.19 -11.63,0.77 -2.94,-2.42 -6.14,-7.63 -1.77,-10.07 4.36,-2.44 8,-3.09 12.58,0.58 z"
   id="path456" /><path
   d="m 266.86,232.1 c 1.94,0.04 2.26,1.77 2.55,4.64 0.2,1.94 -2.11,1.94 -3.75,1.6 -1.64,-0.34 -4.03,-2.52 -3.21,-4.1 0.81,-1.59 1.78,-2.19 4.41,-2.14 z"
   id="path458" /><g
   id="g466">
		<path
   class="st18"
   d="m 242.94,252.74 c -1.88,2.79 -1.98,3.94 -5.51,5.74 -3.54,1.8 -9.46,3.93 -13.79,4.88 -4.33,0.95 -7.91,-0.13 -12.04,-1.19 7.34,-2.76 14.54,-5.91 21.79,-8.9 3.19,-0.16 6.29,-0.34 9.55,-0.53 z"
   id="path460" />
		<path
   class="st26"
   d="m 224.37,239.34 c 3.6,2.34 3.03,4.91 5.31,7.89 2.28,2.97 6.8,3.58 10.12,3.17 3.32,-0.41 10.28,0.34 4.38,3.24 -5.9,2.9 -14.99,5.22 -20.68,7.01 -5.69,1.79 -8.13,3.76 -13.47,3.13 -5.34,-0.63 -10.92,-2.63 -16.06,-1.89 -5.14,0.74 -5.46,-0.06 -3.27,-4.78 2.19,-4.72 7.16,-9.84 11.22,-13.28 4.06,-3.44 11.14,-7.37 15.42,-7.76 4.29,-0.39 4.89,1.89 7.03,3.27 z"
   id="path462" />
		<path
   class="st27"
   d="m 212.71,250.8 c -0.81,-0.41 1.15,-2.41 2.33,-2.9 1.17,-0.49 4.87,-3.88 6.52,-2.13 1.64,1.75 0.01,4.24 -2.13,4.66 -2.15,0.41 -4.52,1.5 -6.72,0.37 z"
   id="path464" />
	</g><path
   id="path487"
   style="fill:url(#SVGID_17_)"
   d="m 262.8,297.61 c 14.00474,5.30352 26.0978,14.42331 36.22411,25.33624 9.10986,8.31928 16.88944,19.29279 16.8925,32.12405 1.77723,13.79929 1.74118,29.54231 -8.47661,40.31971 -12.41708,15.17127 -27.9635,30.2535 -48.4899,32.27445 -23.80887,2.21155 -48.13861,-0.24443 -71.11415,-6.81953 -13.2078,-3.94087 -23.5568,-13.69417 -36.12896,-19.09422 -12.55567,-6.65633 -26.1009,-11.20744 -40.1424,-13.37035 -10.35528,-1.37403 9.20899,-7.55349 -1.70541,-5.16894 -6.24997,2.27541 -15.989661,-4.60168 -4.71721,-5.43029 4.6778,-0.67509 10.60152,-1.86269 2.33291,-1.82669 -5.51975,0.9515 -17.227923,-4.50568 -6.19488,-7.16396 3.91362,-1.01107 11.79373,-3.64586 3.01664,-3.13568 -3.9113,0.26621 -18.731231,0.59654 -8.240046,-3.0135 26.194486,-10.50662 55.292476,-16.46776 77.188336,-35.36219 9.55153,-9.30576 19.099,-19.3224 32.08416,-23.76141 13.31661,-4.77619 26.87633,-10.55915 41.21031,-10.70557 5.69791,0.41481 11.0953,2.4844 16.2606,4.79788 z" />

<path
   id="path510"
   style="fill:url(#SVGID_18_)"
   d="m 594.40704,519.40447 c 4.16789,13.25535 2.03347,27.49438 5.50926,40.85879 3.35685,10.37022 11.92165,19.54782 10.50733,31.08226 -1.76281,6.39281 -9.35449,6.3936 -14.66174,7.42941 -4.86174,0.96754 -7.90207,5.05204 -11.21931,8.32438 -3.53893,4.18433 -4.6487,10.11279 -2.80976,15.27177 0.60473,5.32246 -2.62738,11.38443 1.12045,16.09186 3.42722,-5.29027 6.29271,-11.64366 4.17107,-17.99097 -0.97959,-6.15167 4.69694,-13.3688 11.20881,-11.4262 3.91963,4.1404 -1.64928,10.65614 0.55317,15.90133 0.63586,6.05182 2.38354,11.90179 3.77526,17.80482 6.32389,-1.23464 3.80547,-10.44047 4.5793,-15.22664 -0.63688,-5.35273 -2.09371,-12.24107 3.02576,-15.92214 6.46856,-4.4945 8.26752,6.19845 9.46111,10.54303 2.05349,6.31425 4.30338,12.57874 7.11679,18.59899 5.17653,-2.04423 -0.5153,-9.82791 0.68841,-14.20169 0.99349,-6.75198 -4.36627,-13.38547 -1.83228,-19.70258 4.34052,-4.71708 9.40991,-8.85445 12.67336,-14.52393 1.50166,-1.89801 6.57746,-8.76829 1.1148,-7.39586 -3.42996,2.79095 -8.79024,11.66291 -12.49516,4.17414 -1.87249,-4.61357 -0.5595,-9.69228 -1.15419,-14.53939 -0.0147,-7.3751 -1.48517,-15.0654 1.59974,-22.07072 3.93121,-10.31642 11.62201,-19.44667 11.97595,-30.9145 -0.29173,-4.6233 3.88501,-15.52977 -3.54024,-15.26005 -5.63556,2.62233 -11.66575,3.95984 -17.5545,5.9394 -7.90633,2.48767 -15.83281,4.91479 -23.81339,7.15449 z" /><path
   class="st31"
   d="m 580.61704,226.02447 c 1.52,-7.14 -12.96,-16.13 -17.41,-22.73 -10.47,5.26 -18.74,8.02 -30.56,5.17 2.98,4.45 1.08,4.31 5.21,9.85 4.13,5.54 14.44,17.15 20.02,23.35 2.41,2.67 2.41,5.09 3.22,8.1 6.49,-8.11 14.53,-14.5 19.52,-23.74 z"
   id="path512" /><path
   class="st29"
   d="m 793.23704,557.62447 c -7.17,-14.37 -28.92,-32.3 -47.3,-52.41 -18.38,-20.12 -26.27,-72.52 -31.26,-101.88 -4.99,-29.36 -23.05,-65.57 -30.88,-86.34 -7.83,-20.77 -6.95,-10.26 -13.2,-24.62 -6.25,-14.36 -14.04,-36.33 -19.53,-48.8 -5.49,-12.47 -6.46,-17.72 -6.54,-28.36 -0.08,-10.64 -2.65,-18.63 -5.35,-28.31 -2.7,-9.68 -5.05,-20.04 -11.56,-27.85 -6.51,-7.81 -16.72,-14.33 -25.51,-18.62 -8.8,-4.29 -16.87,-3.68 -26.3,-2 -9.43,1.68 -17.63,4.81 -26.73,10.5 -9.1,5.69 -18.28,21.56 -21.73,31.57 -3.45,10.01 0.77,16.6 3.92,25.07 0.51,1.39 1.01,1.72 1.48,2.99 11.59,2.6 20.05,0.05 30.45,-5.29 4.46,6.61 18.93,15.59 17.42,22.74 -4.98,9.21 -13.05,15.67 -19.5,23.7 0.1,4.39 1.5,7.65 1.04,12.26 -0.8,8.12 -5.71,14.12 -11.37,21.46 -5.66,7.34 -31.58,24.94 -37.12,27.9 -14.97,8 -22.93,37.01 -23.43,43.45 -3.53,46.03 -7.85,84.54 13.86,124.37 21.71,39.83 51.35,59.96 102.64,72.09 5.47,1.29 50.88,0.18 66.56,8.78 19.35,10.61 64.3,11.82 79.22,19.09 14.92,7.27 11.79,2.47 21.11,1.2 4.06,-0.55 -3.1,-4.86 -2.51,-5.1 -2,-0.34 -4.53,-0.92 -5.42,-2.61 -1.27,-2.42 4.96,2.14 5.42,2.61 4,0.1 8.15,-0.06 11.9,-1.87 2.58,-1.25 -0.7,-3.39 -2.12,-4.07 -2.13,-0.23 -6.19,-1.26 -7.41,-2.31 -1.48,-1.26 6.86,1.98 7.41,2.31 2.23,-0.4 7.97,1.79 9.44,0.1 2.85,-3.27 -6.18,-7.96 -4.25,-8.06 1.93,-0.09 14.32,10.68 7.15,-3.69 z"
   id="path514"
   style="fill:#36004e;fill-opacity:1" /><path
   class="st32"
   d="m 552.57704,239.45447 c -2.71,6.59 -5.39,13.14 -8.23,19.71 3.01,0.6 4.77,-0.08 7.73,-1.86 1.16,-0.7 4.27,-2.23 6.2,-3.08 2.99,-1.32 7.21,-2.73 9.68,-5.06 4.05,-3.82 8.75,-10.76 10.26,-15.23 0.94,-2.77 0.18,-2.72 0.6,-4.5 0.26,-1.09 -0.04,-0.54 0.15,-1.41 -8.8,3.93 -17.65,7.49 -26.39,11.43 z"
   id="path516" /><path
   class="st33"
   d="m 587.18704,174.44447 c -2.66,2.06 -5.64,4.43 -6.97,7.69 -1.33,3.26 -2.68,6.66 -1.11,9.86 1.57,3.2 3.07,6.39 6.4,7.73 3.32,1.34 6.77,1.58 10.39,0.65 3.62,-0.93 8.27,-3.03 10.96,-5.58 2.69,-2.55 4.8,-4.78 4.87,-8.38 0.07,-3.6 -0.53,-7.79 -2.32,-10.74 -1.79,-2.95 -4.09,-5.1 -7.27,-5.83 -3.17,-0.73 -8.37,0.34 -10.78,1.46 -2.4,1.13 -2.39,1.77 -4.17,3.14 z"
   id="path523"
   style="fill:url(#SVGID_19_)" /><path
   class="st34"
   d="m 589.59704,178.39447 c -2.18,1.62 -4.62,4.71 -4.76,7.5 -0.14,2.79 -0.75,5.7 1.92,7.81 2.66,2.11 9.8,1.11 12.7,-0.55 2.9,-1.65 5.46,-3.87 5.87,-6.82 0.41,-2.95 -0.25,-5.54 -1.92,-7.52 -1.67,-1.98 -3.7,-3.31 -6.27,-3.22 -2.57,0.09 -5.36,1.18 -7.54,2.8 z"
   id="path525" /><path
   d="m 592.38704,182.78447 c -1.14,1.16 -1.52,3.26 -0.44,4.31 1.08,1.05 2.32,1.06 3.85,0.59 1.54,-0.47 3.53,-2.06 2.95,-3.88 -0.58,-1.82 -2.01,-2.45 -3.38,-2.31 -1.36,0.13 -2.39,0.69 -2.98,1.29 z"
   id="path527" /><path
   class="st35"
   d="m 567.26704,237.41447 c 0.92,-0.51 1.61,-0.71 2.49,-1.14 -3.35,-2.69 -6.9,-1.63 -10.84,-1.21 -9.53,6.86 -17.17,12.21 -28.79,7.49 -1.28,7.99 -0.36,14.96 2.41,22.31 0.83,2.21 0.97,2.41 1.93,4.21 6.47,-3.65 11.71,-7.1 16.63,-13.08 4.92,-5.98 8.95,-14.59 16.17,-18.58 z"
   id="path529" /><path
   class="st36"
   d="m 579.86704,230.36447 c 0.44,-1.26 0.09,-1.43 -0.22,-2.42 -1.13,2.01 -2.41,3.85 -3.79,5.62 1.38,-0.56 3.57,-1.93 4.01,-3.2 z"
   id="path531" /><path
   class="st36"
   d="m 574.71704,226.31447 c -3.56,-0.34 -9.74,-0.35 -10.59,-5.1 -0.85,-4.74 -2.67,-7.44 -7.46,-6.4 -3.73,0.81 -5.43,2.07 -8.32,3.28 -1.5,0.63 -1.84,0.93 -3.15,1.44 -1.82,-1.33 -3.21,-4.35 -6.22,-3.07 -3.01,1.29 -3.2,5.81 -3.54,9.35 -0.11,1.12 -0.02,1.25 -1.14,3.56 -1.13,2.32 -3.66,9.3 -4.1,12.83 -0.01,0.06 -0.07,0.3 -0.05,0.31 11.62,4.77 19.26,-0.62 28.79,-7.47 3.94,-0.42 7.49,-1.49 10.83,1.21 2.04,-0.88 4.08,-1.75 6.09,-2.7 1.41,-1.79 2.66,-3.64 3.81,-5.61 -1.45,-1.42 -2.82,-1.42 -4.95,-1.63 z"
   id="path533" /><path
   class="st37"
   d="m 561.47704,225.44447 c 1.49,-2.14 -0.14,-3.33 -2.4,-2.56 -2.26,0.78 -5.62,6.4 -6.89,8.8 2.62,-1.32 7.8,-4.1 9.29,-6.24 z"
   id="path535" /><path
   id="path550"
   style="fill:url(#SVGID_20_)"
   d="m 510.94704,451.28447 c -4.33241,20.55904 -5.64638,41.75369 -4.65688,62.72161 0.63504,12.07407 4.80304,25.32913 -1.42335,36.61425 -4.04644,5.16515 -8.25203,10.32615 -12.93032,14.94356 -8.46666,6.33712 -20.00232,2.803 -29.26161,7.21806 -6.29247,3.21255 -10.61806,9.0944 -15.93858,13.60644 -5.24501,3.81785 -1.44051,5.21556 2.49285,2.4101 7.61482,-3.68625 13.14385,-11.6312 22.19523,-11.95183 4.17587,-0.14804 12.11756,-2.73901 14.23155,0.0794 -6.81869,3.62534 -14.57732,7.2323 -17.82971,14.7725 -2.94994,5.0603 -7.71134,9.25124 -9.49483,14.85356 5.48369,0.061 8.92012,-6.24969 12.08478,-10.23216 3.31238,-5.66051 8.41613,-9.87871 14.61688,-12.04729 5.31445,-3.74522 12.96035,-0.11406 6.76639,5.92377 -4.80153,6.85812 -3.91534,15.76099 -3.5624,23.67799 2.02649,7.1646 6.18085,-4.57408 5.55287,-7.57455 1.62506,-8.92671 3.44371,-19.19106 11.6201,-24.56771 4.5264,-3.04049 5.03331,-12.11393 12.33703,-7.51774 3.37858,1.3841 9.00091,-0.13954 10.31625,-2.94375 -5.62794,-0.67175 -15.87323,-2.57611 -12.18297,-10.53938 2.72589,-8.23805 8.48159,-15.93524 7.32998,-25.04507 -0.12633,-9.5804 1.39106,-19.42819 6.398,-27.752 4.53851,-9.48802 6.94448,-21.66601 0.38427,-30.85727 -5.55482,-9.16856 -13.17694,-16.85113 -19.04553,-25.79253 z" /><path
   class="st39"
   d="m 532.77704,371.65447 c 1.06,-33.42 -1.57,-18.14 -3.96,-33.57 -2.39,-15.43 -2.2,-16.17 -8.98,-22.25 -6.78,-6.09 -7.67,-7.02 -15.88,0.52 -8.21,7.55 -21.23,19.97 -23.65,36.19 -2.42,16.22 -7.86,35.97 -4.38,54.96 3.48,18.99 -3.47,36.5 9.27,57.08 12.74,20.58 4.83,30.61 38.86,48.36 34.01,17.74 7.66,-107.86 8.72,-141.29 z"
   id="path567"
   style="fill:url(#SVGID_21_)" /><path
   id="path588"
   style="fill:url(#SVGID_22_)"
   d="m 647.34704,311.47447 c -20.68298,0.52898 -40.85034,5.73436 -60.02636,13.25941 -29.81529,9.67451 -60.63988,20.09278 -83.99736,41.96526 -9.32552,7.13722 -12.46445,18.40965 -16.90778,28.63694 -9.95539,19.06294 -3.66702,41.23373 1.22358,60.81796 6.29292,21.32605 12.75181,43.58985 27.60901,60.73273 6.49489,7.99033 11.46232,19.02108 22.0309,22.14187 6.45988,-2.8471 -5.31984,-16.26162 -2.80293,-17.56136 1.62891,6.16455 15.26384,23.55889 16.08524,9.6624 -0.7931,-4.92012 -5.19544,-12.72964 0.3232,-4.09146 2.03155,5.57041 12.41383,13.02603 10.555,1.72 0.83093,-4.34227 -7.24643,-16.22784 -1.8343,-5.93541 2.93705,10.47204 15.94826,16.77394 16.6793,2.12041 2.06901,-10.0374 0.22532,-22.03215 8.74039,-29.53528 15.09648,-14.59843 33.17067,-25.89833 51.47232,-36.0465 12.63757,-6.23988 25.64542,-13.56891 32.66242,-26.37973 13.4152,-17.98276 11.90871,-41.55518 12.24407,-62.78064 -0.48585,-17.78728 -2.6071,-37.19329 -14.14688,-51.51762 -5.34635,-5.4291 -12.07573,-9.20829 -19.90982,-7.20898 z" />
</svg>
