<?xml version="1.0" encoding="UTF-8" standalone="no"?>
<svg
   xmlns:dc="http://purl.org/dc/elements/1.1/"
   xmlns:cc="http://creativecommons.org/ns#"
   xmlns:rdf="http://www.w3.org/1999/02/22-rdf-syntax-ns#"
   xmlns:svg="http://www.w3.org/2000/svg"
   xmlns="http://www.w3.org/2000/svg"
   xmlns:sodipodi="http://sodipodi.sourceforge.net/DTD/sodipodi-0.dtd"
   xmlns:inkscape="http://www.inkscape.org/namespaces/inkscape"
   width="330.93649mm"
   height="140.41527mm"
   viewBox="0 0 330.93649 140.41527"
   version="1.1"
   id="svg3360"
   inkscape:version="1.0.2 (e86c870879, 2021-01-15, custom)"
   sodipodi:docname="palms.svg">
  <defs
     id="defs3354">
    <linearGradient
       id="SVGID_4_"
       gradientUnits="userSpaceOnUse"
       x1="360.1655"
       y1="-26.349501"
       x2="360.1655"
       y2="505.7175">
      <stop
         offset="0"
         style="stop-color:#FF3FA5"
         id="stop105" />
      <stop
         offset="0.0175"
         style="stop-color:#F93DA0"
         id="stop107" />
      <stop
         offset="0.1847"
         style="stop-color:#C02B70"
         id="stop109" />
      <stop
         offset="0.3468"
         style="stop-color:#901B48"
         id="stop111" />
      <stop
         offset="0.4997"
         style="stop-color:#6B0F29"
         id="stop113" />
      <stop
         offset="0.6415"
         style="stop-color:#510712"
         id="stop115" />
      <stop
         offset="0.7678"
         style="stop-color:#410205"
         id="stop117" />
      <stop
         offset="0.8659"
         style="stop-color:#3B0000"
         id="stop119" />
    </linearGradient>
    <linearGradient
       id="SVGID_5_"
       gradientUnits="userSpaceOnUse"
       x1="842.67261"
       y1="162.95509"
       x2="842.67261"
       y2="415.47699">
      <stop
         offset="0"
         style="stop-color:#FF3FA5"
         id="stop128" />
      <stop
         offset="0.0175"
         style="stop-color:#F93DA0"
         id="stop130" />
      <stop
         offset="0.1847"
         style="stop-color:#C02B70"
         id="stop132" />
      <stop
         offset="0.3468"
         style="stop-color:#901B48"
         id="stop134" />
      <stop
         offset="0.4997"
         style="stop-color:#6B0F29"
         id="stop136" />
      <stop
         offset="0.6415"
         style="stop-color:#510712"
         id="stop138" />
      <stop
         offset="0.7678"
         style="stop-color:#410205"
         id="stop140" />
      <stop
         offset="0.8659"
         style="stop-color:#3B0000"
         id="stop142" />
    </linearGradient>
    <linearGradient
       id="SVGID_6_"
       gradientUnits="userSpaceOnUse"
       x1="33.5196"
       y1="96.778603"
       x2="33.5196"
       y2="405.81259">
      <stop
         offset="0"
         style="stop-color:#FF3FA5"
         id="stop149" />
      <stop
         offset="0.0175"
         style="stop-color:#F93DA0"
         id="stop151" />
      <stop
         offset="0.1847"
         style="stop-color:#C02B70"
         id="stop153" />
      <stop
         offset="0.3468"
         style="stop-color:#901B48"
         id="stop155" />
      <stop
         offset="0.4997"
         style="stop-color:#6B0F29"
         id="stop157" />
      <stop
         offset="0.6415"
         style="stop-color:#510712"
         id="stop159" />
      <stop
         offset="0.7678"
         style="stop-color:#410205"
         id="stop161" />
      <stop
         offset="0.8659"
         style="stop-color:#3B0000"
         id="stop163" />
    </linearGradient>
    <linearGradient
       id="SVGID_7_"
       gradientUnits="userSpaceOnUse"
       x1="1143.5073"
       y1="178.78349"
       x2="1143.5073"
       y2="436.85461">
      <stop
         offset="0"
         style="stop-color:#FF3FA5"
         id="stop170" />
      <stop
         offset="0.0175"
         style="stop-color:#F93DA0"
         id="stop172" />
      <stop
         offset="0.1847"
         style="stop-color:#C02B70"
         id="stop174" />
      <stop
         offset="0.3468"
         style="stop-color:#901B48"
         id="stop176" />
      <stop
         offset="0.4997"
         style="stop-color:#6B0F29"
         id="stop178" />
      <stop
         offset="0.6415"
         style="stop-color:#510712"
         id="stop180" />
      <stop
         offset="0.7678"
         style="stop-color:#410205"
         id="stop182" />
      <stop
         offset="0.8659"
         style="stop-color:#3B0000"
         id="stop184" />
    </linearGradient>
  </defs>
  <sodipodi:namedview
     id="base"
     pagecolor="#ffffff"
     bordercolor="#666666"
     borderopacity="1.0"
     inkscape:pageopacity="0.0"
     inkscape:pageshadow="2"
     inkscape:zoom="0.35"
     inkscape:cx="656.82037"
     inkscape:cy="373.92312"
     inkscape:document-units="mm"
     inkscape:current-layer="layer1"
     inkscape:document-rotation="0"
     showgrid="false"
     fit-margin-top="0"
     fit-margin-left="0"
     fit-margin-right="0"
     fit-margin-bottom="0"
     inkscape:window-width="1263"
     inkscape:window-height="967"
     inkscape:window-x="283"
     inkscape:window-y="214"
     inkscape:window-maximized="0" />
  <metadata
     id="metadata3357">
    <rdf:RDF>
      <cc:Work
         rdf:about="">
        <dc:format>image/svg+xml</dc:format>
        <dc:type
           rdf:resource="http://purl.org/dc/dcmitype/StillImage" />
        <dc:title></dc:title>
      </cc:Work>
    </rdf:RDF>
  </metadata>
  <g
     inkscape:label="Taso 1"
     inkscape:groupmode="layer"
     id="layer1"
     transform="translate(-63.585326,-51.500699)">
    <g
       id="g1701"
       transform="matrix(0.26458333,0,0,0.26458333,69.356841,58.065453)">
      <g
         id="g126">
        <g
           id="g124">
          <linearGradient
             id="linearGradient3121"
             gradientUnits="userSpaceOnUse"
             x1="360.1655"
             y1="-26.349501"
             x2="360.1655"
             y2="505.7175">
            <stop
               offset="0"
               style="stop-color:#FF3FA5"
               id="stop3105" />
            <stop
               offset="0.0175"
               style="stop-color:#F93DA0"
               id="stop3107" />
            <stop
               offset="0.1847"
               style="stop-color:#C02B70"
               id="stop3109" />
            <stop
               offset="0.3468"
               style="stop-color:#901B48"
               id="stop3111" />
            <stop
               offset="0.4997"
               style="stop-color:#6B0F29"
               id="stop3113" />
            <stop
               offset="0.6415"
               style="stop-color:#510712"
               id="stop3115" />
            <stop
               offset="0.7678"
               style="stop-color:#410205"
               id="stop3117" />
            <stop
               offset="0.8659"
               style="stop-color:#3B0000"
               id="stop3119" />
          </linearGradient>
          <path
             id="path122"
             style="fill:url(#SVGID_4_)"
             d="m 397.78,30.09 c 9.66758,-2.017121 7.08353,9.834901 15.01994,-1.906035 10.44532,-8.000906 16.66453,-4.157238 4.73006,4.836035 5.9532,0.1076 31.20513,-21.293301 28.77,-4.57 8.05488,-7.917555 22.35872,-2.771446 7.84,3.6 9.65829,-3.02028 26.3777,-6.232821 33.06,6.11 -11.96698,5.903628 -25.5569,13.837431 -38.67,7.24 18.46857,18.697885 -30.89413,-3.679922 -9.52,10.66 -6.67205,6.409417 -36.79494,-8.388488 -16.7775,3.076562 6.96501,7.766954 -25.19647,1.114148 -16.5925,9.313438 -10.82657,1.727071 -31.56825,15.767078 -9.58109,7.991719 8.26069,-3.385027 23.91878,-9.365703 9.89109,1.368281 9.43375,-5.898741 27.47016,-10.242791 26.57031,-3.424375 9.92531,-6.782115 25.98391,1.091297 7.31969,4.724375 5.45475,0.155854 34.74675,-3.287257 23.65,8.72 12.93955,-1.872452 14.86312,8.861877 2.65,7.95 18.48261,-3.388884 27.23955,31.66679 4.27,19.05 -9.59259,3.75752 -16.07646,-19.130371 -15.28,-3.73 -8.42546,4.50158 -15.73763,-17.52115 -11.27,-1.57 -8.86632,3.12477 -21.43696,-22.799538 -12.8475,-3.80922 2.32489,8.78183 -19.95506,-8.096587 -16.9825,0.65922 -14.86489,-7.081339 -26.80437,-3.01862 -42.27,-4.21 17.60444,28.56003 30.4786,59.61876 38.44389,92.18809 15.28522,52.16746 12.50135,107.29213 12.95611,161.05191 -0.97194,49.38622 -5.33594,98.79579 -9.9175,147.8625 -10.73285,4.11997 -28.01628,5.35576 -20.67875,-11.49875 6.9391,-69.90678 12.5668,-140.01893 12.10143,-210.33453 1.74222,-19.89699 2.64127,-43.94864 -20.99518,-46.25922 -1.88717,7.52919 -18.22079,-8.40864 -9,1.54 -10.29641,-1.20217 -35.58939,5.86432 -33.54209,9.09373 9.543,-2.41335 23.36428,-6.50957 19.86568,-2.07264 6.3892,-3.82535 27.63466,3.72866 22.21391,5.90391 -1.54422,-0.81016 22.39587,14.03611 14.98109,15.26213 13.68312,10.03639 3.2627,16.82354 -6.9939,7.17568 -7.24737,-7.03616 -16.4181,-3.5265 -22.23469,-15.17281 5.43723,13.63856 -31.39078,-12.56677 -36.83,2.04 11.73866,51.28658 23.82921,103.05516 47.95665,150.21686 12.7892,14.88124 -16.03069,18.84633 -13.99472,0.0951 -20.1441,-47.40841 -32.2863,-97.89187 -38.53818,-148.9332 -7.97415,-1.80763 -23.06918,20.12365 -24.7325,26.86125 -5.39888,4.52743 1.95065,22.32064 -6.67125,10.04 3.0685,9.33435 3.70376,25.13235 0.35799,23.56502 6.82476,10.87534 -0.32193,22.60983 -7.37674,7.95998 -0.48809,-12.3493 -10.66967,-10.98643 -5.41125,-23.995 -11.23177,4.61267 9.83654,-24.10597 -2.04,-11.01 -1.46669,-16.33598 24.26864,-31.95364 24.02437,-34.64656 -11.92175,0.10241 -18.87645,9.67951 -27.08437,14.28656 -0.96444,-10.26952 -11.2225,22.11703 -14.84,10.44 0.55507,15.43337 -14.45025,19.46949 -9.63916,1.794 1.57938,-7.85839 6.7312,-17.66817 9.12916,-19.79775 -8.88842,-2.76408 23.44562,-12.27806 6.11,-9.53625 8.08114,-5.0783 37.73995,-17.36379 12.36047,-11.17562 -7.62247,-0.48032 -10.72663,5.91695 -12.38678,1.26621 -5.63424,2.32744 -20.52276,19.34095 -19.29369,8.53941 -3.44888,9.45534 -24.218,22.83837 -12.89891,4.37813 4.27043,-8.3507 13.36168,-11.44616 10.00407,-14.63344 8.51908,-4.49022 10.36735,-6.22125 11.02375,-9.49375 9.56731,-4.30417 22.07494,0.0566 14.81451,-6.10996 9.68402,-4.79997 32.49858,5.38687 32.7672,0.62058 -2.89233,-4.00951 -19.72119,-8.24888 -9.18062,-9.82156 -16.98854,-3.48916 -15.27278,-10.74988 -32.26,-11.79 9.97214,-14.05079 39.45946,3.61125 26.72902,-16.66662 -0.0345,-10.19137 11.81479,-22.0312 -2.16902,-9.44338 -7.49157,-6.49231 12.98536,-14.83755 -1.23,-11.82 -3.76639,-10.66366 25.32525,-29.64116 4.89547,-17.85922 -12.0135,1.1789 20.03773,-17.41387 6.91453,-14.27078 5.06374,-7.56766 34.87653,-22.63926 13.39,-11.39 11.8566,-15.44864 -5.3482,3.73424 -6.36,12.11 -3.7138,-24.63518 0.0475,5.96418 -6.9,12.81 -4.55213,-24.55485 -0.79088,31.32682 -11.24,4.98 6.39068,13.4278 -20.8852,48.01876 -21.08578,18.67813 1.39113,-8.7124 15.87502,-23.0854 0.32578,-11.57813 -5.10656,-7.12445 14.21331,-14.87951 1.38,-14.16 4.52604,-16.94544 25.48889,-25.34475 8.66994,-22.87619 6.17143,-8.90605 17.90694,-8.23665 14.3724,-15.55568 8.2028,-9.89231 6.01312,-14.775071 -0.76234,-2.58813 -6.73087,14.44092 -12.39219,7.1866 -10.08814,4.8518 -2.16897,8.15376 -15.07458,18.10173 -14.05186,6.8982 -3.11285,13.26683 -39.9846,31.52495 -27.67965,7.09922 2.15523,-9.99436 27.97453,-17.00326 6.38965,-13.40922 3.83019,-10.56751 14.63648,-7.91246 12.60582,-16.077871 C 266.20471,88.768033 299.02867,86.116068 272.08,85.34 c 12.41988,-2.207077 9.63293,-15.656018 -1.06094,-7.910937 -4.76351,-2.839345 9.04942,-11.992064 -4.64547,-3.805157 -9.99257,6.974991 -30.37487,1.5162 -12.53709,-7.423633 7.74972,-10.654875 27.45479,-3.063125 23.79028,-12.436679 5.17504,-6.087607 26.98058,7.592123 13.89322,-3.393594 8.8792,-7.464715 34.9151,15.803277 18.77,-1.53 13.60244,2.818661 -3.45582,-20.055659 12.70187,-6.560937 8.88638,5.279812 -23.39403,-23.596216 -6.67187,-20.584063 8.51448,8.449042 -11.09558,-22.61695117 1.74141,-20.2345312 9.35955,14.0109892 -3.08536,-15.0754368 10.6991,-17.6393168 6.60853,-7.926993 20.02163,-15.287568 15.15949,1.563379 1.19715,7.2245386 -15.17451,23.6610816 -1,12.765469 2.15426,8.5567187 -4.1616,8.9318606 3.24096,12.900645 -0.0315,7.768189 -8.30138,26.300171 1.75716,10.67998 2.75976,-3.161833 0.51466,18.160995 2.43938,23.548125 -0.26062,9.172601 12.47394,46.762941 14.63,22.27375 0.72239,-11.090799 19.21688,-30.913201 22.34094,-28.875156 -9.70297,19.755791 8.51779,-7.30349 10.45156,-8.587344 z m -68.95,124.09 c -4.31814,-7.40594 -8.33725,-11.32863 -3.95,1.22 2.4631,9.14179 -4.32659,10.49581 -8.69,5.31 6.55498,4.98182 0.91322,22.05622 -5.81,11.09 10.52788,16.25678 -24.03179,28.43916 -2.71828,38.97281 4.59339,10.59556 -1.13577,-11.18739 6.03344,1.64844 4.87259,4.51639 11.80333,20.68116 13.51484,5.76875 3.20678,5.35572 8.04793,-17.126 16.85,-19.75 -1.96983,9.22345 15.38095,-16.24841 20.71,-5.36 10.83173,-10.8011 23.56627,-1.8415 6.83773,5.66176 -5.83905,2.15023 -14.37977,8.74161 -13.11773,11.31824 -4.45442,4.81378 -14.55268,3.1387 -9.741,8.65934 -7.12159,7.44822 -20.81705,25.62823 -4.949,9.19066 9.97323,-8.4802 22.3309,-9.85042 36.31,-9.84 -9.15754,5.86761 15.55231,-0.6918 17.94,7.77625 5.45065,-16.15541 -8.05664,-48.67542 -12.75522,-70.33987 -6.23728,-15.7163 -12.25394,-42.27787 -24.28228,-49.04763 -13.42977,14.29427 -25.35484,29.19922 -32.1825,47.72125 z m 49,-85.72 c 18.42079,-20.145743 45.63008,-29.036052 72.05,-32.22 -26.61111,0.436007 -56.39564,9.158247 -72.05,32.22 z m -51.38,31.53 c -19.4728,4.37442 -43.46796,41.49679 -41.37566,46.50373 C 295.32205,128.03255 307.5859,110.55159 326.45,99.99 Z m 14.03,-25.86 c -9.35666,-8.374129 -35.90792,-13.139435 -38.84282,-9.993494 13.1885,2.272177 26.23134,5.493866 38.84282,9.993494 z" />
        </g>
      </g>
      <g
         id="g147">
        <linearGradient
           id="linearGradient3142"
           gradientUnits="userSpaceOnUse"
           x1="842.67261"
           y1="162.95509"
           x2="842.67261"
           y2="415.47699">
          <stop
             offset="0"
             style="stop-color:#FF3FA5"
             id="stop3126" />
          <stop
             offset="0.0175"
             style="stop-color:#F93DA0"
             id="stop3128" />
          <stop
             offset="0.1847"
             style="stop-color:#C02B70"
             id="stop3130" />
          <stop
             offset="0.3468"
             style="stop-color:#901B48"
             id="stop3132" />
          <stop
             offset="0.4997"
             style="stop-color:#6B0F29"
             id="stop3134" />
          <stop
             offset="0.6415"
             style="stop-color:#510712"
             id="stop3136" />
          <stop
             offset="0.7678"
             style="stop-color:#410205"
             id="stop3138" />
          <stop
             offset="0.8659"
             style="stop-color:#3B0000"
             id="stop3140" />
        </linearGradient>
        <path
           id="path145"
           style="fill:url(#SVGID_5_)"
           d="m 923.18,181.73 c -6.58844,-6.33495 -17.58478,-1.405 -22.36,-0.58 7.27455,-8.73671 -6.53523,0.10429 -10.75555,-3.33498 -6.64803,2.96096 -17.12876,15.29576 -12.07445,2.36498 -6.27146,8.20869 -17.85112,7.71349 -20.81906,18.77969 -1.72325,4.65169 -2.7677,4.86709 -2.53094,-0.75969 -3.6393,7.05097 -6.73734,8.9132 -8.51107,0.20312 -2.29664,-4.78027 -7.78752,-24.06108 -8.81893,-10.13312 0.52695,-5.40806 -8.56923,-22.64616 -9.37,-10.18 0.19779,-6.99561 -8.92134,-14.27638 -11.76977,-10.71484 -6.07754,-5.1323 -19.99845,-5.82529 -23.40868,-2.14916 2.39119,5.79912 14.19242,9.13159 14.99111,10.15134 -8.35774,1.52328 5.94664,4.82187 5.58382,10.25352 3.30029,1.90714 13.0948,6.1109 3.57352,4.63914 1.09978,5.93422 8.97755,13.12651 14.31,18.61 -12.10328,-8.44475 -25.79722,-15.70204 -40.84,-16.4 6.9466,4.28048 6.6476,6.07478 -1.12385,3.34776 -5.07429,-2.55012 -21.02948,-2.19348 -11.61615,3.59224 -8.43117,-4.10569 -20.71755,3.94449 -16.72579,5.76581 -9.46756,1.25937 -20.57196,14.96654 -20.20466,20.05552 8.42759,0.6362 15.78396,-7.59948 21.17045,-9.90133 -5.64252,12.50387 6.58836,-5.8303 8.47,2.66 5.7117,-2.38443 11.99803,-7.10108 17.36,-8.08 -8.97456,9.18622 8.14338,-0.11377 12.55674,4.43217 4.54607,-0.49201 15.75978,-0.62073 5.98683,2.28066 -4.94041,4.14722 -25.07794,-0.0544 -21.36173,6.08263 12.5889,3.39731 -7.59292,0.98523 -11.03871,3.83376 -4.05792,1.99657 -5.91406,5.09875 0.41687,4.34078 -8.74344,-0.38017 -15.49669,10.847 -12.03406,11.01822 -7.40259,4.2908 -11.24755,19.43755 -8.4621,23.56775 6.74036,-1.17208 13.2647,-13.05099 14.31866,-13.61003 -1.50662,9.88424 6.26139,-5.28851 11.75195,-4.38981 3.69794,-4.80341 8.93935,-12.08416 5.54555,-1.82613 6.00891,-7.06829 14.27834,-5.48462 21.75,-10.33 -7.96374,7.73994 23.71827,-2.45164 11.88781,4.25078 -12.55961,1.74347 -21.47808,9.46209 -29.67625,18.10656 -4.24681,2.69551 -11.27313,13.70065 -1.94859,7.70547 3.11263,-0.46548 -15.39616,14.48975 -7.80103,16.14931 1.72771,-1.18572 -8.56791,16.78443 0.29806,13.30788 -4.81248,8.9388 1.83505,24.97727 5.69066,27.83115 5.04845,-5.54193 3.9183,-19.84275 4.12934,-21.49271 5.72819,8.97396 0.73071,-7.03917 6.54578,-9.33969 1.03534,-9.32437 -0.0449,-15.33276 4.21422,-9.00248 -0.0828,-9.41898 7.49343,-13.64138 9.93,-22.36627 1.35394,5.98312 9.90898,-8.55837 14.88,-9.92 7.92752,-5.20646 21.64139,-15.0722 17.40109,1.22396 -1.57815,47.16023 21.9308,90.16837 47.38442,128.21505 7.85387,11.53836 15.44099,23.30345 23.6973,34.54036 6.58632,1.0299 20.48159,-6.90753 10.02856,-13.48421 -27.4891,-37.21062 -57.40838,-74.82169 -68.87931,-120.6048 -3.3442,-12.68588 -5.46407,-25.67774 -6.62206,-38.74036 14.56835,2.32972 26.84266,11.36553 37.35,21.22 0.16886,-15.51924 2.67594,6.24924 7.18,6.7 2.44181,-8.64427 4.42925,15.49089 9.11,4.43 1.27003,7.33898 11.37364,16.35812 15.70993,16.49034 4.58384,-6.03521 -5.60663,-17.14843 -2.41493,-17.25534 4.81994,0.17358 -4.99437,-7.71954 -3.6,-12.295 -2.32514,-5.02486 -18.68625,-10.8919 -5.425,-8.3 0.28104,-3.33483 -6.5622,-4.90542 -9.23,-7.51 -0.46424,-7.97044 -24.05251,-6.10662 -11.94,-9.32 -8.12085,-3.74693 -24.84068,-2.67309 -28.43642,-2.73676 10.27804,-3.03174 20.84728,-5.46919 31.62712,-3.81742 5.56192,-0.1657 18.38797,4.0965 9.0293,-3.72582 5.17994,1.31053 15.68692,11.79235 14.38625,4.16123 4.00941,1.63246 11.84493,11.45112 10.58375,1.75877 5.15348,6.08129 19.59769,10.37128 23.56239,8.26941 -0.0317,-7.38364 -13.97282,-14.23166 -12.89239,-14.61441 6.23664,-1.36184 -7.61283,-5.83885 -9.53234,-9.42469 -3.97695,-3.20727 -22.92941,-0.4653 -10.7232,-4.5441 0.2362,-3.8997 -13.48254,0.21234 -18.29383,-3.02574 -4.47724,-1.05025 -20.03947,9.20254 -10.70063,0.85953 -6.21164,-0.70716 -23.53381,11.83017 -25.42044,10.80077 6.11746,-5.82244 18.86407,-13.65419 21.53044,-17.28483 -14.80076,-3.76841 21.10742,-0.45049 8.49801,-6.70838 2.63595,-1.70968 16.62885,1.44169 12.89664,-4.83543 8.07818,-1.24625 15.24449,-4.83627 22.02535,-9.26213 z" />
      </g>
      <g
         id="g168">
        <linearGradient
           id="linearGradient3162"
           gradientUnits="userSpaceOnUse"
           x1="33.5196"
           y1="96.778603"
           x2="33.5196"
           y2="405.81259">
          <stop
             offset="0"
             style="stop-color:#FF3FA5"
             id="stop3146" />
          <stop
             offset="0.0175"
             style="stop-color:#F93DA0"
             id="stop3148" />
          <stop
             offset="0.1847"
             style="stop-color:#C02B70"
             id="stop3150" />
          <stop
             offset="0.3468"
             style="stop-color:#901B48"
             id="stop3152" />
          <stop
             offset="0.4997"
             style="stop-color:#6B0F29"
             id="stop3154" />
          <stop
             offset="0.6415"
             style="stop-color:#510712"
             id="stop3156" />
          <stop
             offset="0.7678"
             style="stop-color:#410205"
             id="stop3158" />
          <stop
             offset="0.8659"
             style="stop-color:#3B0000"
             id="stop3160" />
        </linearGradient>
        <path
           id="path166"
           style="fill:url(#SVGID_6_)"
           d="m 90.27,155.63 c -0.272775,-7.61242 -16.96082,-3.84299 -9.41,-9.26 -5.559911,-3.0934 -12.47487,-2.20726 -17.13,-2.34 7.958105,-4.67652 -7.978296,-1.12159 -10.62875,-0.0213 -2.542129,2.10973 -6.4907,8.55916 -3.73125,1.51125 -9.155795,8.39424 -2.721673,-11.43324 -4.076133,-17.08875 -0.542941,-5.03869 -4.109067,7.04274 -2.229648,-1.60141 1.948076,-6.46602 -1.688484,-11.41075 -2.644981,-9.45584 C 40.656587,107.0227 34.031711,101.69714 24.54,96.78 c 0.1936,6.1415 8.387482,13.05996 3.832656,12.79828 1.817189,3.78489 3.889406,14.11926 4.047344,14.87672 -4.228849,-1.60935 0.553768,11.4083 0.560723,15.67 2.722531,10.6261 -3.506383,-8.49932 -5.778223,-11.66 -3.718235,-8.14493 -12.036235,-15.47347 -10.180156,-9.77494 -4.519342,-6.12543 -10.966033,-7.87976 -10.5627151,-5.15336 -3.5301843,-4.53181 -10.6134773,-3.37001 -9.1960962,-1.3842 -6.1201306,-3.29132 -24.9528717,4.6195 -9.9122827,5.77 3.0299057,0.57575 11.3772729,-1.76174 5.33875,2.8175 6.60533211,-0.25566 10.0286997,4.26789 17.66,3.9 -7.3733761,2.2779 6.713525,4.9571 6.79125,10.065 5.376071,4.53143 4.702518,6.04622 -1.680469,2.37703 C 11.077933,131.9719 1.1503411,126.21979 7.51,135.77 4.2762944,129.33404 -6.3905239,129.7025 -3.7713086,132.44424 -5.8262001,130.82639 -15.705661,133.1817 -10.38,135.33 c -8.236789,-1.00286 -18.387212,15.21082 -4.763477,9.44303 3.44739,-1.72778 5.4708065,-3.25004 2.803477,0.90697 3.4926938,-0.42543 15.3082952,-2.23628 13.40625,0.17 -2.5472413,3.57021 6.8255533,0.35111 8.5975,4.4625 5.732435,0.69018 1.85523,4.5452 8.658105,7.71998 C 27.853478,167.77176 8.6701806,152.16024 3.63,157.34 c -7.5729879,-2.33545 -12.8383272,3.04473 -8.3421289,3.7651 -6.2490291,0.5112 -8.6921281,6.12293 -9.2772461,7.52068 -4.76184,5.09224 -1.920368,7.0502 -5.928965,13.14174 -1.401464,6.6045 -1.797761,15.35713 4.40834,5.78998 2.427029,-3.21778 3.058346,-9.91682 3.8,-2.8875 1.7901734,-3.46459 9.6261494,-13.33951 9.415,-10.49 0.1470683,4.9668 4.0664658,-5.87431 8.07625,-3.08875 4.269178,-3.25666 11.027234,6.48492 18.864941,3.30539 14.206777,0.26036 1.721001,15.54519 2.450645,23.88818 -9.869741,51.71441 -6.902154,104.70783 -5.292715,157.00235 0.807354,16.28632 1.412324,32.6039 2.870879,48.84299 5.787307,5.04174 13.048121,-1.46485 8.987154,-8.71985 C 27.338046,324.02672 26.629185,251.9534 34.96,180.7 c 10.714531,-4.41434 11.901868,20.32104 16.45,11.58 -1.24391,5.32148 -0.974736,9.73855 1.191563,9.89156 -1.54288,7.3894 3.738879,3.19252 2.7483,10.65422 0.962126,5.94015 4.397098,12.66185 6.200137,3.26547 -0.157661,-5.3498 0.04368,-5.93274 1.8375,-6.29109 1.431061,-4.85413 -3.301214,-16.664 -2.0975,-15.58016 3.934104,1.14628 -3.783013,-13.12914 -8.36,-15.54 8.758142,-0.26732 -13.869842,-9.12035 -10.592539,-6.9592 8.045777,-5.70906 20.920049,9.41935 23.248789,5.8742 -1.366792,-8.42442 5.612539,12.90578 5.60375,3.005 1.961154,1.945 3.666488,11.35991 5.72,4.98 1.870934,6.10399 14.027344,19.16801 9.83375,5.37875 0.286098,-3.13606 -6.783424,-8.17248 -0.76375,-5.89875 -1.276824,-5.7668 -11.449283,-14.24399 -10.375,-14.55 4.075879,-0.38862 -9.857222,-9.52355 -14.93418,-7.93014 -2.962655,0.37254 5.621078,-4.1573 -2.952695,-2.17549 -5.812073,0.0362 -19.007245,3.4743 -6.622207,-0.96099 4.092838,-2.64744 14.346415,-1.2604 8.734082,-6.28338 2.738811,0.65795 12.506332,6.76282 7.85,0.11 4.903758,2.94795 7.307184,3.81511 9.324063,1.53813 4.313826,1.42029 8.814097,1.1336 13.265937,0.82187 z" />
      </g>
      <path
         id="path187"
         style="fill:url(#SVGID_7_)"
         d="m 1072.14,203.43 c 4.5411,-6.83924 16.6335,-1.39893 18.381,-2.54034 -5.6469,-5.72452 6.7213,-0.49365 9.894,-3.18466 3.6377,2.0436 16.5545,11.87365 9.065,1.985 6.3443,3.48317 15.9837,5.5882 19.7207,14.52678 3.3913,7.2384 -0.2879,-7.70574 4.2393,1.19197 5.3707,5.7051 6.033,-12.76288 9.32,-17.73875 2.9626,0.84627 1.8118,8.52245 3.0531,1.31234 -1.501,-4.85755 5.9397,-14.68785 6.4669,-5.57234 -0.4802,-7.74972 6.7641,-11.47678 10.2706,-10.50781 4.3657,-5.10272 26.221,-7.22747 14.9852,1.83133 -2.1053,3.96129 -14.2144,4.48593 -5.0758,5.70648 -6.1926,3.53255 -6.997,10.07576 -14.22,12.94 9.8727,-2.59639 -0.4593,7.49237 -2.3913,10.89375 -3.9552,2.12499 -6.1668,7.96851 -0.6876,2.22883 6.1575,-6.24505 25.3774,-16.02775 28.2506,-12.40555 -8.1609,8.35808 10.1422,-4.85655 14.6785,-0.31979 2.164,1.47495 -6.0257,5.34173 2.3182,2.68151 3.2992,-2.132 16.0289,2.64498 8.2716,4.54125 9.2677,-1.70533 20.0245,10.91142 20.29,15.60694 -7.0969,1.45212 -13.9377,-5.09023 -18.48,-6.81694 5.6519,10.23204 -6.0412,-4.5732 -6.98,2.84 -5.5967,-1.18602 -18.5641,-10.21644 -12.6,-1.5 -7.6162,-2.08551 -14.4841,1.13776 -22.25,1.83 7.3017,5.10499 18.7016,-1.05265 24.44,4.14 -7.4043,1.57199 -5.5345,4.01522 1.3533,1.9502 3.8182,-2.19576 15.7744,4.42514 6.5867,4.6398 8.6179,-1.39407 12.3391,8.13221 11.0233,8.21206 6.7011,1.92488 12.3172,18.75382 7.1854,18.85513 -6.4948,0.75615 -13.5144,-17.33193 -11.2187,-6.10719 -5.1816,-5.86344 -12.5041,-6.00511 -17.02,-13.12 4.4612,10.25092 -4.9153,-1.71587 -10.1491,1.36797 -4.5224,-3.29198 -7.6017,-3.50339 -6.6158,-0.46797 -4.4884,0 -8.9767,0 -13.4651,0 6.7323,4.64113 21.6149,3.30114 26.8987,13.4625 5.6883,1.89034 13.4713,12.60875 2.9413,7.1675 3.4356,2.13266 16.2384,13.29581 8.09,13.09 6.2091,4.27308 4.0686,12.18402 2.4994,13.72031 3.6607,6.21181 -1.2008,19.93391 -3.8171,21.40621 -5.3885,-3.61346 -4.0849,-18.66856 -5.2223,-16.96902 -3.8994,6.78439 -0.4091,-7.48007 -5.9991,-7.67844 -0.7082,-8.12377 -0.741,-13.07713 -3.9051,-7.71939 -0.8744,-6.93428 -7.7673,-12.5404 -9.8758,-17.10723 -3.989,1.29369 -14.5353,-11.16066 -22.7608,-11.54849 -11.2656,-6.33346 -4.2371,13.05628 -6.1302,19.92808 -0.21,55.7485 -7.6712,111.6754 -23.8903,165.05813 -5.3506,3.29699 -18.6068,0.23388 -11.5797,-8.16375 18.5123,-57.50008 28.5588,-117.63128 30.621,-177.97641 -12.1822,0.4936 -23.6834,15.59062 -29.8495,18.4075 -1.5667,-12.45042 -2.4021,15.36416 -6.4305,5.3225 -1.2073,6.03898 -4.0393,9.78344 -6.4621,8.18512 -1.2936,7.04809 -15.5649,21.68586 -13.2429,6.00863 -0.8469,-3.92958 8.0527,-9.49262 0.095,-6.75375 4.0833,-7.47744 4.283,-15.51647 13.53,-19.44 -12.4117,3.34503 2.6824,-4.52838 4.0156,-9.51609 6.2485,-2.74826 13.3628,-3.53144 8.8512,-5.63462 7.306,-3.27295 15.4653,-3.47755 23.3332,-3.35929 -12.4115,-3.58863 -25.238,-2.54372 -37.6807,0.34812 -2.9888,1.18263 5.5576,-8.5478 -1.0368,-2.77718 -2.5292,2.07353 -10.5264,10.22082 -7.6725,2.08906 -4.5891,4.38032 -9.997,8.08228 -10.8466,4.39331 -3.7663,5.06187 -15.5117,8.6185 -18.4329,7.22677 -0.95,-6.32222 11.4039,-13.20186 9.9445,-13.09008 -5.889,-0.59902 6.6611,-5.46736 7.158,-8.89859 6.2592,-3.16366 18.1505,-0.59966 8.117,-5.54141 10.164,0.0584 19.053,-5.21684 28.71,0.54 -8.7216,-8.44695 12.0354,2.77847 16.8746,4.0175 5.6812,2.4765 -8.6439,-6.4783 -11.6102,-8.75496 -3.1948,-2.34614 -11.0346,-4.29079 -2.5144,-4.87254 -1.4899,-2.50831 -7.7315,-0.47056 -11.154,-1.13 -6.5257,0.49923 4.9939,-5.55083 -3.6829,-3.29783 -5.7805,1.04775 -7.2992,0.089 -7.3865,-2.96338 -6.8668,-0.45864 -13.1333,-2.94757 -19.1366,-6.17879 z" />
    </g>
  </g>
</svg>
