<?xml version="1.0" encoding="UTF-8" standalone="no"?>
<svg
   xmlns:dc="http://purl.org/dc/elements/1.1/"
   xmlns:cc="http://creativecommons.org/ns#"
   xmlns:rdf="http://www.w3.org/1999/02/22-rdf-syntax-ns#"
   xmlns:svg="http://www.w3.org/2000/svg"
   xmlns="http://www.w3.org/2000/svg"
   xmlns:sodipodi="http://sodipodi.sourceforge.net/DTD/sodipodi-0.dtd"
   xmlns:inkscape="http://www.inkscape.org/namespaces/inkscape"
   width="88.56617mm"
   height="94.921928mm"
   viewBox="0 0 88.56617 94.921928"
   version="1.1"
   id="svg11874"
   inkscape:version="1.0.2 (e86c870879, 2021-01-15, custom)"
   sodipodi:docname="pigeon_2.svg">
  <defs
     id="defs11868">
    <radialGradient
       id="SVGID_9_"
       cx="962.59363"
       cy="504.39651"
       r="35.519901"
       gradientUnits="userSpaceOnUse"
       gradientTransform="matrix(0.26458333,0,0,0.26458333,-164.71525,53.173989)">
      <stop
         offset="0.2338"
         style="stop-color:#E90020;stop-opacity:0.96"
         id="stop288" />
      <stop
         offset="0.3122"
         style="stop-color:#EA0226;stop-opacity:0.9641"
         id="stop290" />
      <stop
         offset="0.4201"
         style="stop-color:#EB0A38;stop-opacity:0.9697"
         id="stop292" />
      <stop
         offset="0.5452"
         style="stop-color:#EE1555;stop-opacity:0.9763"
         id="stop294" />
      <stop
         offset="0.6833"
         style="stop-color:#F3257E;stop-opacity:0.9835"
         id="stop296" />
      <stop
         offset="0.8318"
         style="stop-color:#F83AB2;stop-opacity:0.9912"
         id="stop298" />
      <stop
         offset="0.9871"
         style="stop-color:#FE53F0;stop-opacity:0.9993"
         id="stop300" />
      <stop
         offset="1"
         style="stop-color:#FF55F6"
         id="stop302" />
    </radialGradient>
    <radialGradient
       id="SVGID_10_"
       cx="1036.0438"
       cy="515.89807"
       r="28.2822"
       gradientUnits="userSpaceOnUse"
       gradientTransform="matrix(0.26458333,0,0,0.26458333,-164.71525,53.173989)">
      <stop
         offset="0.2338"
         style="stop-color:#E90020;stop-opacity:0.96"
         id="stop307" />
      <stop
         offset="0.3122"
         style="stop-color:#EA0226;stop-opacity:0.9641"
         id="stop309" />
      <stop
         offset="0.4201"
         style="stop-color:#EB0A38;stop-opacity:0.9697"
         id="stop311" />
      <stop
         offset="0.5452"
         style="stop-color:#EE1555;stop-opacity:0.9763"
         id="stop313" />
      <stop
         offset="0.6833"
         style="stop-color:#F3257E;stop-opacity:0.9835"
         id="stop315" />
      <stop
         offset="0.8318"
         style="stop-color:#F83AB2;stop-opacity:0.9912"
         id="stop317" />
      <stop
         offset="0.9871"
         style="stop-color:#FE53F0;stop-opacity:0.9993"
         id="stop319" />
      <stop
         offset="1"
         style="stop-color:#FF55F6"
         id="stop321" />
    </radialGradient>
    <linearGradient
       id="SVGID_11_"
       gradientUnits="userSpaceOnUse"
       x1="975.03418"
       y1="404.17899"
       x2="1201.3661"
       y2="404.17899"
       gradientTransform="matrix(0.26458333,0,0,0.26458333,-164.71525,53.173989)">
      <stop
         offset="0.2338"
         style="stop-color:#E9005A;stop-opacity:0.96"
         id="stop328" />
      <stop
         offset="0.2543"
         style="stop-color:#E50654;stop-opacity:0.9611"
         id="stop330" />
      <stop
         offset="0.3807"
         style="stop-color:#D02436;stop-opacity:0.9677"
         id="stop332" />
      <stop
         offset="0.5137"
         style="stop-color:#BF3C1E;stop-opacity:0.9746"
         id="stop334" />
      <stop
         offset="0.6545"
         style="stop-color:#B34D0D;stop-opacity:0.982"
         id="stop336" />
      <stop
         offset="0.8084"
         style="stop-color:#AC5703;stop-opacity:0.99"
         id="stop338" />
      <stop
         offset="1"
         style="stop-color:#AA5A00"
         id="stop340" />
    </linearGradient>
    <radialGradient
       id="SVGID_12_"
       cx="1017.1484"
       cy="221.147"
       r="13.5161"
       gradientUnits="userSpaceOnUse"
       gradientTransform="matrix(0.26458333,0,0,0.26458333,-164.71525,53.173989)">
      <stop
         offset="0.2338"
         style="stop-color:#E90020;stop-opacity:0.96"
         id="stop345" />
      <stop
         offset="0.3122"
         style="stop-color:#EA0226;stop-opacity:0.9641"
         id="stop347" />
      <stop
         offset="0.4201"
         style="stop-color:#EB0A38;stop-opacity:0.9697"
         id="stop349" />
      <stop
         offset="0.5452"
         style="stop-color:#EE1555;stop-opacity:0.9763"
         id="stop351" />
      <stop
         offset="0.6833"
         style="stop-color:#F3257E;stop-opacity:0.9835"
         id="stop353" />
      <stop
         offset="0.8318"
         style="stop-color:#F83AB2;stop-opacity:0.9912"
         id="stop355" />
      <stop
         offset="0.9871"
         style="stop-color:#FE53F0;stop-opacity:0.9993"
         id="stop357" />
      <stop
         offset="1"
         style="stop-color:#FF55F6"
         id="stop359" />
    </radialGradient>
    <linearGradient
       id="SVGID_13_"
       gradientUnits="userSpaceOnUse"
       x1="1035.829"
       y1="244.6234"
       x2="1095.4705"
       y2="244.6234"
       gradientTransform="matrix(0.26458333,0,0,0.26458333,-164.71525,53.173989)">
      <stop
         offset="0.2338"
         style="stop-color:#E9005A;stop-opacity:0.96"
         id="stop370" />
      <stop
         offset="0.2543"
         style="stop-color:#E50654;stop-opacity:0.9611"
         id="stop372" />
      <stop
         offset="0.3807"
         style="stop-color:#D02436;stop-opacity:0.9677"
         id="stop374" />
      <stop
         offset="0.5137"
         style="stop-color:#BF3C1E;stop-opacity:0.9746"
         id="stop376" />
      <stop
         offset="0.6545"
         style="stop-color:#B34D0D;stop-opacity:0.982"
         id="stop378" />
      <stop
         offset="0.8084"
         style="stop-color:#AC5703;stop-opacity:0.99"
         id="stop380" />
      <stop
         offset="1"
         style="stop-color:#AA5A00"
         id="stop382" />
    </linearGradient>
  </defs>
  <sodipodi:namedview
     id="base"
     pagecolor="#ffffff"
     bordercolor="#666666"
     borderopacity="1.0"
     inkscape:pageopacity="0.0"
     inkscape:pageshadow="2"
     inkscape:zoom="0.35"
     inkscape:cx="98.797732"
     inkscape:cy="170.80859"
     inkscape:document-units="mm"
     inkscape:current-layer="layer1"
     inkscape:document-rotation="0"
     showgrid="false"
     fit-margin-top="0"
     fit-margin-left="0"
     fit-margin-right="0"
     fit-margin-bottom="0"
     inkscape:window-width="3440"
     inkscape:window-height="1377"
     inkscape:window-x="-8"
     inkscape:window-y="-8"
     inkscape:window-maximized="1" />
  <metadata
     id="metadata11871">
    <rdf:RDF>
      <cc:Work
         rdf:about="">
        <dc:format>image/svg+xml</dc:format>
        <dc:type
           rdf:resource="http://purl.org/dc/dcmitype/StillImage" />
        <dc:title></dc:title>
      </cc:Work>
    </rdf:RDF>
  </metadata>
  <g
     inkscape:label="Taso 1"
     inkscape:groupmode="layer"
     id="layer1"
     transform="translate(-79.6931,-102.97356)">
    <path
       id="path305"
       style="fill:url(#SVGID_9_);stroke-width:0.264583"
       d="m 94.290661,175.63903 c -2.67636,1.93315 -5.40963,4.21913 -6.45383,7.47444 -0.63351,1.7986 -0.71798,3.72792 -0.66507,5.61446 -0.26379,2.3009 -1.78986,4.192 -3.28132,5.85525 -0.42211,0.2817 -1.9317,1.42994 -0.62126,1.23124 1.67299,-0.35523 2.40446,-2.06373 3.30089,-3.32399 0.50544,-0.78089 0.10387,0.85101 0.0929,1.21098 -0.15274,1.04894 -0.42168,2.07812 -0.95796,3.00014 -0.30476,0.95557 0.98478,-0.39477 1.12609,-0.82503 0.631,-1.15566 0.63583,-2.53676 1.26992,-3.69393 0.6985,0.91188 0.22293,2.18918 0.71963,3.19947 0.11615,0.60199 -0.33745,1.9276 0.27198,2.06014 0.88802,-0.87751 0.38904,-2.20655 0.16442,-3.24963 -0.33857,-0.97645 -0.72738,-2.6739 0.83104,-2.67878 0.64096,-0.18767 2.17454,0.30088 2.27539,-0.35707 -0.85612,-0.24852 -2.41233,0.2609 -2.53134,-1.04439 -0.30946,-1.93032 -0.48607,-4.09671 0.67083,-5.79911 0.7162,-1.33277 1.25657,-2.85446 2.49775,-3.80776 1.15252,-0.29831 2.09816,-1.05571 2.88296,-1.91109 0.73918,-0.31657 2.11746,-1.18333 0.86268,-1.8415 -0.77067,-0.46593 -1.6279,-0.76759 -2.4557,-1.11384 z" />
    <path
       id="path324"
       style="fill:url(#SVGID_10_);stroke-width:0.264583"
       d="m 112.41198,181.3064 c 0.0156,2.27616 -0.11142,4.60423 -0.85601,6.77125 -0.62193,1.32209 -0.52861,2.94891 -1.49627,4.10753 -0.78402,0.70855 -1.92416,0.43624 -2.8724,0.34429 -0.99928,-0.14722 -2.22221,-0.2601 -2.96214,0.58147 -0.40122,0.39468 -1.47217,1.22409 -1.08003,1.64011 1.11286,-0.53497 1.98932,-1.65931 3.29906,-1.70885 0.87133,0.0644 1.64481,0.53114 2.47992,0.74354 0.67826,0.24092 0.18079,0.6619 -0.29652,0.58065 -0.9873,0.14943 -1.91154,0.84783 -2.14808,1.84686 -0.21285,0.43114 -0.53578,1.82266 0.12782,0.88837 0.66424,-0.79232 1.34157,-1.60499 2.2768,-2.09045 0.4431,-0.22582 1.26137,-0.80637 1.5603,-0.62364 -0.18301,0.76154 -0.48668,1.54122 -0.2299,2.3269 0.0673,0.3217 0.13777,1.23331 0.31187,1.17871 0.24894,-1.08116 0.30448,-2.19844 0.58946,-3.27224 0.53234,-0.80851 1.63716,-0.44591 2.4275,-0.74265 0.39576,0.0394 1.70127,-0.35971 0.6776,-0.39864 -0.81608,0.0301 -2.46137,0.19539 -2.2233,-1.08243 0.46742,-1.40994 1.62714,-2.43231 2.42163,-3.65507 0.98224,-1.43208 1.65796,-3.18821 1.43224,-4.94889 -0.10763,-0.79376 0.0313,-1.86235 -0.25093,-2.48432 -1.06288,-0.001 -2.12577,0.004 -3.18862,-0.002 z" />
    <path
       id="path326"
       style="fill:#5c0a63;fill-opacity:1;stroke-width:0.264583"
       d="m 110.59429,124.26753 c 2.21517,-3.95458 7.33012,-7.12017 6.14296,-12.25156 -2.44168,-7.58452 -12.63457,-11.82683 -19.323969,-6.97531 -6.974,5.76499 -9.74873,14.92248 -11.73861,23.39175 -0.16381,5.31219 -2.22564,10.19643 -4.53173,14.85669 -3.35299,9.78914 -0.84059,21.58084 7.02166,28.52024 3.19015,4.01899 6.70108,8.44481 11.997779,9.56372 5.84805,2.34711 12.31066,1.61648 18.41762,2.63072 6.85133,-0.26376 12.91973,-4.47315 19.86568,-4.31384 7.88659,-0.41198 15.24807,2.91924 22.83386,4.47388 0.74144,-1.67294 -3.95351,-4.23299 0.18806,-2.74557 3.14227,1.0694 2.60753,-3.74341 -0.15692,-3.24785 1.79012,-0.17152 7.8945,0.11628 3.29618,-1.83339 1.58043,-0.64519 6.2094,-2.1163 1.79157,-3.12431 -6.90816,-1.15394 -13.40786,-4.71163 -17.86149,-10.14219 -5.87042,-4.84397 -12.21322,-9.08258 -18.04977,-13.97159 -5.59186,-4.30381 -11.90553,-7.56075 -17.81196,-11.34041 -3.55817,-3.32264 -4.96853,-9.30635 -2.08092,-13.49098 z" />
    <path
       class="st15"
       d="m 104.74964,142.54495 c -4.900079,3.13795 -5.439829,4.53495 -7.011459,7.01145 -1.57162,2.4765 -4.4741,5.78644 -4.4741,10.29759 0,4.51379 -0.12171,8.382 2.60085,10.98285 2.72257,2.60086 5.979589,6.96119 10.667999,7.98513 4.68842,1.02393 18.12661,1.27264 22.10859,0 3.98198,-1.27265 11.05429,-1.45521 14.56002,-1.15359 3.50573,0.30163 5.98487,0.48684 3.44487,-0.84402 -2.53735,-1.33085 0,0.30163 2.23838,0.30163 2.23837,0 1.75419,-0.60325 -1.20915,-1.87325 -2.96333,-1.27 0.19315,0.18256 2.60615,0.0609 2.413,-0.12171 1.38377,-0.66411 -1.33615,-2.4183 -2.71991,-1.75418 5.98488,1.51078 3.86821,0.0609 -2.11667,-1.44991 -8.1624,-4.83658 -11.66812,-8.8265 -3.50573,-3.98991 -9.79488,-12.33222 -11.54642,-14.26633 -1.75419,-1.9341 -4.77573,-5.43983 -9.61231,-7.01146 -4.83659,-1.57162 -8.10155,-2.41829 -9.9748,-2.29658 -1.87589,0.11642 -3.88937,1.11125 -5.26256,1.98967 z"
       id="path343"
       style="fill:url(#SVGID_11_);stroke-width:0.264583" />
    <path
       class="st16"
       d="m 101.74927,109.23655 c -1.19327,0.97102 -1.55575,2.71992 -0.635,4.11163 0.65616,0.99218 0.78316,1.15358 2.38918,1.53458 2.0955,0.49742 3.92907,-0.508 4.44236,-1.56633 0.51329,-1.05834 0.24077,-1.84415 -0.42333,-2.90248 -0.66411,-1.05834 -1.69334,-2.05582 -2.62996,-2.05582 -0.93663,0 -2.32569,0.21167 -3.14325,0.87842 z"
       id="path362"
       style="fill:url(#SVGID_12_);stroke-width:0.264583" />
    <path
       class="st17"
       d="m 102.75468,110.23403 c -0.6641,0.42862 -1.02658,1.8124 -0.42333,2.50825 0.60325,0.69585 2.41829,1.33085 3.2041,0.75671 0.78582,-0.57415 1.72244,-2.17752 0.66411,-2.84163 -1.05569,-0.66675 -1.86796,-1.44198 -3.44488,-0.42333 z"
       id="path364"
       style="fill:#e90020;stroke-width:0.264583" />
    <path
       d="m 104.53798,111.17065 c -0.8255,0.2593 -1.1483,0.635 -0.99748,1.02659 0.15081,0.39158 0.45243,0.69585 0.99748,0.60325 0.54504,-0.09 1.20914,-0.66146 0.93662,-1.07156 -0.27252,-0.41011 -0.51329,-0.69321 -0.93662,-0.55828 z"
       id="path366"
       style="stroke-width:0.264583" />
    <path
       class="st18"
       d="m 110.59429,118.70599 c 0,0 0.2831,0.92604 1.49225,1.65364 1.20914,0.72496 3.10356,1.08744 3.91054,1.24884 0.80698,0.16139 3.06387,-0.48419 3.06387,-0.48419 l -5.80495,-2.41829 z"
       id="path368"
       style="fill:#d966e3;stroke-width:0.264583" />
    <path
       id="path385"
       style="fill:url(#SVGID_13_);stroke-width:0.264583"
       d="m 116.03412,114.51499 c -0.84889,0.55732 -1.09172,1.6053 -1.66357,2.38113 -0.90432,0.83751 -2.21006,1.20063 -3.42304,1.0175 -0.4843,0.026 -1.69731,-0.0304 -1.51853,0.67334 0.58902,0.48617 1.3825,0.60746 2.07418,0.89647 1.65888,0.57189 3.33007,1.13365 5.0574,1.4584 0.9461,0.29929 1.86251,0.90784 2.89992,0.70632 1.3748,-0.16986 2.79296,-0.34136 4.15985,-0.0319 0.44741,0.0679 1.34324,0.77694 1.50726,0.0664 -0.14534,-0.91478 -0.63162,-1.73542 -1.05209,-2.54887 -1.12065,-1.99772 -2.97543,-3.44181 -4.83992,-4.70573 -0.5525,-0.3285 -1.16017,-0.81237 -1.84042,-0.57096 -0.49085,0.12868 -0.94146,0.37785 -1.36104,0.65782 z" />
    <path
       class="st20"
       d="m 118.97629,118.2218 c 0,0 0.36248,-0.0794 -0.4445,-0.84667 -0.80698,-0.76464 -1.53194,-1.20914 -1.8124,-0.96837 -0.28046,0.24077 -0.0926,1.3626 0.51859,1.48696 0.61118,0.12435 1.13506,0.5715 1.73831,0.32808 z"
       id="path387"
       style="fill:#c000d0;stroke-width:0.264583" />
  </g>
</svg>
