<?xml version="1.0" encoding="UTF-8" standalone="no"?>
<svg xmlns:dc="http://purl.org/dc/elements/1.1/" xmlns:cc="http://creativecommons.org/ns#" xmlns:rdf="http://www.w3.org/1999/02/22-rdf-syntax-ns#" xmlns:svg="http://www.w3.org/2000/svg" xmlns="http://www.w3.org/2000/svg" xmlns:sodipodi="http://sodipodi.sourceforge.net/DTD/sodipodi-0.dtd" xmlns:inkscape="http://www.inkscape.org/namespaces/inkscape" width="92.941917mm" height="133.76997mm" viewBox="0 0 92.94192 133.76997" version="1.1" id="svg10059" inkscape:version="1.0.2 (e86c870879, 2021-01-15, custom)" sodipodi:docname="pigeon_1.svg">
   <defs id="defs10053">
      <linearGradient id="SVGID_3_" gradientUnits="userSpaceOnUse" x1="4903.3105" y1="551.35461" x2="4903.3105" y2="92.805" gradientTransform="rotate(180,2771.9052,296.66315)">
         <stop offset="0" style="stop-color:#F7BA4F" id="stop89" />
         <stop offset="0.4832" style="stop-color:#FF2E00" id="stop91" />
         <stop offset="0.5492" style="stop-color:#FF2824" id="stop93" />
         <stop offset="0.7741" style="stop-color:#FF1398" id="stop95" />
         <stop offset="0.9288" style="stop-color:#FF05E2" id="stop97" />
         <stop offset="1" style="stop-color:#FF00FF" id="stop99" />
      </linearGradient>
      <mask maskUnits="userSpaceOnUse" x="411.23" y="41.97" width="458.55" height="458.55" id="SVGID_2_">
         <g class="st2" id="g86">
            <g id="g84">
               <g id="g42">
                  <rect x="391.87" y="434.31" width="487.17001" height="99.029999" id="rect40" />
               </g>
               <g id="g46">
                  <rect x="391.87" y="419.82001" width="487.17001" height="1.74" id="rect44" />
               </g>
               <g id="g50">
                  <rect x="391.87" y="405.34" width="487.17001" height="1.74" id="rect48" />
               </g>
               <g id="g54">
                  <rect x="391.87" y="390.85999" width="487.17001" height="1.74" id="rect52" />
               </g>
               <g id="g58">
                  <rect x="391.87" y="376.37" width="487.17001" height="1.74" id="rect56" />
               </g>
               <g id="g62">
                  <rect x="391.87" y="361.89001" width="487.17001" height="1.74" id="rect60" />
               </g>
               <g id="g66">
                  <rect x="391.87" y="347.39999" width="487.17001" height="1.74" id="rect64" />
               </g>
               <g id="g70">
                  <rect x="391.87" y="332.92001" width="487.17001" height="1.74" id="rect68" />
               </g>
               <g id="g74">
                  <rect x="391.87" y="318.44" width="487.17001" height="1.74" id="rect72" />
               </g>
               <g id="g78">
                  <rect x="391.87" y="303.95001" width="487.17001" height="1.74" id="rect76" />
               </g>
               <g id="g82">
                  <rect x="391.87" y="289.47" width="487.17001" height="1.74" id="rect80" />
               </g>
            </g>
         </g>
      </mask>
      <filter id="Adobe_OpacityMaskFilter" filterUnits="userSpaceOnUse" x="411.23001" y="41.970001" width="458.54999" height="458.54999">
         <feFlood result="back" id="feFlood33" />
         <feBlend in="SourceGraphic" in2="back" mode="normal" id="feBlend35" />
      </filter>
      <radialGradient id="SVGID_18_" cx="677.86768" cy="586.57111" r="53.729698" gradientUnits="userSpaceOnUse" gradientTransform="matrix(0.26458333,0,0,0.26458333,-68.98446,16.928177)">
         <stop offset="0.2338" style="stop-color:#00153F;stop-opacity:0.96" id="stop497" />
         <stop offset="0.2829" style="stop-color:#09123C;stop-opacity:0.9626" id="stop499" />
         <stop offset="0.4362" style="stop-color:#210A36;stop-opacity:0.9706" id="stop501" />
         <stop offset="0.5994" style="stop-color:#320432;stop-opacity:0.9791" id="stop503" />
         <stop offset="0.7778" style="stop-color:#3C012F;stop-opacity:0.9884" id="stop505" />
         <stop offset="1" style="stop-color:#3F002E" id="stop507" />
      </radialGradient>
      <radialGradient id="SVGID_19_" cx="661.00311" cy="197.05161" r="16.1707" gradientUnits="userSpaceOnUse" gradientTransform="matrix(0.26458333,0,0,0.26458333,-68.98446,16.928177)">
         <stop offset="0" style="stop-color:#FFFFFF" id="stop518" />
         <stop offset="1" style="stop-color:#91278D" id="stop520" />
      </radialGradient>
      <radialGradient id="SVGID_20_" cx="554.83649" cy="545.724" r="66.5961" gradientUnits="userSpaceOnUse" gradientTransform="matrix(0.26458333,0,0,0.26458333,-68.98446,16.928177)">
         <stop offset="0.2338" style="stop-color:#00153F;stop-opacity:0.96" id="stop537" />
         <stop offset="0.2829" style="stop-color:#09123C;stop-opacity:0.9626" id="stop539" />
         <stop offset="0.4362" style="stop-color:#210A36;stop-opacity:0.9706" id="stop541" />
         <stop offset="0.5994" style="stop-color:#320432;stop-opacity:0.9791" id="stop543" />
         <stop offset="0.7778" style="stop-color:#3C012F;stop-opacity:0.9884" id="stop545" />
         <stop offset="1" style="stop-color:#3F002E" id="stop547" />
      </radialGradient>
      <linearGradient id="SVGID_21_" gradientUnits="userSpaceOnUse" x1="574.09161" y1="322.75671" x2="574.09161" y2="526.42468" gradientTransform="matrix(0.26458333,0,0,0.26458333,-68.98446,16.928177)">
         <stop offset="0.2338" style="stop-color:#7A00A3" id="stop552" />
         <stop offset="0.3405" style="stop-color:#5A007E" id="stop554" />
         <stop offset="0.4522" style="stop-color:#400060" id="stop556" />
         <stop offset="0.5698" style="stop-color:#2C0048" id="stop558" />
         <stop offset="0.6944" style="stop-color:#1D0037" id="stop560" />
         <stop offset="0.8305" style="stop-color:#15002D" id="stop562" />
         <stop offset="1" style="stop-color:#12002A" id="stop564" />
      </linearGradient>
      <linearGradient id="SVGID_22_" gradientUnits="userSpaceOnUse" x1="647.27039" y1="322.8876" x2="647.27039" y2="550.82172" gradientTransform="matrix(0.26458333,0,0,0.26458333,-68.98446,16.928177)">
         <stop offset="0.2338" style="stop-color:#E900A3;stop-opacity:0.96" id="stop569" />
         <stop offset="0.2584" style="stop-color:#DB009D;stop-opacity:0.9613" id="stop571" />
         <stop offset="0.347" style="stop-color:#AF008A;stop-opacity:0.9659" id="stop573" />
         <stop offset="0.4396" style="stop-color:#8A007A;stop-opacity:0.9707" id="stop575" />
         <stop offset="0.5353" style="stop-color:#6B006C;stop-opacity:0.9757" id="stop577" />
         <stop offset="0.6351" style="stop-color:#530062;stop-opacity:0.981" id="stop579" />
         <stop offset="0.7408" style="stop-color:#42005B;stop-opacity:0.9865" id="stop581" />
         <stop offset="0.8563" style="stop-color:#380056;stop-opacity:0.9925" id="stop583" />
         <stop offset="1" style="stop-color:#350055" id="stop585" />
      </linearGradient>
      <filter id="filter9970" filterUnits="userSpaceOnUse" x="411.23001" y="41.970001" width="458.54999" height="458.54999">
         <feFlood result="back" id="feFlood9966" />
         <feBlend in="SourceGraphic" in2="back" mode="normal" id="feBlend9968" />
      </filter>
   </defs>
   <sodipodi:namedview id="base" pagecolor="#ffffff" bordercolor="#666666" borderopacity="1.0" inkscape:pageopacity="0.0" inkscape:pageshadow="2" inkscape:zoom="1" inkscape:cx="438.10731" inkscape:cy="343.15205" inkscape:document-units="mm" inkscape:current-layer="layer1" inkscape:document-rotation="0" showgrid="false" fit-margin-top="0" fit-margin-left="0" fit-margin-right="0" fit-margin-bottom="0" inkscape:window-width="3440" inkscape:window-height="1377" inkscape:window-x="-8" inkscape:window-y="-8" inkscape:window-maximized="1" />
   <metadata id="metadata10056">
      <rdf:RDF>
         <cc:Work rdf:about="">
            <dc:format>image/svg+xml</dc:format>
            <dc:type rdf:resource="http://purl.org/dc/dcmitype/StillImage" />
            <dc:title></dc:title>
         </cc:Work>
      </rdf:RDF>
   </metadata>
   <g inkscape:label="Taso 1" inkscape:groupmode="layer" id="layer1" transform="translate(-65.983522,-56.335247)">
      <g id="Layer_7" transform="matrix(0.26458333,0,0,0.26458333,-51.537052,20.043786)">
         <defs id="defs38">
            <filter id="filter10826" filterUnits="userSpaceOnUse" x="411.23001" y="41.970001" width="458.54999" height="458.54999">
               <feFlood result="back" id="feFlood10822" />
               <feBlend in="SourceGraphic" in2="back" mode="normal" id="feBlend10824" />
            </filter>
         </defs>
         <mask maskUnits="userSpaceOnUse" x="411.23" y="41.97" width="458.55" height="458.55" id="mask10021">
            <g class="st2" id="g10019">
               <g id="g10017">
                  <g id="g9975">
                     <rect x="391.87" y="434.31" width="487.17001" height="99.029999" id="rect9973" />
                  </g>
                  <g id="g9979">
                     <rect x="391.87" y="419.82001" width="487.17001" height="1.74" id="rect9977" />
                  </g>
                  <g id="g9983">
                     <rect x="391.87" y="405.34" width="487.17001" height="1.74" id="rect9981" />
                  </g>
                  <g id="g9987">
                     <rect x="391.87" y="390.85999" width="487.17001" height="1.74" id="rect9985" />
                  </g>
                  <g id="g9991">
                     <rect x="391.87" y="376.37" width="487.17001" height="1.74" id="rect9989" />
                  </g>
                  <g id="g9995">
                     <rect x="391.87" y="361.89001" width="487.17001" height="1.74" id="rect9993" />
                  </g>
                  <g id="g9999">
                     <rect x="391.87" y="347.39999" width="487.17001" height="1.74" id="rect9997" />
                  </g>
                  <g id="g10003">
                     <rect x="391.87" y="332.92001" width="487.17001" height="1.74" id="rect10001" />
                  </g>
                  <g id="g10007">
                     <rect x="391.87" y="318.44" width="487.17001" height="1.74" id="rect10005" />
                  </g>
                  <g id="g10011">
                     <rect x="391.87" y="303.95001" width="487.17001" height="1.74" id="rect10009" />
                  </g>
                  <g id="g10015">
                     <rect x="391.87" y="289.47" width="487.17001" height="1.74" id="rect10013" />
                  </g>
               </g>
            </g>
         </mask>
         <linearGradient id="linearGradient10035" gradientUnits="userSpaceOnUse" x1="4903.3105" y1="551.35461" x2="4903.3105" y2="92.805" gradientTransform="rotate(180,2771.9052,296.66315)">
            <stop offset="0" style="stop-color:#F7BA4F" id="stop10023" />
            <stop offset="0.4832" style="stop-color:#FF2E00" id="stop10025" />
            <stop offset="0.5492" style="stop-color:#FF2824" id="stop10027" />
            <stop offset="0.7741" style="stop-color:#FF1398" id="stop10029" />
            <stop offset="0.9288" style="stop-color:#FF05E2" id="stop10031" />
            <stop offset="1" style="stop-color:#FF00FF" id="stop10033" />
         </linearGradient>
      </g>
      <path id="path510" style="fill:url(#SVGID_18_);stroke-width:0.264583" d="m 105.73314,157.46955 c 1.10275,3.50714 0.53802,7.27455 1.45766,10.81055 0.88816,2.74379 3.15427,5.17203 2.78006,8.22385 -0.46641,1.69143 -2.47504,1.69164 -3.87925,1.9657 -1.28633,0.25599 -2.09076,1.33668 -2.96844,2.20249 -0.93634,1.1071 -1.22997,2.67567 -0.74342,4.04065 0.16,1.40824 -0.69516,3.01213 0.29646,4.25764 0.90678,-1.39972 1.66494,-3.08072 1.10359,-4.76011 -0.25918,-1.62763 1.24273,-3.53716 2.96566,-3.02318 1.03707,1.09548 -0.43637,2.81944 0.14636,4.20723 0.16824,1.60121 0.63065,3.14901 0.99888,4.71085 1.67319,-0.32666 1.00686,-2.76237 1.2116,-4.02871 -0.16851,-1.41624 -0.55396,-3.23878 0.80057,-4.21273 1.71147,-1.18917 2.18745,1.64 2.50325,2.78951 0.54332,1.67064 1.1386,3.32812 1.88298,4.92098 1.36963,-0.54087 -0.13634,-2.6003 0.18215,-3.75753 0.26286,-1.78646 -1.15525,-3.54157 -0.4848,-5.21298 1.14843,-1.24806 2.48971,-2.34274 3.35316,-3.84279 0.39732,-0.50218 1.74029,-2.31994 0.29496,-1.95682 -0.90751,0.73844 -2.32575,3.08581 -3.30601,1.10441 -0.49543,-1.22067 -0.14803,-2.56441 -0.30538,-3.84688 -0.004,-1.95133 -0.39295,-3.98605 0.42327,-5.83954 1.04013,-2.72955 3.07499,-5.14526 3.16863,-8.17946 -0.0772,-1.22325 1.02791,-4.10892 -0.93669,-4.03756 -1.49107,0.69383 -3.08656,1.04771 -4.64462,1.57147 -2.09189,0.6582 -4.1891,1.30037 -6.30063,1.89296 z" />
      <path class="st31" d="m 102.08454,79.846093 c 0.40216,-1.889125 -3.428998,-4.267729 -4.606398,-6.013979 -2.77019,1.391708 -4.95829,2.121958 -8.08567,1.367896 0.78846,1.177395 0.28575,1.140354 1.37848,2.606145 1.09273,1.465792 3.82059,4.537605 5.29696,6.178021 0.63765,0.706438 0.63765,1.346729 0.85196,2.143125 1.71715,-2.145771 3.844398,-3.836458 5.164668,-6.281208 z" id="path512" style="fill:#590c7b;stroke-width:0.264583" />
      <path class="st29" d="m 158.34024,167.58192 c -1.89706,-3.80206 -7.65175,-8.54604 -12.51479,-13.86681 -4.86304,-5.32341 -6.9506,-19.18758 -8.27087,-26.95575 -1.32027,-7.76816 -6.09865,-17.34873 -8.17034,-22.84412 -2.07168,-5.495397 -1.83885,-2.71463 -3.4925,-6.514043 -1.65364,-3.799417 -3.71475,-9.612312 -5.16731,-12.911667 -1.45256,-3.299354 -1.70921,-4.688416 -1.73037,-7.503583 -0.0212,-2.815167 -0.70115,-4.929188 -1.41552,-7.490354 -0.71438,-2.561167 -1.33615,-5.30225 -3.05859,-7.368646 -1.72244,-2.066396 -4.42383,-3.791479 -6.74952,-4.926542 -2.32833,-1.135062 -4.46352,-0.973666 -6.95854,-0.529166 -2.495018,0.4445 -4.664598,1.272646 -7.072308,2.778125 -2.40771,1.505479 -4.83659,5.704416 -5.7494,8.352896 -0.91281,2.648479 0.20373,4.392083 1.03717,6.633104 0.13494,0.36777 0.26723,0.455083 0.39158,0.791104 3.06652,0.687917 5.3049,0.01323 8.05656,-1.399646 1.18005,1.748896 5.008568,4.124854 4.609048,6.016625 -1.31763,2.436813 -3.452818,4.146021 -5.159378,6.270625 0.0265,1.161521 0.39688,2.024062 0.27517,3.243792 -0.21167,2.148416 -1.51077,3.735916 -3.00831,5.677958 -1.49755,1.942042 -8.35555,6.598708 -9.82134,7.381878 -3.96081,2.11666 -6.06689,9.79223 -6.19919,11.49614 -0.93397,12.17877 -2.07697,22.36788 3.66713,32.90623 5.7441,10.53835 13.58635,15.86442 27.156828,19.07381 1.44727,0.34131 13.462,0.0476 17.61067,2.32304 5.11969,2.80723 17.01271,3.12738 20.96029,5.0509 3.94758,1.92352 3.11944,0.65352 5.58535,0.3175 1.07421,-0.14552 -0.8202,-1.28588 -0.6641,-1.34938 -0.52917,-0.09 -1.19856,-0.24342 -1.43404,-0.69056 -0.33602,-0.64029 1.31233,0.56621 1.43404,0.69056 1.05833,0.0265 2.15635,-0.0159 3.14854,-0.49477 0.68263,-0.33073 -0.18521,-0.89694 -0.56091,-1.07685 -0.56357,-0.0609 -1.63778,-0.33338 -1.96057,-0.61119 -0.39158,-0.33338 1.81504,0.52387 1.96057,0.61119 0.59002,-0.10584 2.10872,0.4736 2.49766,0.0264 0.75406,-0.86518 -1.63512,-2.10608 -1.12448,-2.13254 0.51065,-0.0238 3.78884,2.82575 1.89177,-0.97631 z" id="path514" style="fill:#36004e;fill-opacity:1;stroke-width:0.264583" />
      <path class="st32" d="m 94.665622,83.399447 c -0.71702,1.743604 -1.4261,3.476625 -2.17752,5.214937 0.79639,0.15875 1.26206,-0.02117 2.04523,-0.492125 0.30691,-0.185208 1.12977,-0.59002 1.64041,-0.814916 0.79111,-0.34925 1.90765,-0.722313 2.56117,-1.338792 1.07156,-1.010708 2.315108,-2.846916 2.714628,-4.029604 0.2487,-0.732896 0.0476,-0.719667 0.15875,-1.190625 0.0688,-0.288396 -0.0106,-0.142875 0.0397,-0.373062 -2.328328,1.039812 -4.669888,1.981729 -6.982348,3.024187 z" id="path516" style="fill:#43095c;stroke-width:0.264583" />
      <path class="st33" d="m 103.82285,66.198885 c -0.70379,0.545041 -1.49225,1.172104 -1.84415,2.034645 -0.35189,0.862542 -0.70908,1.762125 -0.29368,2.608792 0.41539,0.846667 0.81227,1.690687 1.69333,2.045229 0.87842,0.354542 1.79123,0.418042 2.74902,0.171979 0.95779,-0.246062 2.1881,-0.801687 2.89983,-1.476375 0.71173,-0.674687 1.27,-1.264708 1.28852,-2.217208 0.0185,-0.9525 -0.14023,-2.061104 -0.61383,-2.841625 -0.4736,-0.780521 -1.08215,-1.349375 -1.92352,-1.542521 -0.83873,-0.193146 -2.21456,0.08996 -2.85221,0.386292 -0.635,0.298979 -0.63235,0.468312 -1.10331,0.830792 z" id="path523" style="fill:url(#SVGID_19_);stroke-width:0.264583" />
      <path class="st34" d="m 104.46049,67.243989 c -0.57679,0.428625 -1.22237,1.246187 -1.25941,1.984375 -0.037,0.738187 -0.19844,1.508125 0.508,2.066395 0.70379,0.558271 2.59291,0.293688 3.36021,-0.14552 0.76729,-0.436563 1.44462,-1.023938 1.5531,-1.804459 0.10848,-0.780521 -0.0662,-1.465791 -0.508,-1.989666 -0.44185,-0.523875 -0.97896,-0.875771 -1.65894,-0.851959 -0.67998,0.02381 -1.41816,0.312209 -1.99496,0.740834 z" id="path525" style="fill:#ff00ff;stroke-width:0.264583" />
      <path d="m 105.19868,68.405509 c -0.30162,0.306917 -0.40216,0.862542 -0.11641,1.140355 0.28575,0.277812 0.61383,0.280458 1.01864,0.156104 0.40746,-0.124354 0.93398,-0.545042 0.78052,-1.026584 -0.15346,-0.481541 -0.53181,-0.648229 -0.89429,-0.611187 -0.35983,0.0344 -0.63235,0.182562 -0.78846,0.341312 z" id="path527" style="stroke-width:0.264583" />
      <path class="st35" d="m 98.552352,82.859697 c 0.24342,-0.134937 0.42598,-0.187854 0.65881,-0.301625 -0.88635,-0.711729 -1.82562,-0.431271 -2.86808,-0.320146 -2.52148,1.815042 -4.5429,3.230563 -7.61736,1.981729 -0.33866,2.114021 -0.0953,3.958167 0.63765,5.902854 0.2196,0.58473 0.25665,0.637646 0.51065,1.113896 1.71185,-0.965729 3.09827,-1.878541 4.40002,-3.46075 1.30175,-1.582208 2.36802,-3.86027 4.27831,-4.915958 z" id="path529" style="fill:#120311;stroke-width:0.264583" />
      <path class="st36" d="m 101.8861,80.994385 c 0.11642,-0.333375 0.0238,-0.378355 -0.0582,-0.640292 -0.29898,0.531812 -0.63765,1.018646 -1.00277,1.486958 0.36512,-0.148166 0.94456,-0.510646 1.06098,-0.846666 z" id="path531" style="fill:#93278f;stroke-width:0.264583" />
      <path class="st36" d="m 100.52349,79.922822 c -0.941908,-0.08996 -2.577038,-0.0926 -2.801928,-1.349375 -0.2249,-1.254125 -0.70644,-1.9685 -1.97379,-1.693333 -0.9869,0.214312 -1.43669,0.547687 -2.20134,0.867833 -0.39687,0.166688 -0.48683,0.246063 -0.83344,0.381 -0.48154,-0.351896 -0.84931,-1.150937 -1.6457,-0.812271 -0.7964,0.341313 -0.84667,1.537229 -0.93663,2.473854 -0.0291,0.296334 -0.005,0.33073 -0.30162,0.941917 -0.29898,0.613833 -0.96838,2.460625 -1.0848,3.394604 -0.003,0.01588 -0.0185,0.07938 -0.0132,0.08202 3.07445,1.262063 5.09587,-0.164042 7.61735,-1.976437 1.04246,-0.111125 1.98173,-0.39423 2.86544,0.320145 0.53975,-0.232833 1.079498,-0.46302 1.611308,-0.714375 0.37306,-0.473604 0.70379,-0.963083 1.00806,-1.484312 -0.38364,-0.375708 -0.74612,-0.375708 -1.30969,-0.431271 z" id="path533" style="fill:#93278f;stroke-width:0.264583" />
      <path class="st37" d="m 97.020412,79.692635 c 0.39423,-0.566209 -0.037,-0.881063 -0.635,-0.677334 -0.59796,0.206375 -1.48696,1.693334 -1.82298,2.328334 0.69321,-0.34925 2.06375,-1.084792 2.45798,-1.651 z" id="path535" style="fill:#250a24;stroke-width:0.264583" />
      <path id="path550" style="fill:url(#SVGID_20_);stroke-width:0.264583" d="m 83.651022,139.44613 c -1.14629,5.43958 -1.49394,11.04733 -1.23214,16.5951 0.16802,3.19459 1.27081,6.70166 -0.37659,9.68751 -1.07062,1.36661 -2.18335,2.73213 -3.42115,3.95382 -2.24014,1.67669 -5.29228,0.74163 -7.74213,1.90978 -1.66489,0.84998 -2.80937,2.40622 -4.21709,3.60003 -1.38774,1.01014 -0.38113,1.37995 0.65957,0.63768 2.01475,-0.97532 3.47764,-3.07743 5.87249,-3.16226 1.10486,-0.0392 3.2061,-0.7247 3.76543,0.021 -1.80411,0.9592 -3.85692,1.91355 -4.71744,3.90856 -0.78051,1.33887 -2.0403,2.44772 -2.51218,3.93 1.45089,0.0161 2.36012,-1.65356 3.19743,-2.70726 0.8764,-1.49767 2.22677,-2.61374 3.86739,-3.18751 1.40611,-0.99092 3.42909,-0.0302 1.79027,1.56733 -1.27041,1.81454 -1.03593,4.1701 -0.94255,6.2648 0.53617,1.89564 1.63535,-1.21022 1.46919,-2.0041 0.42997,-2.36186 0.91115,-5.07763 3.07449,-6.5002 1.19761,-0.80447 1.33173,-3.20515 3.26417,-1.98907 0.89392,0.36621 2.38149,-0.0369 2.72951,-0.77887 -1.48906,-0.17773 -4.19979,-0.6816 -3.22341,-2.78854 0.72122,-2.17966 2.24409,-4.2162 1.93939,-6.62651 -0.0334,-2.53481 0.36805,-5.14037 1.6928,-7.34271 1.20082,-2.51038 1.8374,-5.73247 0.10168,-8.16432 -1.46972,-2.42585 -3.4864,-4.45853 -5.03913,-6.82428 z" />
      <path class="st39" d="m 89.426872,118.37736 c 0.28046,-8.84237 -0.4154,-4.79954 -1.04775,-8.88206 -0.63235,-4.08252 -0.58208,-4.27831 -2.37596,-5.88698 -1.79387,-1.61131 -2.02935,-1.85737 -4.20158,0.13758 -2.17223,1.99761 -5.61711,5.28373 -6.2574,9.57528 -0.64029,4.29154 -2.07962,9.51706 -1.15887,14.5415 0.92075,5.02443 -0.91811,9.65729 2.45268,15.10241 3.3708,5.44513 1.27794,8.0989 10.28171,12.79525 8.99848,4.69371 2.02671,-28.53796 2.30717,-37.38298 z" id="path567" style="fill:url(#SVGID_21_);stroke-width:0.264583" />
      <path id="path588" style="fill:url(#SVGID_22_);stroke-width:0.264583" d="m 119.74018,102.45474 c -5.47237,0.13996 -10.80832,1.51721 -15.88197,3.50822 -7.888628,2.55971 -16.044298,5.31621 -22.224298,11.10331 -2.46738,1.88838 -3.29789,4.87088 -4.47352,7.57685 -2.63403,5.04374 -0.97023,10.90976 0.32374,16.09142 1.665,5.64252 3.37391,11.53315 7.30488,16.06887 1.71844,2.11411 3.03274,5.03266 5.82901,5.85837 1.70918,-0.7533 -1.40754,-4.30256 -0.74161,-4.64645 0.43098,1.63104 4.03856,6.23329 4.25589,2.55651 -0.20984,-1.30178 -1.37463,-3.36805 0.0855,-1.08253 0.53752,1.47384 3.28449,3.44647 2.79268,0.45509 0.21985,-1.1489 -1.91729,-4.29362 -0.48533,-1.57041 0.7771,2.77072 4.219648,4.4381 4.413068,0.56102 0.54742,-2.65573 0.0596,-5.82934 2.31256,-7.81454 3.99428,-3.8625 8.77641,-6.85227 13.61872,-9.53731 3.34369,-1.65096 6.78535,-3.5901 8.64193,-6.97963 3.54944,-4.75794 3.15085,-10.99481 3.23958,-16.61071 -0.12855,-4.70622 -0.6898,-9.84073 -3.74303,-13.63071 -1.41456,-1.43645 -3.19504,-2.43636 -5.26781,-1.90737 z" />
   </g>
</svg>
